<?xml version="1.0" standalone="no"?>
<!DOCTYPE svg PUBLIC "-//W3C//DTD SVG 1.1//EN" "http://www.w3.org/Graphics/SVG/1.1/DTD/svg11.dtd" >
<svg>
<metadata>
Created by FontForge 20090622 at Wed Oct  7 02:12:34 2015
 By deploy user
Copyright &#194;&#169; 2015 by Wei Huang. All rights reserved.
</metadata>
<defs>
<font id="WorkSans-Light" horiz-adv-x="604" >
  <font-face 
    font-family="Work Sans Light"
    font-weight="300"
    font-stretch="normal"
    units-per-em="1000"
    panose-1="0 0 4 0 0 0 0 0 0 0"
    ascent="800"
    descent="-200"
    x-height="500"
    cap-height="660"
    bbox="-325 -333 1184 930"
    underline-thickness="50"
    underline-position="-50"
    unicode-range="U+0020-U+FB02"
  />
<missing-glyph horiz-adv-x="500" 
d="M50 660h400v-660h-400v660zM370 80v500h-240v-500h240z" />
    <glyph glyph-name="fi" unicode="fi" horiz-adv-x="587" 
d="M173 500h176v-43h-176v-457h-50v457h-100v43h100v84q0 70 39 110.5t110 40.5q54 0 81 -27l-14 -40q-25 22 -63 22q-49 0 -76 -28.5t-27 -82.5v-79zM442.5 608.5q-11.5 11.5 -11.5 30.5t11.5 30.5t30.5 11.5t30.5 -11.5t11.5 -30.5t-11.5 -30.5t-30.5 -11.5t-30.5 11.5z
M498 0h-50v500h50v-500z" />
    <glyph glyph-name="fl" unicode="fl" horiz-adv-x="632" 
d="M173 500h176v-43h-176v-457h-50v457h-100v43h100v84q0 70 39 110.5t110 40.5q54 0 81 -27l-14 -40q-25 22 -63 22q-49 0 -76 -28.5t-27 -82.5v-79zM494 121q0 -46 14.5 -65t48.5 -19q20 0 34 3t32 11l-7 -48q-28 -13 -66 -13q-54 0 -80 30.5t-26 95.5v614h50v-609z" />
    <glyph glyph-name=".notdef" horiz-adv-x="500" 
d="M50 660h400v-660h-400v660zM370 80v500h-240v-500h240z" />
    <glyph glyph-name="space" unicode=" " horiz-adv-x="313" 
 />
    <glyph glyph-name="A" unicode="A" horiz-adv-x="625" 
d="M470 207h-316l-82 -207h-53l264 660h59l264 -660h-53zM452 253l-115 288l-24 70h-1l-24 -68l-115 -290h279z" />
    <glyph glyph-name="Aacute" unicode="&#xc1;" horiz-adv-x="625" 
d="M331 743h-41l65 148h59zM470 207h-316l-82 -207h-53l264 660h59l264 -660h-53zM452 253l-115 288l-24 70h-1l-24 -68l-115 -290h279z" />
    <glyph glyph-name="Abreve" unicode="&#x102;" horiz-adv-x="625" 
d="M470 207h-316l-82 -207h-53l264 660h59l264 -660h-53zM452 253l-115 288l-24 70h-1l-24 -68l-115 -290h279zM411 775.5q-37 -36.5 -99 -36.5q-61 0 -98 37t-37 98h42q0 -42 26 -69.5t67 -27.5q42 0 68 27.5t26 69.5h42q0 -62 -37 -98.5z" />
    <glyph glyph-name="Acircumflex" unicode="&#xc2;" horiz-adv-x="625" 
d="M220 739h-47l111 156h58l111 -156h-46l-94 122zM470 207h-316l-82 -207h-53l264 660h59l264 -660h-53zM452 253l-115 288l-24 70h-1l-24 -68l-115 -290h279z" />
    <glyph glyph-name="Adieresis" unicode="&#xc4;" horiz-adv-x="625" 
d="M470 207h-316l-82 -207h-53l264 660h59l264 -660h-53zM452 253l-115 288l-24 70h-1l-24 -68l-115 -290h279zM247 819.5q11 -11.5 11 -29.5t-11 -29t-29 -11t-29.5 11t-11.5 29t11.5 29.5t29.5 11.5t29 -11.5zM436.5 819.5q11.5 -11.5 11.5 -29.5t-11.5 -29t-29.5 -11
t-29.5 11t-11.5 29t11.5 29.5t29.5 11.5t29.5 -11.5z" />
    <glyph glyph-name="Agrave" unicode="&#xc0;" horiz-adv-x="625" 
d="M288 743l-83 148h59l65 -148h-41zM470 207h-316l-82 -207h-53l264 660h59l264 -660h-53zM452 253l-115 288l-24 70h-1l-24 -68l-115 -290h279z" />
    <glyph glyph-name="Amacron" unicode="&#x100;" horiz-adv-x="625" 
d="M470 207h-316l-82 -207h-53l264 660h59l264 -660h-53zM452 253l-115 288l-24 70h-1l-24 -68l-115 -290h279zM473 760h-320v42h320v-42z" />
    <glyph glyph-name="Aogonek" unicode="&#x104;" horiz-adv-x="625" 
d="M618 -189q-28 -20 -77 -20q-47 0 -75.5 24t-28.5 68q0 41 26.5 72t85.5 55l-79 197h-316l-82 -207h-53l264 660h59l264 -660q-71 -25 -99.5 -52t-28.5 -62q0 -28 19 -43t49 -15q39 0 61 16zM452 253l-115 288l-24 70h-1l-24 -68l-115 -290h279z" />
    <glyph glyph-name="Aring" unicode="&#xc5;" horiz-adv-x="625" 
d="M470 207h-316l-82 -207h-53l255 636q-29 10 -45 33.5t-16 56.5q0 42 27.5 68.5t72.5 26.5t72.5 -26.5t27.5 -68.5q0 -33 -16 -56.5t-45 -33.5l254 -636h-53zM266.5 680.5q17.5 -17.5 46.5 -17.5q28 0 46 17.5t18 45.5t-18 45t-46 17q-29 0 -46.5 -17t-17.5 -45
t17.5 -45.5zM452 253l-115 288l-24 70h-1l-24 -68l-115 -290h279z" />
    <glyph glyph-name="Atilde" unicode="&#xc3;" horiz-adv-x="625" 
d="M470 207h-316l-82 -207h-53l264 660h59l264 -660h-53zM452 253l-115 288l-24 70h-1l-24 -68l-115 -290h279zM452 778q-24 -27 -68 -27q-28 0 -45.5 9.5t-38.5 28.5q-16 15 -28.5 22.5t-29.5 7.5q-27 0 -39.5 -16.5t-19.5 -52.5h-40q7 56 30.5 83t69.5 27q27 0 44.5 -9.5
t38.5 -28.5q16 -15 28.5 -22.5t28.5 -7.5q27 0 40 16.5t20 52.5h40q-7 -56 -31 -83z" />
    <glyph glyph-name="AE" unicode="&#xc6;" horiz-adv-x="922" 
d="M880 46v-46h-435v232h-249l-140 -232h-57l402 660h464v-46h-370v-256h288v-46h-288v-266h385zM445 279v335h-20l-201 -335h221z" />
    <glyph glyph-name="B" unicode="B" horiz-adv-x="632" 
d="M104 660h233q108 0 161.5 -45t53.5 -130q0 -58 -31.5 -98t-89.5 -52v-1q64 -10 101.5 -52t37.5 -104q0 -85 -60.5 -131.5t-172.5 -46.5h-233v660zM338 356q161 0 161 129t-161 129h-184v-258h184zM347 46q84 0 127 34t43 98q0 65 -43 98.5t-127 33.5h-193v-264h193z" />
    <glyph glyph-name="C" unicode="C" horiz-adv-x="669" 
d="M528.5 36.5q-69.5 -46.5 -166.5 -46.5q-90 0 -158 41.5t-105 118.5t-37 180t37 180t105 118.5t157 41.5q198 0 256 -163l-49 -23q-23 70 -73.5 105t-130.5 35q-74 0 -130.5 -35.5t-87.5 -102t-31 -156.5t30.5 -156.5t86 -102t130.5 -35.5q80 0 136 39t78 111l50 -19
q-28 -84 -97.5 -130.5z" />
    <glyph glyph-name="Cacute" unicode="&#x106;" horiz-adv-x="669" 
d="M458 891l-83 -148h-41l65 148h59zM528.5 36.5q-69.5 -46.5 -166.5 -46.5q-90 0 -158 41.5t-105 118.5t-37 180t37 180t105 118.5t157 41.5q198 0 256 -163l-49 -23q-23 70 -73.5 105t-130.5 35q-74 0 -130.5 -35.5t-87.5 -102t-31 -156.5t30.5 -156.5t86 -102
t130.5 -35.5q80 0 136 39t78 111l50 -19q-28 -84 -97.5 -130.5z" />
    <glyph glyph-name="Ccaron" unicode="&#x10c;" horiz-adv-x="669" 
d="M386 740h-58l-111 156h47l93 -122l94 122h46zM528.5 36.5q-69.5 -46.5 -166.5 -46.5q-90 0 -158 41.5t-105 118.5t-37 180t37 180t105 118.5t157 41.5q198 0 256 -163l-49 -23q-23 70 -73.5 105t-130.5 35q-74 0 -130.5 -35.5t-87.5 -102t-31 -156.5t30.5 -156.5t86 -102
t130.5 -35.5q80 0 136 39t78 111l50 -19q-28 -84 -97.5 -130.5z" />
    <glyph glyph-name="Ccedilla" unicode="&#xc7;" horiz-adv-x="669" 
d="M541 45.5q-60 -45.5 -144 -53.5q65 -43 65 -105q0 -41 -28 -68.5t-75 -27.5q-34 0 -58.5 9t-44.5 29l20 35q29 -35 77 -35q28 0 46.5 17.5t18.5 46.5t-17.5 50.5t-64.5 47.5q-83 6 -145 49t-95.5 117.5t-33.5 172.5q0 103 37 180t105 118.5t157 41.5q198 0 256 -163
l-49 -23q-23 70 -73.5 105t-130.5 35q-74 0 -130.5 -35.5t-87.5 -102t-31 -156.5t30.5 -156.5t86 -102t130.5 -35.5q80 0 136 39t78 111l50 -19q-25 -76 -85 -121.5z" />
    <glyph glyph-name="D" unicode="D" horiz-adv-x="704" 
d="M555.5 576.5q85.5 -83.5 85.5 -241.5q0 -162 -85.5 -248.5t-243.5 -86.5h-208v660h208q158 0 243.5 -83.5zM518.5 120.5q70.5 74.5 70.5 214.5q0 134 -70.5 206.5t-202.5 72.5h-162v-568h162q132 0 202.5 74.5z" />
    <glyph glyph-name="Eth" unicode="&#xd0;" horiz-adv-x="715" 
d="M568 576.5q85 -83.5 85 -241.5q0 -162 -85 -248.5t-244 -86.5h-208v314h-100v39h100v307h208q159 0 244 -83.5zM530.5 121q70.5 75 70.5 214q0 134 -70.5 206.5t-201.5 72.5h-163v-261h202v-39h-202v-268h163q131 0 201.5 75z" />
    <glyph glyph-name="Dcaron" unicode="&#x10e;" horiz-adv-x="704" 
d="M289 740l-111 156h47l93 -122l94 122h46l-111 -156h-58zM555.5 576.5q85.5 -83.5 85.5 -241.5q0 -162 -85.5 -248.5t-243.5 -86.5h-208v660h208q158 0 243.5 -83.5zM518.5 120.5q70.5 74.5 70.5 214.5q0 134 -70.5 206.5t-202.5 72.5h-162v-568h162q132 0 202.5 74.5z
" />
    <glyph glyph-name="Dcroat" unicode="&#x110;" horiz-adv-x="715" 
d="M568 576.5q85 -83.5 85 -241.5q0 -162 -85 -248.5t-244 -86.5h-208v314h-100v39h100v307h208q159 0 244 -83.5zM530.5 121q70.5 75 70.5 214q0 134 -70.5 206.5t-201.5 72.5h-163v-261h202v-39h-202v-268h163q131 0 201.5 75z" />
    <glyph glyph-name="E" unicode="E" horiz-adv-x="612" 
d="M571 46v-46h-467v660h451v-46h-401v-255h317v-47h-317v-266h417z" />
    <glyph glyph-name="Eacute" unicode="&#xc9;" horiz-adv-x="612" 
d="M343 743h-42l66 148h58zM571 46v-46h-467v660h451v-46h-401v-255h317v-47h-317v-266h417z" />
    <glyph glyph-name="Ecaron" unicode="&#x11a;" horiz-adv-x="612" 
d="M300 740l-111 156h47l93 -122l94 122h46l-111 -156h-58zM571 46v-46h-467v660h451v-46h-401v-255h317v-47h-317v-266h417z" />
    <glyph glyph-name="Ecircumflex" unicode="&#xca;" horiz-adv-x="612" 
d="M236 739h-47l111 156h58l111 -156h-46l-94 122zM571 46v-46h-467v660h451v-46h-401v-255h317v-47h-317v-266h417z" />
    <glyph glyph-name="Edieresis" unicode="&#xcb;" horiz-adv-x="612" 
d="M571 46v-46h-467v660h451v-46h-401v-255h317v-47h-317v-266h417zM263 819.5q11 -11.5 11 -29.5t-11 -29t-29 -11t-29.5 11t-11.5 29t11.5 29.5t29.5 11.5t29 -11.5zM452.5 819.5q11.5 -11.5 11.5 -29.5t-11.5 -29t-29.5 -11t-29.5 11t-11.5 29t11.5 29.5t29.5 11.5
t29.5 -11.5z" />
    <glyph glyph-name="Edotaccent" unicode="&#x116;" horiz-adv-x="612" 
d="M571 46v-46h-467v660h451v-46h-401v-255h317v-47h-317v-266h417zM359.5 829.5q11.5 -11.5 11.5 -30.5t-11.5 -30.5t-30.5 -11.5t-30.5 11.5t-11.5 30.5t11.5 30.5t30.5 11.5t30.5 -11.5z" />
    <glyph glyph-name="Egrave" unicode="&#xc8;" horiz-adv-x="612" 
d="M321 743l-83 148h59l65 -148h-41zM571 46v-46h-467v660h451v-46h-401v-255h317v-47h-317v-266h417z" />
    <glyph glyph-name="Emacron" unicode="&#x112;" horiz-adv-x="612" 
d="M571 46v-46h-467v660h451v-46h-401v-255h317v-47h-317v-266h417zM489 760h-320v42h320v-42z" />
    <glyph glyph-name="Eogonek" unicode="&#x118;" horiz-adv-x="612" 
d="M583 -189q-30 -20 -78 -20q-47 0 -75.5 23.5t-28.5 65.5q0 41 24.5 69.5t78.5 50.5h-400v660h451v-46h-401v-255h317v-47h-317v-266h417v-46h-1q-72 -26 -100 -53t-28 -61q0 -28 19 -43t50 -15q38 0 60 16z" />
    <glyph glyph-name="F" unicode="F" horiz-adv-x="584" 
d="M154 614v-255h317v-47h-317v-312h-50v660h450v-46h-400z" />
    <glyph glyph-name="G" unicode="G" horiz-adv-x="702" 
d="M629 323v-323h-40l-2 115q-27 -60 -84.5 -92.5t-142.5 -32.5q-90 0 -157.5 41.5t-104 118.5t-36.5 180t37.5 180t105.5 118.5t158 41.5q101 0 165 -40t96 -122l-46 -24q-23 69 -77.5 104.5t-137.5 35.5q-74 0 -130 -35.5t-87 -102t-31 -156.5q0 -137 65.5 -215.5
t181.5 -78.5q72 0 122 28.5t74 75t24 99.5v37h-224v47h271z" />
    <glyph glyph-name="Gbreve" unicode="&#x11e;" horiz-adv-x="702" 
d="M629 323v-323h-40l-2 115q-27 -60 -84.5 -92.5t-142.5 -32.5q-90 0 -157.5 41.5t-104 118.5t-36.5 180t37.5 180t105.5 118.5t158 41.5q101 0 165 -40t96 -122l-46 -24q-23 69 -77.5 104.5t-137.5 35.5q-74 0 -130 -35.5t-87 -102t-31 -156.5q0 -137 65.5 -215.5
t181.5 -78.5q72 0 122 28.5t74 75t24 99.5v37h-224v47h271zM458 775.5q-37 -36.5 -99 -36.5q-61 0 -98 37t-37 98h42q0 -42 26 -69.5t67 -27.5q42 0 68 27.5t26 69.5h42q0 -62 -37 -98.5z" />
    <glyph glyph-name="H" unicode="H" horiz-adv-x="716" 
d="M612 660v-660h-50v312h-408v-312h-50v660h50v-301h408v301h50z" />
    <glyph glyph-name="I" unicode="I" horiz-adv-x="258" 
d="M154 0h-50v660h50v-660z" />
    <glyph glyph-name="IJ" unicode="&#x132;" horiz-adv-x="792" 
d="M154 0h-50v660h50v-660zM695 218q0 -107 -55 -167.5t-155 -60.5q-91 0 -141 46.5t-50 126.5q0 26 4 47l47 11q-3 -24 -3 -46q0 -139 142 -139q84 0 122.5 49t38.5 144v431h50v-442z" />
    <glyph glyph-name="Iacute" unicode="&#xcd;" horiz-adv-x="258" 
d="M230 891l-83 -148h-41l65 148h59zM154 0h-50v660h50v-660z" />
    <glyph glyph-name="Icircumflex" unicode="&#xce;" horiz-adv-x="258" 
d="M223 739l-94 122l-93 -122h-47l111 156h58l111 -156h-46zM154 0h-50v660h50v-660z" />
    <glyph glyph-name="Idieresis" unicode="&#xcf;" horiz-adv-x="258" 
d="M85 819.5q11 -11.5 11 -29.5t-11 -29t-30 -11q-18 0 -29 11t-11 29t11 29.5t29 11.5q19 0 30 -11.5zM231.5 819.5q11.5 -11.5 11.5 -29.5t-11.5 -29t-29.5 -11t-29 11t-11 29t11 29.5t29 11.5t29.5 -11.5zM154 0h-50v660h50v-660z" />
    <glyph glyph-name="Idotaccent" unicode="&#x130;" horiz-adv-x="258" 
d="M154 0h-50v660h50v-660zM159.5 829.5q11.5 -11.5 11.5 -30.5t-11.5 -30.5t-30.5 -11.5t-30.5 11.5t-11.5 30.5t11.5 30.5t30.5 11.5t30.5 -11.5z" />
    <glyph glyph-name="Igrave" unicode="&#xcc;" horiz-adv-x="258" 
d="M145 743h-41l-83 148h59zM154 0h-50v660h50v-660z" />
    <glyph glyph-name="Imacron" unicode="&#x12a;" horiz-adv-x="258" 
d="M237 760h-217v42h217v-42zM154 0h-50v660h50v-660z" />
    <glyph glyph-name="Iogonek" unicode="&#x12e;" horiz-adv-x="258" 
d="M186 -187q-31 -22 -75 -22t-72.5 24.5t-28.5 66.5q0 72 94 122v656h50v-660h-1q-58 -33 -80 -58t-22 -53q0 -29 17.5 -45t46.5 -16q19 0 32 4t26 14z" />
    <glyph glyph-name="J" unicode="J" horiz-adv-x="534" 
d="M437 218q0 -107 -55 -167.5t-155 -60.5q-91 0 -141 46.5t-50 126.5q0 26 4 47l47 11q-3 -24 -3 -46q0 -139 142 -139q84 0 122.5 49t38.5 144v431h50v-442z" />
    <glyph glyph-name="K" unicode="K" horiz-adv-x="610" 
d="M286 356l-132 -134v-222h-50v660h50v-370l362 370h66l-261 -267l268 -393h-61z" />
    <glyph glyph-name="L" unicode="L" horiz-adv-x="572" 
d="M550 46v-46h-446v660h50v-614h396z" />
    <glyph glyph-name="Lacute" unicode="&#x139;" horiz-adv-x="572" 
d="M147 743h-41l65 148h59zM550 46v-46h-446v660h50v-614h396z" />
    <glyph glyph-name="Lcaron" unicode="&#x13d;" horiz-adv-x="572" 
d="M294 503h-35l22 197h49zM550 46v-46h-446v660h50v-614h396z" />
    <glyph glyph-name="Ldot" unicode="&#x13f;" horiz-adv-x="592" 
d="M550 46v-46h-446v660h50v-614h396zM541.5 371.5q12.5 -12.5 12.5 -32.5t-12.5 -32.5t-32.5 -12.5t-32.5 12.5t-12.5 32.5t12.5 32.5t32.5 12.5t32.5 -12.5z" />
    <glyph glyph-name="Lslash" unicode="&#x141;" horiz-adv-x="593" 
d="M571 46v-46h-446v265l-103 -61v53l103 61v342h50v-312l191 113v-53l-191 -114v-248h396z" />
    <glyph glyph-name="M" unicode="M" horiz-adv-x="822" 
d="M718 0h-48v492l6 120h-1l-241 -612h-46l-241 612h-1l6 -120v-492h-48v660h75l199 -500l33 -101h1l32 100l199 501h75v-660z" />
    <glyph glyph-name="N" unicode="N" horiz-adv-x="715" 
d="M611 0h-62l-350 518l-49 88h-1l3 -83v-523h-48v660h63l349 -517l50 -89l-2 83v523h47v-660z" />
    <glyph glyph-name="Nacute" unicode="&#x143;" horiz-adv-x="715" 
d="M464 891l-83 -148h-41l65 148h59zM611 0h-62l-350 518l-49 88h-1l3 -83v-523h-48v660h63l349 -517l50 -89l-2 83v523h47v-660z" />
    <glyph glyph-name="Ncaron" unicode="&#x147;" horiz-adv-x="715" 
d="M392 740h-58l-111 156h47l93 -122l94 122h46zM611 0h-62l-350 518l-49 88h-1l3 -83v-523h-48v660h63l349 -517l50 -89l-2 83v523h47v-660z" />
    <glyph glyph-name="Ntilde" unicode="&#xd1;" horiz-adv-x="715" 
d="M611 0h-62l-350 518l-49 88h-1l3 -83v-523h-48v660h63l349 -517l50 -89l-2 83v523h47v-660zM502 778q-24 -27 -68 -27q-28 0 -45.5 9.5t-38.5 28.5q-16 15 -28.5 22.5t-29.5 7.5q-27 0 -39.5 -16.5t-19.5 -52.5h-40q7 56 30.5 83t69.5 27q27 0 44.5 -9.5t38.5 -28.5
q16 -15 28.5 -22.5t28.5 -7.5q27 0 40 16.5t20 52.5h40q-7 -56 -31 -83z" />
    <glyph glyph-name="O" unicode="O" horiz-adv-x="732" 
d="M527.5 628.5q68.5 -41.5 105.5 -118t37 -180.5t-37 -180.5t-105.5 -118t-161.5 -41.5t-161.5 41.5t-105.5 118t-37 180.5t37 180.5t105.5 118t161.5 41.5t161.5 -41.5zM232.5 588.5q-56.5 -35.5 -87 -102t-30.5 -156.5t30.5 -156.5t87 -102t133.5 -35.5t134 35.5
t87.5 102t30.5 156.5t-30.5 156.5t-87.5 102t-134 35.5t-133.5 -35.5z" />
    <glyph glyph-name="Oacute" unicode="&#xd3;" horiz-adv-x="732" 
d="M467 891l-83 -148h-41l65 148h59zM527.5 628.5q68.5 -41.5 105.5 -118t37 -180.5t-37 -180.5t-105.5 -118t-161.5 -41.5t-161.5 41.5t-105.5 118t-37 180.5t37 180.5t105.5 118t161.5 41.5t161.5 -41.5zM232.5 588.5q-56.5 -35.5 -87 -102t-30.5 -156.5t30.5 -156.5
t87 -102t133.5 -35.5t134 35.5t87.5 102t30.5 156.5t-30.5 156.5t-87.5 102t-134 35.5t-133.5 -35.5z" />
    <glyph glyph-name="Ocircumflex" unicode="&#xd4;" horiz-adv-x="732" 
d="M460 739l-94 122l-93 -122h-47l111 156h58l111 -156h-46zM527.5 628.5q68.5 -41.5 105.5 -118t37 -180.5t-37 -180.5t-105.5 -118t-161.5 -41.5t-161.5 41.5t-105.5 118t-37 180.5t37 180.5t105.5 118t161.5 41.5t161.5 -41.5zM232.5 588.5q-56.5 -35.5 -87 -102
t-30.5 -156.5t30.5 -156.5t87 -102t133.5 -35.5t134 35.5t87.5 102t30.5 156.5t-30.5 156.5t-87.5 102t-134 35.5t-133.5 -35.5z" />
    <glyph glyph-name="Odieresis" unicode="&#xd6;" horiz-adv-x="732" 
d="M527.5 628.5q68.5 -41.5 105.5 -118t37 -180.5t-37 -180.5t-105.5 -118t-161.5 -41.5t-161.5 41.5t-105.5 118t-37 180.5t37 180.5t105.5 118t161.5 41.5t161.5 -41.5zM232.5 588.5q-56.5 -35.5 -87 -102t-30.5 -156.5t30.5 -156.5t87 -102t133.5 -35.5t134 35.5
t87.5 102t30.5 156.5t-30.5 156.5t-87.5 102t-134 35.5t-133.5 -35.5zM300 819.5q11 -11.5 11 -29.5t-11 -29t-29 -11t-29.5 11t-11.5 29t11.5 29.5t29.5 11.5t29 -11.5zM489.5 819.5q11.5 -11.5 11.5 -29.5t-11.5 -29t-29.5 -11t-29.5 11t-11.5 29t11.5 29.5t29.5 11.5
t29.5 -11.5z" />
    <glyph glyph-name="Ograve" unicode="&#xd2;" horiz-adv-x="732" 
d="M382 743h-41l-83 148h59zM527.5 628.5q68.5 -41.5 105.5 -118t37 -180.5t-37 -180.5t-105.5 -118t-161.5 -41.5t-161.5 41.5t-105.5 118t-37 180.5t37 180.5t105.5 118t161.5 41.5t161.5 -41.5zM232.5 588.5q-56.5 -35.5 -87 -102t-30.5 -156.5t30.5 -156.5t87 -102
t133.5 -35.5t134 35.5t87.5 102t30.5 156.5t-30.5 156.5t-87.5 102t-134 35.5t-133.5 -35.5z" />
    <glyph glyph-name="Ohungarumlaut" unicode="&#x150;" horiz-adv-x="732" 
d="M393 891l-82 -148h-42l66 148h58zM542 891l-82 -148h-42l66 148h58zM527.5 628.5q68.5 -41.5 105.5 -118t37 -180.5t-37 -180.5t-105.5 -118t-161.5 -41.5t-161.5 41.5t-105.5 118t-37 180.5t37 180.5t105.5 118t161.5 41.5t161.5 -41.5zM232.5 588.5
q-56.5 -35.5 -87 -102t-30.5 -156.5t30.5 -156.5t87 -102t133.5 -35.5t134 35.5t87.5 102t30.5 156.5t-30.5 156.5t-87.5 102t-134 35.5t-133.5 -35.5z" />
    <glyph glyph-name="Omacron" unicode="&#x14c;" horiz-adv-x="732" 
d="M527.5 628.5q68.5 -41.5 105.5 -118t37 -180.5t-37 -180.5t-105.5 -118t-161.5 -41.5t-161.5 41.5t-105.5 118t-37 180.5t37 180.5t105.5 118t161.5 41.5t161.5 -41.5zM232.5 588.5q-56.5 -35.5 -87 -102t-30.5 -156.5t30.5 -156.5t87 -102t133.5 -35.5t134 35.5
t87.5 102t30.5 156.5t-30.5 156.5t-87.5 102t-134 35.5t-133.5 -35.5zM526 760h-320v42h320v-42z" />
    <glyph glyph-name="Oslash" unicode="&#xd8;" horiz-adv-x="732" 
d="M646 478.5q24 -66.5 24 -148.5q0 -104 -37 -180.5t-105.5 -118t-161.5 -41.5q-105 0 -178 52l-54 -76h-47l71 101q-46 45 -71 112t-25 151q0 104 37 180.5t105.5 118t161.5 41.5q107 0 182 -55l50 71h48l-69 -96q45 -45 69 -111.5zM133.5 203q18.5 -56 54.5 -94l331 466
q-63 49 -153 49q-77 0 -133.5 -35.5t-87 -102t-30.5 -156.5q0 -71 18.5 -127zM500 71.5q57 35.5 87.5 102t30.5 156.5q0 69 -18.5 124t-52.5 94l-330 -465q63 -47 149 -47q77 0 134 35.5z" />
    <glyph glyph-name="Otilde" unicode="&#xd5;" horiz-adv-x="732" 
d="M527.5 628.5q68.5 -41.5 105.5 -118t37 -180.5t-37 -180.5t-105.5 -118t-161.5 -41.5t-161.5 41.5t-105.5 118t-37 180.5t37 180.5t105.5 118t161.5 41.5t161.5 -41.5zM232.5 588.5q-56.5 -35.5 -87 -102t-30.5 -156.5t30.5 -156.5t87 -102t133.5 -35.5t134 35.5
t87.5 102t30.5 156.5t-30.5 156.5t-87.5 102t-134 35.5t-133.5 -35.5zM505 778q-24 -27 -68 -27q-28 0 -45.5 9.5t-38.5 28.5q-16 15 -28.5 22.5t-29.5 7.5q-27 0 -39.5 -16.5t-19.5 -52.5h-40q7 56 30.5 83t69.5 27q27 0 44.5 -9.5t38.5 -28.5q16 -15 28.5 -22.5t28.5 -7.5
q27 0 40 16.5t20 52.5h40q-7 -56 -31 -83z" />
    <glyph glyph-name="OE" unicode="&#x152;" horiz-adv-x="1066" 
d="M1024 46v-46h-435v126q-33 -67 -92 -101.5t-141 -34.5q-89 0 -155.5 41.5t-102.5 118t-36 180.5t36 180.5t102.5 118t157.5 41.5q81 0 139.5 -34.5t91.5 -100.5v125h419v-46h-373v-255h294v-47h-294v-266h389zM530 111.5q59 75.5 59 218.5t-59 218.5t-172 75.5
q-75 0 -129.5 -35.5t-84 -102t-29.5 -156.5t29.5 -156.5t84 -102t129.5 -35.5q113 0 172 75.5z" />
    <glyph glyph-name="P" unicode="P" horiz-adv-x="587" 
d="M486.5 608.5q60.5 -51.5 60.5 -141.5t-60.5 -142t-163.5 -52h-169v-273h-50v660h219q103 0 163.5 -51.5zM448.5 358q45.5 38 45.5 109q0 70 -45.5 108.5t-131.5 38.5h-163v-294h163q86 0 131.5 38z" />
    <glyph glyph-name="Thorn" unicode="&#xde;" horiz-adv-x="599" 
d="M491 484q60 -50 60 -146q0 -95 -60.5 -145t-178.5 -50h-158v-143h-50v660h50v-126h158q119 0 179 -50zM499 338q0 150 -179 150h-166v-299h166q179 0 179 149z" />
    <glyph glyph-name="Q" unicode="Q" horiz-adv-x="732" 
d="M599.5 -135.5q29.5 9.5 47.5 27.5l18 -46q-21 -19 -56.5 -30t-73.5 -11q-79 0 -131 46t-58 140q-87 4 -151 46.5t-98.5 117.5t-34.5 175q0 104 37 180.5t105.5 118t161.5 41.5t161.5 -41.5t105.5 -118t37 -180.5q0 -99 -34 -173.5t-96.5 -117.5t-148.5 -48
q11 -136 145 -136q34 0 63.5 9.5zM145.5 173.5q30.5 -66.5 87 -102t133.5 -35.5t134 35.5t87.5 102t30.5 156.5t-30.5 156.5t-87.5 102t-134 35.5t-133.5 -35.5t-87 -102t-30.5 -156.5t30.5 -156.5z" />
    <glyph glyph-name="R" unicode="R" horiz-adv-x="640" 
d="M541 0l-189 286h-3h-195v-286h-50v660h245q99 0 157.5 -50t58.5 -137q0 -72 -42 -119.5t-115 -61.5l192 -292h-59zM154 333h194q80 0 122.5 36t42.5 104t-42.5 104.5t-122.5 36.5h-194v-281z" />
    <glyph glyph-name="Racute" unicode="&#x154;" horiz-adv-x="640" 
d="M327 743h-41l65 148h59zM541 0l-189 286h-3h-195v-286h-50v660h245q99 0 157.5 -50t58.5 -137q0 -72 -42 -119.5t-115 -61.5l192 -292h-59zM154 333h194q80 0 122.5 36t42.5 104t-42.5 104.5t-122.5 36.5h-194v-281z" />
    <glyph glyph-name="Rcaron" unicode="&#x158;" horiz-adv-x="640" 
d="M279 740l-111 156h47l93 -122l94 122h46l-111 -156h-58zM541 0l-189 286h-3h-195v-286h-50v660h245q99 0 157.5 -50t58.5 -137q0 -72 -42 -119.5t-115 -61.5l192 -292h-59zM154 333h194q80 0 122.5 36t42.5 104t-42.5 104.5t-122.5 36.5h-194v-281z" />
    <glyph glyph-name="S" unicode="S" horiz-adv-x="619" 
d="M557 524l-43 -35q-25 71 -74.5 103t-130.5 32q-58 0 -101 -18t-65.5 -49t-22.5 -70q0 -38 19 -63t64.5 -42.5t125.5 -31.5q129 -22 183 -64t54 -116q0 -53 -31 -94t-87.5 -63.5t-129.5 -22.5q-104 0 -175.5 41.5t-97.5 116.5l44 34q20 -71 80.5 -108.5t149.5 -37.5
q86 0 140.5 35t54.5 96q0 53 -44.5 84t-154.5 50q-93 16 -147 39t-77.5 57t-23.5 85t29.5 94t84 68.5t127.5 25.5q186 0 249 -146z" />
    <glyph glyph-name="Sacute" unicode="&#x15a;" horiz-adv-x="619" 
d="M411 891l-83 -148h-41l65 148h59zM557 524l-43 -35q-25 71 -74.5 103t-130.5 32q-58 0 -101 -18t-65.5 -49t-22.5 -70q0 -38 19 -63t64.5 -42.5t125.5 -31.5q129 -22 183 -64t54 -116q0 -53 -31 -94t-87.5 -63.5t-129.5 -22.5q-104 0 -175.5 41.5t-97.5 116.5l44 34
q20 -71 80.5 -108.5t149.5 -37.5q86 0 140.5 35t54.5 96q0 53 -44.5 84t-154.5 50q-93 16 -147 39t-77.5 57t-23.5 85t29.5 94t84 68.5t127.5 25.5q186 0 249 -146z" />
    <glyph glyph-name="Scaron" unicode="&#x160;" horiz-adv-x="619" 
d="M338 740h-58l-111 156h47l93 -122l94 122h46zM557 524l-43 -35q-25 71 -74.5 103t-130.5 32q-58 0 -101 -18t-65.5 -49t-22.5 -70q0 -38 19 -63t64.5 -42.5t125.5 -31.5q129 -22 183 -64t54 -116q0 -53 -31 -94t-87.5 -63.5t-129.5 -22.5q-104 0 -175.5 41.5t-97.5 116.5
l44 34q20 -71 80.5 -108.5t149.5 -37.5q86 0 140.5 35t54.5 96q0 53 -44.5 84t-154.5 50q-93 16 -147 39t-77.5 57t-23.5 85t29.5 94t84 68.5t127.5 25.5q186 0 249 -146z" />
    <glyph glyph-name="uni1E9E" unicode="&#x1e9e;" horiz-adv-x="667" 
d="M572 313.5q53 -44.5 53 -130.5q0 -56 -25 -98.5t-70 -66t-103 -23.5q-56 0 -100 18t-61 44l23 37q18 -24 53.5 -39t80.5 -15q67 0 108.5 39.5t41.5 103.5q0 65 -43 98.5t-126 33.5h-84v43l207 256h-206q-74 0 -120.5 -48t-46.5 -124v-442h-50v443q0 64 27 113.5
t76.5 76.5t113.5 27h265v-47l-212 -255h47q98 0 151 -44.5z" />
    <glyph glyph-name="T" unicode="T" horiz-adv-x="576" 
d="M554 614h-241v-614h-50v614h-241v46h532v-46z" />
    <glyph glyph-name="Tcaron" unicode="&#x164;" horiz-adv-x="576" 
d="M259 740l-111 156h47l93 -122l94 122h46l-111 -156h-58zM554 614h-241v-614h-50v614h-241v46h532v-46z" />
    <glyph glyph-name="U" unicode="U" horiz-adv-x="701" 
d="M605 241q0 -122 -66 -186.5t-188 -64.5t-188.5 64.5t-66.5 186.5v419h50v-409q0 -106 52 -160.5t153 -54.5q100 0 152 54.5t52 160.5v409h50v-419z" />
    <glyph glyph-name="Uacute" unicode="&#xda;" horiz-adv-x="701" 
d="M452 891l-83 -148h-41l65 148h59zM605 241q0 -122 -66 -186.5t-188 -64.5t-188.5 64.5t-66.5 186.5v419h50v-409q0 -106 52 -160.5t153 -54.5q100 0 152 54.5t52 160.5v409h50v-419z" />
    <glyph glyph-name="Ucircumflex" unicode="&#xdb;" horiz-adv-x="701" 
d="M445 739l-94 122l-93 -122h-47l111 156h58l111 -156h-46zM605 241q0 -122 -66 -186.5t-188 -64.5t-188.5 64.5t-66.5 186.5v419h50v-409q0 -106 52 -160.5t153 -54.5q100 0 152 54.5t52 160.5v409h50v-419z" />
    <glyph glyph-name="Udieresis" unicode="&#xdc;" horiz-adv-x="701" 
d="M605 241q0 -122 -66 -186.5t-188 -64.5t-188.5 64.5t-66.5 186.5v419h50v-409q0 -106 52 -160.5t153 -54.5q100 0 152 54.5t52 160.5v409h50v-419zM285 819.5q11 -11.5 11 -29.5t-11 -29t-29 -11t-29.5 11t-11.5 29t11.5 29.5t29.5 11.5t29 -11.5zM474.5 819.5
q11.5 -11.5 11.5 -29.5t-11.5 -29t-29.5 -11t-29.5 11t-11.5 29t11.5 29.5t29.5 11.5t29.5 -11.5z" />
    <glyph glyph-name="Ugrave" unicode="&#xd9;" horiz-adv-x="701" 
d="M376 743h-41l-83 148h59zM605 241q0 -122 -66 -186.5t-188 -64.5t-188.5 64.5t-66.5 186.5v419h50v-409q0 -106 52 -160.5t153 -54.5q100 0 152 54.5t52 160.5v409h50v-419z" />
    <glyph glyph-name="Uhungarumlaut" unicode="&#x170;" horiz-adv-x="701" 
d="M372 892l-82 -148h-42l66 148h58zM519 891l-82 -148h-42l66 148h58zM605 241q0 -122 -66 -186.5t-188 -64.5t-188.5 64.5t-66.5 186.5v419h50v-409q0 -106 52 -160.5t153 -54.5q100 0 152 54.5t52 160.5v409h50v-419z" />
    <glyph glyph-name="Umacron" unicode="&#x16a;" horiz-adv-x="701" 
d="M605 241q0 -122 -66 -186.5t-188 -64.5t-188.5 64.5t-66.5 186.5v419h50v-409q0 -106 52 -160.5t153 -54.5q100 0 152 54.5t52 160.5v409h50v-419zM511 760h-320v42h320v-42z" />
    <glyph glyph-name="Uogonek" unicode="&#x172;" horiz-adv-x="701" 
d="M605 660v-419q0 -100 -45 -162t-130 -81q-58 -28 -82.5 -55t-24.5 -57q0 -28 19 -43t49 -15q40 0 62 16l12 -34q-31 -19 -79 -19q-46 0 -75.5 24t-29.5 65q0 34 17.5 60t54.5 50h-2q-122 0 -188.5 64.5t-66.5 186.5v419h50v-409q0 -106 52 -160.5t153 -54.5
q100 0 152 54.5t52 160.5v409h50z" />
    <glyph glyph-name="Uring" unicode="&#x16e;" horiz-adv-x="701" 
d="M605 241q0 -122 -66 -186.5t-188 -64.5t-188.5 64.5t-66.5 186.5v419h50v-409q0 -106 52 -160.5t153 -54.5q100 0 152 54.5t52 160.5v409h50v-419zM426.5 824q29.5 -28 29.5 -72t-29.5 -72.5t-75.5 -28.5t-75.5 28.5t-29.5 72.5t29.5 72t75.5 28t75.5 -28zM302.5 800
q-19.5 -19 -19.5 -48t19.5 -48.5t48.5 -19.5q30 0 49.5 19.5t19.5 48.5t-19.5 48t-49.5 19q-29 0 -48.5 -19z" />
    <glyph glyph-name="V" unicode="V" horiz-adv-x="614" 
d="M337 0h-59l-255 660h54l195 -511l35 -102l35 102l196 511h53z" />
    <glyph glyph-name="W" unicode="W" horiz-adv-x="937" 
d="M298 0h-62l-206 660h54l183 -619l173 619h58l173 -620l185 620h51l-206 -660h-62l-133 463l-37 143h-1l-37 -143z" />
    <glyph glyph-name="X" unicode="X" horiz-adv-x="566" 
d="M482 0l-201 299l-203 -299h-59l236 339l-216 321h60l188 -280l190 280h56l-219 -320l227 -340h-59z" />
    <glyph glyph-name="Y" unicode="Y" horiz-adv-x="544" 
d="M297 257v-257h-50v257l-234 403h59l200 -351l200 351h59z" />
    <glyph glyph-name="Yacute" unicode="&#xdd;" horiz-adv-x="544" 
d="M373 891l-83 -148h-41l65 148h59zM297 257v-257h-50v257l-234 403h59l200 -351l200 351h59z" />
    <glyph glyph-name="Ydieresis" unicode="&#x178;" horiz-adv-x="544" 
d="M297 257v-257h-50v257l-234 403h59l200 -351l200 351h59zM206 819.5q11 -11.5 11 -29.5t-11 -29t-29 -11t-29.5 11t-11.5 29t11.5 29.5t29.5 11.5t29 -11.5zM395.5 819.5q11.5 -11.5 11.5 -29.5t-11.5 -29t-29.5 -11t-29.5 11t-11.5 29t11.5 29.5t29.5 11.5t29.5 -11.5z
" />
    <glyph glyph-name="Z" unicode="Z" horiz-adv-x="593" 
d="M553 46v-46h-510v44l435 570h-426v46h485v-44l-435 -570h451z" />
    <glyph glyph-name="Zacute" unicode="&#x179;" horiz-adv-x="593" 
d="M311 743h-41l65 148h59zM553 46v-46h-510v44l435 570h-426v46h485v-44l-435 -570h451z" />
    <glyph glyph-name="Zcaron" unicode="&#x17d;" horiz-adv-x="593" 
d="M263 740l-111 156h47l93 -122l94 122h46l-111 -156h-58zM553 46v-46h-510v44l435 570h-426v46h485v-44l-435 -570h451z" />
    <glyph glyph-name="Zdotaccent" unicode="&#x17b;" horiz-adv-x="593" 
d="M553 46v-46h-510v44l435 570h-426v46h485v-44l-435 -570h451zM323.5 829.5q11.5 -11.5 11.5 -30.5t-11.5 -30.5t-30.5 -11.5t-30.5 11.5t-11.5 30.5t11.5 30.5t30.5 11.5t30.5 -11.5z" />
    <glyph glyph-name="uni0122" unicode="&#x122;" horiz-adv-x="702" 
d="M629 323v-323h-40l-2 115q-27 -60 -84.5 -92.5t-142.5 -32.5q-90 0 -157.5 41.5t-104 118.5t-36.5 180t37.5 180t105.5 118.5t158 41.5q101 0 165 -40t96 -122l-46 -24q-23 69 -77.5 104.5t-137.5 35.5q-74 0 -130 -35.5t-87 -102t-31 -156.5q0 -137 65.5 -215.5
t181.5 -78.5q72 0 122 28.5t74 75t24 99.5v37h-224v47h271zM339 -233h-40l47 161h53z" />
    <glyph glyph-name="uni0136" unicode="&#x136;" horiz-adv-x="610" 
d="M286 356l-132 -134v-222h-50v660h50v-370l362 370h66l-261 -267l268 -393h-61zM307 -233h-40l47 161h53z" />
    <glyph glyph-name="uni013B" unicode="&#x13b;" horiz-adv-x="572" 
d="M550 46v-46h-446v660h50v-614h396zM307 -233h-40l47 161h53z" />
    <glyph glyph-name="uni0145" unicode="&#x145;" horiz-adv-x="715" 
d="M611 0h-62l-350 518l-49 88h-1l3 -83v-523h-48v660h63l349 -517l50 -89l-2 83v523h47v-660zM333 -233h-40l47 161h53z" />
    <glyph glyph-name="uni0156" unicode="&#x156;" horiz-adv-x="640" 
d="M541 0l-189 286h-3h-195v-286h-50v660h245q99 0 157.5 -50t58.5 -137q0 -72 -42 -119.5t-115 -61.5l192 -292h-59zM154 333h194q80 0 122.5 36t42.5 104t-42.5 104.5t-122.5 36.5h-194v-281zM315 -233h-40l47 161h53z" />
    <glyph glyph-name="uni015E" unicode="&#x15e;" horiz-adv-x="619" 
d="M506.5 46.5q-59.5 -48.5 -158.5 -55.5q64 -41 64 -104q0 -41 -28 -68.5t-75 -27.5q-34 0 -58.5 9t-44.5 29l20 35q29 -35 77 -35q28 0 46.5 17.5t18.5 46.5t-17.5 50.5t-65.5 47.5q-92 7 -154 47.5t-86 109.5l44 34q20 -71 80.5 -108.5t149.5 -37.5q86 0 140.5 35
t54.5 96q0 53 -44.5 84t-154.5 50q-93 16 -147 39t-77.5 57t-23.5 85t29.5 94t84 68.5t127.5 25.5q186 0 249 -146l-43 -35q-25 71 -74.5 103t-130.5 32q-58 0 -101 -18t-65.5 -49t-22.5 -70q0 -38 19 -63t64.5 -42.5t125.5 -31.5q129 -22 183 -64t54 -116
q0 -75 -59.5 -123.5z" />
    <glyph glyph-name="uni0162" unicode="&#x162;" horiz-adv-x="576" 
d="M313 614v-608q40 -26 58.5 -54.5t18.5 -64.5q0 -41 -29 -68.5t-75 -27.5q-65 0 -102 39l20 34q30 -35 76 -35q29 0 47 18t18 47q0 31 -18.5 53.5t-63.5 52.5v614h-241v46h532v-46h-241z" />
    <glyph glyph-name="uni0218" unicode="&#x218;" horiz-adv-x="619" 
d="M557 524l-43 -35q-25 71 -74.5 103t-130.5 32q-58 0 -101 -18t-65.5 -49t-22.5 -70q0 -38 19 -63t64.5 -42.5t125.5 -31.5q129 -22 183 -64t54 -116q0 -53 -31 -94t-87.5 -63.5t-129.5 -22.5q-104 0 -175.5 41.5t-97.5 116.5l44 34q20 -71 80.5 -108.5t149.5 -37.5
q86 0 140.5 35t54.5 96q0 53 -44.5 84t-154.5 50q-93 16 -147 39t-77.5 57t-23.5 85t29.5 94t84 68.5t127.5 25.5q186 0 249 -146zM296 -233h-40l47 161h53z" />
    <glyph glyph-name="uni021A" unicode="&#x21a;" horiz-adv-x="576" 
d="M554 614h-241v-614h-50v614h-241v46h532v-46zM258 -233h-40l47 161h53z" />
    <glyph glyph-name="E.swsh.001" horiz-adv-x="719" 
d="M678.5 262q30.5 -40 30.5 -104q0 -78 -50.5 -118t-141.5 -40h-413v660h486v-46h-436v-260h251v-46h-251v-262h351q78 0 116 26.5t38 86.5q0 49 -22 77t-60 33l22 39q49 -6 79.5 -46z" />
    <glyph glyph-name="Eacute.swsh.001" horiz-adv-x="719" 
d="M380 743h-41l65 148h59zM678.5 262q30.5 -40 30.5 -104q0 -78 -50.5 -118t-141.5 -40h-413v660h486v-46h-436v-260h251v-46h-251v-262h351q78 0 116 26.5t38 86.5q0 49 -22 77t-60 33l22 39q49 -6 79.5 -46z" />
    <glyph glyph-name="Ecaron.swsh.001" horiz-adv-x="719" 
d="M332 740l-111 156h47l93 -122l94 122h46l-111 -156h-58zM678.5 262q30.5 -40 30.5 -104q0 -78 -50.5 -118t-141.5 -40h-413v660h486v-46h-436v-260h251v-46h-251v-262h351q78 0 116 26.5t38 86.5q0 49 -22 77t-60 33l22 39q49 -6 79.5 -46z" />
    <glyph glyph-name="Ecircumflex.swsh.001" horiz-adv-x="719" 
d="M268 739h-47l111 156h58l111 -156h-46l-94 122zM678.5 262q30.5 -40 30.5 -104q0 -78 -50.5 -118t-141.5 -40h-413v660h486v-46h-436v-260h251v-46h-251v-262h351q78 0 116 26.5t38 86.5q0 49 -22 77t-60 33l22 39q49 -6 79.5 -46z" />
    <glyph glyph-name="Edieresis.swsh.001" horiz-adv-x="719" 
d="M678.5 262q30.5 -40 30.5 -104q0 -78 -50.5 -118t-141.5 -40h-413v660h486v-46h-436v-260h251v-46h-251v-262h351q78 0 116 26.5t38 86.5q0 49 -22 77t-60 33l22 39q49 -6 79.5 -46zM295 819.5q11 -11.5 11 -29.5t-11 -29t-29 -11t-29.5 11t-11.5 29t11.5 29.5t29.5 11.5
t29 -11.5zM484.5 819.5q11.5 -11.5 11.5 -29.5t-11.5 -29t-29.5 -11t-29.5 11t-11.5 29t11.5 29.5t29.5 11.5t29.5 -11.5z" />
    <glyph glyph-name="Edotaccent.swsh.001" horiz-adv-x="719" 
d="M678.5 262q30.5 -40 30.5 -104q0 -78 -50.5 -118t-141.5 -40h-413v660h486v-46h-436v-260h251v-46h-251v-262h351q78 0 116 26.5t38 86.5q0 49 -22 77t-60 33l22 39q49 -6 79.5 -46zM392.5 829.5q11.5 -11.5 11.5 -30.5t-11.5 -30.5t-30.5 -11.5t-30.5 11.5t-11.5 30.5
t11.5 30.5t30.5 11.5t30.5 -11.5z" />
    <glyph glyph-name="Egrave.swsh.001" horiz-adv-x="719" 
d="M336 743l-83 148h59l65 -148h-41zM678.5 262q30.5 -40 30.5 -104q0 -78 -50.5 -118t-141.5 -40h-413v660h486v-46h-436v-260h251v-46h-251v-262h351q78 0 116 26.5t38 86.5q0 49 -22 77t-60 33l22 39q49 -6 79.5 -46z" />
    <glyph glyph-name="Emacron.swsh.001" horiz-adv-x="719" 
d="M678.5 262q30.5 -40 30.5 -104q0 -78 -50.5 -118t-141.5 -40h-413v660h486v-46h-436v-260h251v-46h-251v-262h351q78 0 116 26.5t38 86.5q0 49 -22 77t-60 33l22 39q49 -6 79.5 -46zM522 760h-320v42h320v-42z" />
    <glyph glyph-name="M.swsh.001" horiz-adv-x="1039" 
d="M935 660v-660h-48v492l5 120l-242 -612h-45l-241 612h-1l5 -120v-492h-48v619h-106q-74 0 -114 -32t-40 -97q0 -50 30.5 -83t82.5 -43l-21 -39q-63 11 -102.5 55t-39.5 111q0 81 50.5 125t141.5 44h194l199 -500l32 -101h1l33 100l199 501h75z" />
    <glyph glyph-name="R.swsh.001" horiz-adv-x="675" 
d="M606.5 -21q35.5 -29 68.5 -39l-26 -34q-58 25 -88.5 51.5t-57.5 65.5l-182 263h-167v-286h-50v660h245q99 0 157.5 -50t58.5 -137q0 -80 -51 -129.5t-138 -56.5l174 -250q21 -29 56.5 -58zM154 333h194q80 0 122.5 36t42.5 104t-42.5 104.5t-122.5 36.5h-194v-281z" />
    <glyph glyph-name="Racute.swsh.001" horiz-adv-x="675" 
d="M327 743h-41l65 148h59zM606.5 -21q35.5 -29 68.5 -39l-26 -34q-58 25 -88.5 51.5t-57.5 65.5l-182 263h-167v-286h-50v660h245q99 0 157.5 -50t58.5 -137q0 -80 -51 -129.5t-138 -56.5l174 -250q21 -29 56.5 -58zM154 333h194q80 0 122.5 36t42.5 104t-42.5 104.5
t-122.5 36.5h-194v-281z" />
    <glyph glyph-name="Rcaron.swsh.001" horiz-adv-x="675" 
d="M279 740l-111 156h47l93 -122l94 122h46l-111 -156h-58zM606.5 -21q35.5 -29 68.5 -39l-26 -34q-58 25 -88.5 51.5t-57.5 65.5l-182 263h-167v-286h-50v660h245q99 0 157.5 -50t58.5 -137q0 -80 -51 -129.5t-138 -56.5l174 -250q21 -29 56.5 -58zM154 333h194
q80 0 122.5 36t42.5 104t-42.5 104.5t-122.5 36.5h-194v-281z" />
    <glyph glyph-name="Rcommaaccent.swsh.001" horiz-adv-x="675" 
d="M606.5 -21q35.5 -29 68.5 -39l-26 -34q-58 25 -88.5 51.5t-57.5 65.5l-182 263h-167v-286h-50v660h245q99 0 157.5 -50t58.5 -137q0 -80 -51 -129.5t-138 -56.5l174 -250q21 -29 56.5 -58zM154 333h194q80 0 122.5 36t42.5 104t-42.5 104.5t-122.5 36.5h-194v-281z
M315 -233h-40l47 161h53z" />
    <glyph glyph-name="Iacute_J.loclNLD" horiz-adv-x="792" 
d="M230 891l-83 -148h-41l65 148h59zM776 891l-83 -148h-41l65 148h59zM154 0h-50v660h50v-660zM695 218q0 -107 -55 -167.5t-155 -60.5q-91 0 -141 46.5t-50 126.5q0 26 4 47l47 11q-3 -24 -3 -46q0 -139 142 -139q84 0 122.5 49t38.5 144v431h50v-442z" />
    <glyph glyph-name="R.ss03" horiz-adv-x="635" 
d="M104 660h245q99 0 157.5 -50t58.5 -137q0 -68 -38 -111.5t-105 -57.5v-1q60 -10 91 -46t33 -95q4 -85 11 -113.5t18 -45.5v-3h-54q-9 19 -15 52t-9 104q-5 130 -158 130h-185v-286h-50v660zM348 333q80 0 122.5 36t42.5 104t-42.5 104.5t-122.5 36.5h-194v-281h194z" />
    <glyph glyph-name="Racute.ss03" horiz-adv-x="635" 
d="M410 891l-83 -148h-41l65 148h59zM104 660h245q99 0 157.5 -50t58.5 -137q0 -68 -38 -111.5t-105 -57.5v-1q60 -10 91 -46t33 -95q4 -85 11 -113.5t18 -45.5v-3h-54q-9 19 -15 52t-9 104q-5 130 -158 130h-185v-286h-50v660zM348 333q80 0 122.5 36t42.5 104t-42.5 104.5
t-122.5 36.5h-194v-281h194z" />
    <glyph glyph-name="Rcaron.ss03" horiz-adv-x="635" 
d="M337 740h-58l-111 156h47l93 -122l94 122h46zM104 660h245q99 0 157.5 -50t58.5 -137q0 -68 -38 -111.5t-105 -57.5v-1q60 -10 91 -46t33 -95q4 -85 11 -113.5t18 -45.5v-3h-54q-9 19 -15 52t-9 104q-5 130 -158 130h-185v-286h-50v660zM348 333q80 0 122.5 36t42.5 104
t-42.5 104.5t-122.5 36.5h-194v-281h194z" />
    <glyph glyph-name="Rcommaaccent.ss03" horiz-adv-x="635" 
d="M104 660h245q99 0 157.5 -50t58.5 -137q0 -68 -38 -111.5t-105 -57.5v-1q60 -10 91 -46t33 -95q4 -85 11 -113.5t18 -45.5v-3h-54q-9 19 -15 52t-9 104q-5 130 -158 130h-185v-286h-50v660zM348 333q80 0 122.5 36t42.5 104t-42.5 104.5t-122.5 36.5h-194v-281h194z
M315 -233h-40l47 161h53z" />
    <glyph glyph-name="G.ss04" horiz-adv-x="692" 
d="M638 323v-41q0 -130 -68.5 -211t-208.5 -81q-90 0 -158 41.5t-104.5 118.5t-36.5 180t37.5 180t105.5 118.5t158 41.5q101 0 165 -40t96 -122l-46 -24q-23 69 -77.5 104.5t-137.5 35.5q-74 0 -130 -35.5t-87 -102t-31 -156.5q0 -137 66.5 -215.5t183.5 -78.5
q83 0 133.5 36.5t71 90.5t20.5 112v1h-232v47h280z" />
    <glyph glyph-name="Gbreve.ss04" horiz-adv-x="692" 
d="M638 323v-41q0 -130 -68.5 -211t-208.5 -81q-90 0 -158 41.5t-104.5 118.5t-36.5 180t37.5 180t105.5 118.5t158 41.5q101 0 165 -40t96 -122l-46 -24q-23 69 -77.5 104.5t-137.5 35.5q-74 0 -130 -35.5t-87 -102t-31 -156.5q0 -137 66.5 -215.5t183.5 -78.5
q83 0 133.5 36.5t71 90.5t20.5 112v1h-232v47h280zM458 775.5q-37 -36.5 -99 -36.5q-61 0 -98 37t-37 98h42q0 -42 26 -69.5t67 -27.5q42 0 68 27.5t26 69.5h42q0 -62 -37 -98.5z" />
    <glyph glyph-name="Gcommaaccent.ss04" horiz-adv-x="692" 
d="M638 323v-41q0 -130 -68.5 -211t-208.5 -81q-90 0 -158 41.5t-104.5 118.5t-36.5 180t37.5 180t105.5 118.5t158 41.5q101 0 165 -40t96 -122l-46 -24q-23 69 -77.5 104.5t-137.5 35.5q-74 0 -130 -35.5t-87 -102t-31 -156.5q0 -137 66.5 -215.5t183.5 -78.5
q83 0 133.5 36.5t71 90.5t20.5 112v1h-232v47h280zM339 -233h-40l47 161h53z" />
    <glyph glyph-name="IJ.ss05" horiz-adv-x="603" 
d="M507 218q0 -106 -55.5 -167t-153.5 -61q-96 0 -145.5 43t-49.5 125l1 20h48q-1 -6 -1 -18q0 -61 37.5 -92.5t109.5 -31.5q76 0 117.5 50.5t41.5 142.5v431h50v-442zM154 275h-50v385h50v-385z" />
    <glyph glyph-name="Iacute_J.loclNLD.ss05" horiz-adv-x="596" 
d="M334 891h76l-82 -148h-60zM499 660v-442q0 -106 -55 -167t-153 -61q-97 0 -146 43t-49 125l1 20h48q-1 -6 -1 -18q0 -61 37.5 -92.5t109.5 -31.5q76 0 117 50.5t41 142.5v431h50zM146 275h-50v385h50v-385z" />
    <glyph glyph-name="A.swsh" horiz-adv-x="872" 
d="M717 207h-316l-70 -175q-29 -75 -70.5 -108.5t-109.5 -33.5q-76 0 -119.5 34.5t-45.5 102.5l37 26q5 -67 36 -93t90 -26q37 0 60.5 11.5t42.5 39.5t41 82l221 552h-183q-74 0 -114 -32t-40 -97q0 -51 31 -83.5t83 -42.5l-22 -39q-62 11 -102 55t-40 111q0 81 51 125
t142 44h269l263 -660h-53zM698 253l-114 288l-25 70h-1l-23 -68l-115 -290h278z" />
    <glyph glyph-name="Aacute.swsh" horiz-adv-x="872" 
d="M578 743h-41l65 148h59zM717 207h-316l-70 -175q-29 -75 -70.5 -108.5t-109.5 -33.5q-76 0 -119.5 34.5t-45.5 102.5l37 26q5 -67 36 -93t90 -26q37 0 60.5 11.5t42.5 39.5t41 82l221 552h-183q-74 0 -114 -32t-40 -97q0 -51 31 -83.5t83 -42.5l-22 -39q-62 11 -102 55
t-40 111q0 81 51 125t142 44h269l263 -660h-53zM698 253l-114 288l-25 70h-1l-23 -68l-115 -290h278z" />
    <glyph glyph-name="Abreve.swsh" horiz-adv-x="872" 
d="M717 207h-316l-70 -175q-29 -75 -70.5 -108.5t-109.5 -33.5q-76 0 -119.5 34.5t-45.5 102.5l37 26q5 -67 36 -93t90 -26q37 0 60.5 11.5t42.5 39.5t41 82l221 552h-183q-74 0 -114 -32t-40 -97q0 -51 31 -83.5t83 -42.5l-22 -39q-62 11 -102 55t-40 111q0 81 51 125
t142 44h269l263 -660h-53zM698 253l-114 288l-25 70h-1l-23 -68l-115 -290h278zM658 775.5q-37 -36.5 -99 -36.5q-61 0 -98 37t-37 98h42q0 -42 26 -69.5t67 -27.5q42 0 68 27.5t26 69.5h42q0 -62 -37 -98.5z" />
    <glyph glyph-name="Acircumflex.swsh" horiz-adv-x="872" 
d="M466 739h-47l111 156h58l111 -156h-46l-94 122zM717 207h-316l-70 -175q-29 -75 -70.5 -108.5t-109.5 -33.5q-76 0 -119.5 34.5t-45.5 102.5l37 26q5 -67 36 -93t90 -26q37 0 60.5 11.5t42.5 39.5t41 82l221 552h-183q-74 0 -114 -32t-40 -97q0 -51 31 -83.5t83 -42.5
l-22 -39q-62 11 -102 55t-40 111q0 81 51 125t142 44h269l263 -660h-53zM698 253l-114 288l-25 70h-1l-23 -68l-115 -290h278z" />
    <glyph glyph-name="Adieresis.swsh" horiz-adv-x="872" 
d="M717 207h-316l-70 -175q-29 -75 -70.5 -108.5t-109.5 -33.5q-76 0 -119.5 34.5t-45.5 102.5l37 26q5 -67 36 -93t90 -26q37 0 60.5 11.5t42.5 39.5t41 82l221 552h-183q-74 0 -114 -32t-40 -97q0 -51 31 -83.5t83 -42.5l-22 -39q-62 11 -102 55t-40 111q0 81 51 125
t142 44h269l263 -660h-53zM698 253l-114 288l-25 70h-1l-23 -68l-115 -290h278zM493 819.5q11 -11.5 11 -29.5t-11 -29t-29 -11t-29.5 11t-11.5 29t11.5 29.5t29.5 11.5t29 -11.5zM682.5 819.5q11.5 -11.5 11.5 -29.5t-11.5 -29t-29.5 -11t-29.5 11t-11.5 29t11.5 29.5
t29.5 11.5t29.5 -11.5z" />
    <glyph glyph-name="Agrave.swsh" horiz-adv-x="872" 
d="M534 743l-83 148h59l65 -148h-41zM717 207h-316l-70 -175q-29 -75 -70.5 -108.5t-109.5 -33.5q-76 0 -119.5 34.5t-45.5 102.5l37 26q5 -67 36 -93t90 -26q37 0 60.5 11.5t42.5 39.5t41 82l221 552h-183q-74 0 -114 -32t-40 -97q0 -51 31 -83.5t83 -42.5l-22 -39
q-62 11 -102 55t-40 111q0 81 51 125t142 44h269l263 -660h-53zM698 253l-114 288l-25 70h-1l-23 -68l-115 -290h278z" />
    <glyph glyph-name="Amacron.swsh" horiz-adv-x="872" 
d="M717 207h-316l-70 -175q-29 -75 -70.5 -108.5t-109.5 -33.5q-76 0 -119.5 34.5t-45.5 102.5l37 26q5 -67 36 -93t90 -26q37 0 60.5 11.5t42.5 39.5t41 82l221 552h-183q-74 0 -114 -32t-40 -97q0 -51 31 -83.5t83 -42.5l-22 -39q-62 11 -102 55t-40 111q0 81 51 125
t142 44h269l263 -660h-53zM698 253l-114 288l-25 70h-1l-23 -68l-115 -290h278zM720 760h-320v42h320v-42z" />
    <glyph glyph-name="Aogonek.swsh" horiz-adv-x="872" 
d="M864 -189q-28 -20 -77 -20q-47 0 -75.5 24t-28.5 68q0 41 26.5 72t85.5 55l-78 197h-316l-70 -175q-29 -75 -70.5 -108.5t-109.5 -33.5q-76 0 -119.5 34.5t-45.5 102.5l37 26q5 -67 36 -93t90 -26q37 0 60.5 11.5t42.5 39.5t41 82l221 552h-183q-74 0 -114 -32t-40 -97
q0 -51 31 -83.5t83 -42.5l-22 -39q-62 11 -102 55t-40 111q0 81 51 125t142 44h269l263 -660q-71 -25 -99.5 -52t-28.5 -62q0 -28 19 -43t49 -15q39 0 61 16zM698 253l-114 288l-25 70h-1l-23 -68l-115 -290h278z" />
    <glyph glyph-name="Atilde.swsh" horiz-adv-x="872" 
d="M717 207h-316l-70 -175q-29 -75 -70.5 -108.5t-109.5 -33.5q-76 0 -119.5 34.5t-45.5 102.5l37 26q5 -67 36 -93t90 -26q37 0 60.5 11.5t42.5 39.5t41 82l221 552h-183q-74 0 -114 -32t-40 -97q0 -51 31 -83.5t83 -42.5l-22 -39q-62 11 -102 55t-40 111q0 81 51 125
t142 44h269l263 -660h-53zM698 253l-114 288l-25 70h-1l-23 -68l-115 -290h278zM698 778q-24 -27 -68 -27q-28 0 -45.5 9.5t-38.5 28.5q-16 15 -28.5 22.5t-29.5 7.5q-27 0 -39.5 -16.5t-19.5 -52.5h-40q7 56 30.5 83t69.5 27q27 0 44.5 -9.5t38.5 -28.5q16 -15 28.5 -22.5
t28.5 -7.5q27 0 40 16.5t20 52.5h40q-7 -56 -31 -83z" />
    <glyph glyph-name="E.swsh" horiz-adv-x="829" 
d="M787 46v-46h-467v619h-106q-74 0 -114 -32t-40 -97q0 -50 30.5 -83t82.5 -43l-21 -39q-63 11 -102.5 55t-39.5 111q0 81 50.5 125t141.5 44h569v-46h-401v-255h317v-47h-317v-266h417z" />
    <glyph glyph-name="Eacute.swsh" horiz-adv-x="829" 
d="M564 743h-41l65 148h59zM787 46v-46h-467v619h-106q-74 0 -114 -32t-40 -97q0 -50 30.5 -83t82.5 -43l-21 -39q-63 11 -102.5 55t-39.5 111q0 81 50.5 125t141.5 44h569v-46h-401v-255h317v-47h-317v-266h417z" />
    <glyph glyph-name="Ecaron.swsh" horiz-adv-x="829" 
d="M516 740l-111 156h47l93 -122l94 122h46l-111 -156h-58zM787 46v-46h-467v619h-106q-74 0 -114 -32t-40 -97q0 -50 30.5 -83t82.5 -43l-21 -39q-63 11 -102.5 55t-39.5 111q0 81 50.5 125t141.5 44h569v-46h-401v-255h317v-47h-317v-266h417z" />
    <glyph glyph-name="Ecircumflex.swsh" horiz-adv-x="829" 
d="M452 739h-47l111 156h58l111 -156h-46l-94 122zM787 46v-46h-467v619h-106q-74 0 -114 -32t-40 -97q0 -50 30.5 -83t82.5 -43l-21 -39q-63 11 -102.5 55t-39.5 111q0 81 50.5 125t141.5 44h569v-46h-401v-255h317v-47h-317v-266h417z" />
    <glyph glyph-name="Edieresis.swsh" horiz-adv-x="829" 
d="M787 46v-46h-467v619h-106q-74 0 -114 -32t-40 -97q0 -50 30.5 -83t82.5 -43l-21 -39q-63 11 -102.5 55t-39.5 111q0 81 50.5 125t141.5 44h569v-46h-401v-255h317v-47h-317v-266h417zM480 819.5q11 -11.5 11 -29.5t-11 -29t-29 -11t-29.5 11t-11.5 29t11.5 29.5
t29.5 11.5t29 -11.5zM669.5 819.5q11.5 -11.5 11.5 -29.5t-11.5 -29t-29.5 -11t-29.5 11t-11.5 29t11.5 29.5t29.5 11.5t29.5 -11.5z" />
    <glyph glyph-name="Edotaccent.swsh" horiz-adv-x="829" 
d="M787 46v-46h-467v619h-106q-74 0 -114 -32t-40 -97q0 -50 30.5 -83t82.5 -43l-21 -39q-63 11 -102.5 55t-39.5 111q0 81 50.5 125t141.5 44h569v-46h-401v-255h317v-47h-317v-266h417zM576.5 829.5q11.5 -11.5 11.5 -30.5t-11.5 -30.5t-30.5 -11.5t-30.5 11.5t-11.5 30.5
t11.5 30.5t30.5 11.5t30.5 -11.5z" />
    <glyph glyph-name="Egrave.swsh" horiz-adv-x="829" 
d="M520 743l-83 148h59l65 -148h-41zM787 46v-46h-467v619h-106q-74 0 -114 -32t-40 -97q0 -50 30.5 -83t82.5 -43l-21 -39q-63 11 -102.5 55t-39.5 111q0 81 50.5 125t141.5 44h569v-46h-401v-255h317v-47h-317v-266h417z" />
    <glyph glyph-name="Emacron.swsh" horiz-adv-x="829" 
d="M787 46v-46h-467v619h-106q-74 0 -114 -32t-40 -97q0 -50 30.5 -83t82.5 -43l-21 -39q-63 11 -102.5 55t-39.5 111q0 81 50.5 125t141.5 44h569v-46h-401v-255h317v-47h-317v-266h417zM706 760h-320v42h320v-42z" />
    <glyph glyph-name="Eogonek.swsh" horiz-adv-x="829" 
d="M800 -189q-30 -20 -78 -20q-47 0 -75.5 23.5t-28.5 65.5q0 41 24.5 69.5t78.5 50.5h-401v619h-106q-74 0 -114 -32t-40 -97q0 -50 30.5 -83t82.5 -43l-21 -39q-63 11 -102.5 55t-39.5 111q0 81 50.5 125t141.5 44h569v-46h-401v-255h317v-47h-317v-266h417v-46
q-72 -26 -100 -53t-28 -61q0 -28 19 -43t50 -15q38 0 60 16z" />
    <glyph glyph-name="F.swsh" horiz-adv-x="800" 
d="M370 614v-255h317v-47h-317v-312h-50v619h-106q-74 0 -114 -32t-40 -97q0 -50 30.5 -83t82.5 -43l-21 -39q-63 11 -102.5 55t-39.5 111q0 81 50.5 125t141.5 44h568v-46h-400z" />
    <glyph glyph-name="L.swsh" horiz-adv-x="612" 
d="M562 281q40 -42 40 -112q0 -84 -50 -126.5t-142 -42.5h-306v660h50v-614h244q75 0 114.5 29.5t39.5 94.5q0 54 -30.5 84.5t-83.5 36.5l22 39q62 -7 102 -49z" />
    <glyph glyph-name="Lacute.swsh" horiz-adv-x="612" 
d="M147 743h-41l65 148h59zM562 281q40 -42 40 -112q0 -84 -50 -126.5t-142 -42.5h-306v660h50v-614h244q75 0 114.5 29.5t39.5 94.5q0 54 -30.5 84.5t-83.5 36.5l22 39q62 -7 102 -49z" />
    <glyph glyph-name="Lcaron.swsh" horiz-adv-x="612" 
d="M158 740h-58l-111 156h47l93 -122l94 122h46zM562 281q40 -42 40 -112q0 -84 -50 -126.5t-142 -42.5h-306v660h50v-614h244q75 0 114.5 29.5t39.5 94.5q0 54 -30.5 84.5t-83.5 36.5l22 39q62 -7 102 -49z" />
    <glyph glyph-name="Lcommaaccent.swsh" horiz-adv-x="612" 
d="M562 281q40 -42 40 -112q0 -84 -50 -126.5t-142 -42.5h-306v660h50v-614h244q75 0 114.5 29.5t39.5 94.5q0 54 -30.5 84.5t-83.5 36.5l22 39q62 -7 102 -49zM313 -233h-40l47 161h53z" />
    <glyph glyph-name="Lslash.swsh" horiz-adv-x="633" 
d="M583.5 281.5q39.5 -41.5 39.5 -112.5q0 -84 -50 -126.5t-142 -42.5h-306v265l-103 -61v53l103 61v342h50v-312l191 113v-53l-191 -114v-248h244q75 0 114.5 29.5t39.5 94.5q0 54 -30.5 84.5t-82.5 36.5l21 39q63 -7 102.5 -48.5z" />
    <glyph glyph-name="M.swsh" horiz-adv-x="1039" 
d="M935 660v-660h-48v492l5 120l-242 -612h-45l-241 612h-1l5 -120v-435q0 -74 -45.5 -120.5t-126.5 -46.5q-71 0 -111 32t-48 92l37 26q8 -55 37.5 -81t84.5 -26q58 0 91 36.5t33 98.5v551h-106q-74 0 -114 -32t-40 -97q0 -50 30.5 -83t82.5 -43l-21 -39q-63 11 -102.5 55
t-39.5 111q0 81 50.5 125t141.5 44h194l199 -500l32 -101h1l33 100l199 501h75z" />
    <glyph glyph-name="N.swsh" horiz-adv-x="895" 
d="M847 703q40 -32 48 -92l-37 -26q-8 55 -37.5 81t-84.5 26q-59 0 -92 -38t-33 -106v-548h-62l-350 518l-49 88h-1l3 -83v-523h-48v660h63l349 -517l50 -89l-2 83v422q0 80 45 128t127 48q71 0 111 -32z" />
    <glyph glyph-name="Nacute.swsh" horiz-adv-x="895" 
d="M381 743h-41l65 148h59zM847 703q40 -32 48 -92l-37 -26q-8 55 -37.5 81t-84.5 26q-59 0 -92 -38t-33 -106v-548h-62l-350 518l-49 88h-1l3 -83v-523h-48v660h63l349 -517l50 -89l-2 83v422q0 80 45 128t127 48q71 0 111 -32z" />
    <glyph glyph-name="Ncaron.swsh" horiz-adv-x="895" 
d="M334 740l-111 156h47l93 -122l94 122h46l-111 -156h-58zM847 703q40 -32 48 -92l-37 -26q-8 55 -37.5 81t-84.5 26q-59 0 -92 -38t-33 -106v-548h-62l-350 518l-49 88h-1l3 -83v-523h-48v660h63l349 -517l50 -89l-2 83v422q0 80 45 128t127 48q71 0 111 -32z" />
    <glyph glyph-name="Ncommaaccent.swsh" horiz-adv-x="895" 
d="M847 703q40 -32 48 -92l-37 -26q-8 55 -37.5 81t-84.5 26q-59 0 -92 -38t-33 -106v-548h-62l-350 518l-49 88h-1l3 -83v-523h-48v660h63l349 -517l50 -89l-2 83v422q0 80 45 128t127 48q71 0 111 -32zM333 -233h-40l47 161h53z" />
    <glyph glyph-name="Ntilde.swsh" horiz-adv-x="895" 
d="M847 703q40 -32 48 -92l-37 -26q-8 55 -37.5 81t-84.5 26q-59 0 -92 -38t-33 -106v-548h-62l-350 518l-49 88h-1l3 -83v-523h-48v660h63l349 -517l50 -89l-2 83v422q0 80 45 128t127 48q71 0 111 -32zM502 778q-24 -27 -68 -27q-28 0 -45.5 9.5t-38.5 28.5
q-16 15 -28.5 22.5t-29.5 7.5q-27 0 -39.5 -16.5t-19.5 -52.5h-40q7 56 30.5 83t69.5 27q27 0 44.5 -9.5t38.5 -28.5q16 -15 28.5 -22.5t28.5 -7.5q27 0 40 16.5t20 52.5h40q-7 -56 -31 -83z" />
    <glyph glyph-name="R.swsh" horiz-adv-x="856" 
d="M758 0l-189 286h-4h-195v-229q0 -74 -46 -120.5t-128 -46.5q-73 0 -113.5 35.5t-45.5 97.5l37 26q9 -116 122 -116q58 0 91 36.5t33 98.5v551h-106q-74 0 -114 -32t-40 -97q0 -50 30.5 -83t82.5 -43l-21 -39q-63 11 -102.5 55t-39.5 111q0 81 50.5 125t141.5 44h363
q99 0 158 -50t59 -137q0 -72 -42 -119.5t-115 -61.5l192 -292h-59zM370 333h195q80 0 122.5 36t42.5 104t-42.5 104.5t-122.5 36.5h-195v-281z" />
    <glyph glyph-name="Racute.swsh" horiz-adv-x="856" 
d="M544 743h-41l65 148h59zM758 0l-189 286h-4h-195v-229q0 -74 -46 -120.5t-128 -46.5q-73 0 -113.5 35.5t-45.5 97.5l37 26q9 -116 122 -116q58 0 91 36.5t33 98.5v551h-106q-74 0 -114 -32t-40 -97q0 -50 30.5 -83t82.5 -43l-21 -39q-63 11 -102.5 55t-39.5 111
q0 81 50.5 125t141.5 44h363q99 0 158 -50t59 -137q0 -72 -42 -119.5t-115 -61.5l192 -292h-59zM370 333h195q80 0 122.5 36t42.5 104t-42.5 104.5t-122.5 36.5h-195v-281z" />
    <glyph glyph-name="Rcaron.swsh" horiz-adv-x="856" 
d="M496 740l-111 156h47l93 -122l94 122h46l-111 -156h-58zM758 0l-189 286h-4h-195v-229q0 -74 -46 -120.5t-128 -46.5q-73 0 -113.5 35.5t-45.5 97.5l37 26q9 -116 122 -116q58 0 91 36.5t33 98.5v551h-106q-74 0 -114 -32t-40 -97q0 -50 30.5 -83t82.5 -43l-21 -39
q-63 11 -102.5 55t-39.5 111q0 81 50.5 125t141.5 44h363q99 0 158 -50t59 -137q0 -72 -42 -119.5t-115 -61.5l192 -292h-59zM370 333h195q80 0 122.5 36t42.5 104t-42.5 104.5t-122.5 36.5h-195v-281z" />
    <glyph glyph-name="Rcommaaccent.swsh" horiz-adv-x="856" 
d="M758 0l-189 286h-4h-195v-229q0 -74 -46 -120.5t-128 -46.5q-73 0 -113.5 35.5t-45.5 97.5l37 26q9 -116 122 -116q58 0 91 36.5t33 98.5v551h-106q-74 0 -114 -32t-40 -97q0 -50 30.5 -83t82.5 -43l-21 -39q-63 11 -102.5 55t-39.5 111q0 81 50.5 125t141.5 44h363
q99 0 158 -50t59 -137q0 -72 -42 -119.5t-115 -61.5l192 -292h-59zM370 333h195q80 0 122.5 36t42.5 104t-42.5 104.5t-122.5 36.5h-195v-281zM532 -233h-40l47 161h53z" />
    <glyph glyph-name="S.swsh" horiz-adv-x="619" 
d="M135 -63.5q-65 46.5 -65 131.5q0 23 6 51l47 14q-6 -27 -6 -52q0 -71 51.5 -108t151.5 -37q94 0 145 40.5t51 114.5q0 38 -18.5 66t-61.5 50.5t-118 44.5q-128 36 -181 84t-53 124q0 96 63.5 153t170.5 57q111 0 170.5 -49t61.5 -143l-49 -19q2 84 -42.5 124.5
t-139.5 40.5q-86 0 -134.5 -42t-48.5 -117q0 -40 19 -69.5t63.5 -53t121.5 -46.5q86 -25 135.5 -53t71 -63.5t21.5 -86.5q0 -61 -31 -107t-87.5 -71t-131.5 -25q-118 0 -183 46.5z" />
    <glyph glyph-name="Sacute.swsh" horiz-adv-x="619" 
d="M411 891l-83 -148h-41l65 148h59zM135 -63.5q-65 46.5 -65 131.5q0 23 6 51l47 14q-6 -27 -6 -52q0 -71 51.5 -108t151.5 -37q94 0 145 40.5t51 114.5q0 38 -18.5 66t-61.5 50.5t-118 44.5q-128 36 -181 84t-53 124q0 96 63.5 153t170.5 57q111 0 170.5 -49t61.5 -143
l-49 -19q2 84 -42.5 124.5t-139.5 40.5q-86 0 -134.5 -42t-48.5 -117q0 -40 19 -69.5t63.5 -53t121.5 -46.5q86 -25 135.5 -53t71 -63.5t21.5 -86.5q0 -61 -31 -107t-87.5 -71t-131.5 -25q-118 0 -183 46.5z" />
    <glyph glyph-name="Scaron.swsh" horiz-adv-x="619" 
d="M338 740h-58l-111 156h47l93 -122l94 122h46zM135 -63.5q-65 46.5 -65 131.5q0 23 6 51l47 14q-6 -27 -6 -52q0 -71 51.5 -108t151.5 -37q94 0 145 40.5t51 114.5q0 38 -18.5 66t-61.5 50.5t-118 44.5q-128 36 -181 84t-53 124q0 96 63.5 153t170.5 57q111 0 170.5 -49
t61.5 -143l-49 -19q2 84 -42.5 124.5t-139.5 40.5q-86 0 -134.5 -42t-48.5 -117q0 -40 19 -69.5t63.5 -53t121.5 -46.5q86 -25 135.5 -53t71 -63.5t21.5 -86.5q0 -61 -31 -107t-87.5 -71t-131.5 -25q-118 0 -183 46.5z" />
    <glyph glyph-name="Scedilla.swsh" horiz-adv-x="619" 
d="M506.5 -49.5q-61.5 -54.5 -165.5 -59.5q64 -43 64 -104q0 -41 -28 -68.5t-75 -27.5q-34 0 -58.5 9t-44.5 29l20 35q29 -35 77 -35q28 0 46.5 17.5t18.5 46.5t-18 51t-65 48q-100 8 -154 53.5t-54 122.5q0 23 6 51l47 14q-6 -27 -6 -52q0 -71 51.5 -108t151.5 -37
q94 0 145 40.5t51 114.5q0 38 -18.5 66t-61.5 50.5t-118 44.5q-128 36 -181 84t-53 124q0 96 63.5 153t170.5 57q111 0 170.5 -49t61.5 -143l-49 -19q2 84 -42.5 124.5t-139.5 40.5q-86 0 -134.5 -42t-48.5 -117q0 -40 19 -69.5t63.5 -53t121.5 -46.5q86 -25 135.5 -53
t71 -63.5t21.5 -86.5q0 -88 -61.5 -142.5z" />
    <glyph glyph-name="Scommaaccent.swsh" horiz-adv-x="619" 
d="M135 -63.5q-65 46.5 -65 131.5q0 23 6 51l47 14q-6 -27 -6 -52q0 -71 51.5 -108t151.5 -37q94 0 145 40.5t51 114.5q0 38 -18.5 66t-61.5 50.5t-118 44.5q-128 36 -181 84t-53 124q0 96 63.5 153t170.5 57q111 0 170.5 -49t61.5 -143l-49 -19q2 84 -42.5 124.5
t-139.5 40.5q-86 0 -134.5 -42t-48.5 -117q0 -40 19 -69.5t63.5 -53t121.5 -46.5q86 -25 135.5 -53t71 -63.5t21.5 -86.5q0 -61 -31 -107t-87.5 -71t-131.5 -25q-118 0 -183 46.5zM288 -333h-40l47 161h53z" />
    <glyph glyph-name="T.swsh" horiz-adv-x="667" 
d="M645 614h-241v-614h-50v614h-140q-154 0 -154 -124q0 -50 30.5 -83t82.5 -43l-21 -39q-63 11 -102.5 55t-39.5 111q0 81 50.5 125t141.5 44h443v-46z" />
    <glyph glyph-name="Tcaron.swsh" horiz-adv-x="667" 
d="M350 740l-111 156h47l93 -122l94 122h46l-111 -156h-58zM645 614h-241v-614h-50v614h-140q-154 0 -154 -124q0 -50 30.5 -83t82.5 -43l-21 -39q-63 11 -102.5 55t-39.5 111q0 81 50.5 125t141.5 44h443v-46z" />
    <glyph glyph-name="uni0162.swsh" horiz-adv-x="667" 
d="M404 614v-608q40 -26 58.5 -54.5t18.5 -64.5q0 -41 -28.5 -68.5t-75.5 -27.5q-65 0 -102 39l20 34q32 -35 76 -35q29 0 47 18t18 47q0 31 -18 53.5t-64 52.5v614h-140q-154 0 -154 -124q0 -50 30.5 -83t82.5 -43l-21 -39q-63 11 -102.5 55t-39.5 111q0 81 50.5 125
t141.5 44h443v-46h-241z" />
    <glyph glyph-name="uni021A.swsh" horiz-adv-x="667" 
d="M645 614h-241v-614h-50v614h-140q-154 0 -154 -124q0 -50 30.5 -83t82.5 -43l-21 -39q-63 11 -102.5 55t-39.5 111q0 81 50.5 125t141.5 44h443v-46zM349 -233h-40l47 161h53z" />
    <glyph glyph-name="W.swsh" horiz-adv-x="1166" 
d="M1136 660l-205 -660h-63l-133 463l-37 143h-1l-37 -143l-133 -463h-62l-193 619h-58q-74 0 -114 -32t-40 -97q0 -50 30.5 -83t82.5 -43l-21 -39q-63 11 -102.5 55t-39.5 111q0 81 50.5 125t141.5 44h111l184 -619l173 619h58l173 -620l184 620h51z" />
    <glyph glyph-name="Adieresis.titl" horiz-adv-x="625" 
d="M156 594q-11 11 -11 29q0 17 11 28t28 11q18 0 29 -11t11 -28q0 -18 -11 -29t-29 -11q-17 0 -28 11zM412 594q-11 11 -11 29q0 17 11 28t29 11q17 0 28 -11t11 -28q0 -18 -11 -29t-28 -11q-18 0 -29 11zM470 207h-316l-82 -207h-53l264 660h59l264 -660h-53zM452 253
l-115 288l-24 70h-1l-24 -68l-115 -290h279z" />
    <glyph glyph-name="Odieresis.titl" horiz-adv-x="732" 
d="M527.5 628.5q68.5 -41.5 105.5 -118t37 -180.5t-37 -180.5t-105.5 -118t-161.5 -41.5t-161.5 41.5t-105 118t-36.5 180.5t36.5 180.5t105 118t161.5 41.5t161.5 -41.5zM232 588.5q-57 -35.5 -87.5 -102t-30.5 -156.5t30.5 -156.5t87.5 -102t134 -35.5t133.5 35.5t87 102
t30.5 156.5t-30.5 156.5t-87 102t-133.5 35.5t-134 -35.5zM329.5 572.5q11.5 -10.5 11.5 -27.5q0 -18 -11.5 -29t-28.5 -11q-18 0 -28.5 11t-10.5 29q0 17 10.5 27.5t28.5 10.5q17 0 28.5 -10.5zM460 572.5q11 -10.5 11 -27.5q0 -18 -11 -29t-28 -11q-18 0 -28.5 11
t-10.5 29q0 17 10.5 27.5t28.5 10.5q17 0 28 -10.5z" />
    <glyph glyph-name="Udieresis.titl" horiz-adv-x="701" 
d="M249 594q-11 11 -11 29q0 17 11 28t28 11t28 -11t11 -28q0 -18 -11 -29t-28 -11t-28 11zM395 594q-11 11 -11 29q0 17 11 28t29 11q17 0 28 -11t11 -28q0 -18 -11 -29t-28 -11q-18 0 -29 11zM605 241q0 -122 -66 -186.5t-188 -64.5t-188.5 64.5t-66.5 186.5v419h50v-409
q0 -106 52 -160.5t153 -54.5q100 0 152 54.5t52 160.5v409h50v-419z" />
    <glyph glyph-name="a" unicode="a" horiz-adv-x="543" 
d="M530 40l-3 -40q-18 -10 -49 -10q-35 0 -57 19t-25 66q-23 -40 -74 -62.5t-107 -22.5q-74 0 -118.5 33t-44.5 94q0 116 190 150l153 27v44q0 60 -35.5 94t-100.5 34q-119 0 -160 -106l-38 28q22 59 73 90.5t125 31.5q87 0 136.5 -42.5t49.5 -123.5v-258q0 -53 46 -53
q25 0 39 7zM302 48.5q40 14.5 66.5 43t26.5 68.5v93l-137 -25q-81 -15 -118 -42t-37 -69q0 -40 31 -61.5t86 -21.5q42 0 82 14.5z" />
    <glyph glyph-name="aacute" unicode="&#xe1;" horiz-adv-x="543" 
d="M530 40l-3 -40q-18 -10 -49 -10q-35 0 -57 19t-25 66q-23 -40 -74 -62.5t-107 -22.5q-74 0 -118.5 33t-44.5 94q0 116 190 150l153 27v44q0 60 -35.5 94t-100.5 34q-119 0 -160 -106l-38 28q22 59 73 90.5t125 31.5q87 0 136.5 -42.5t49.5 -123.5v-258q0 -53 46 -53
q25 0 39 7zM302 48.5q40 14.5 66.5 43t26.5 68.5v93l-137 -25q-81 -15 -118 -42t-37 -69q0 -40 31 -61.5t86 -21.5q42 0 82 14.5zM366 741l-94 -158h-41l80 158h55z" />
    <glyph glyph-name="abreve" unicode="&#x103;" horiz-adv-x="543" 
d="M530 40l-3 -40q-18 -10 -49 -10q-35 0 -57 19t-25 66q-23 -40 -74 -62.5t-107 -22.5q-74 0 -118.5 33t-44.5 94q0 116 190 150l153 27v44q0 60 -35.5 94t-100.5 34q-119 0 -160 -106l-38 28q22 59 73 90.5t125 31.5q87 0 136.5 -42.5t49.5 -123.5v-258q0 -53 46 -53
q25 0 39 7zM302 48.5q40 14.5 66.5 43t26.5 68.5v93l-137 -25q-81 -15 -118 -42t-37 -69q0 -40 31 -61.5t86 -21.5q42 0 82 14.5zM359 615.5q-37 -36.5 -99 -36.5q-61 0 -98 37t-37 98h42q0 -42 26 -69.5t67 -27.5q42 0 68 27.5t26 69.5h42q0 -62 -37 -98.5z" />
    <glyph glyph-name="acircumflex" unicode="&#xe2;" horiz-adv-x="543" 
d="M530 40l-3 -40q-18 -10 -49 -10q-35 0 -57 19t-25 66q-23 -40 -74 -62.5t-107 -22.5q-74 0 -118.5 33t-44.5 94q0 116 190 150l153 27v44q0 60 -35.5 94t-100.5 34q-119 0 -160 -106l-38 28q22 59 73 90.5t125 31.5q87 0 136.5 -42.5t49.5 -123.5v-258q0 -53 46 -53
q25 0 39 7zM302 48.5q40 14.5 66.5 43t26.5 68.5v93l-137 -25q-81 -15 -118 -42t-37 -69q0 -40 31 -61.5t86 -21.5q42 0 82 14.5zM352 579l-92 120l-92 -120h-47l110 156h57l111 -156h-47z" />
    <glyph glyph-name="adieresis" unicode="&#xe4;" horiz-adv-x="543" 
d="M530 40l-3 -40q-18 -10 -49 -10q-35 0 -57 19t-25 66q-23 -40 -74 -62.5t-107 -22.5q-74 0 -118.5 33t-44.5 94q0 116 190 150l153 27v44q0 60 -35.5 94t-100.5 34q-119 0 -160 -106l-38 28q22 59 73 90.5t125 31.5q87 0 136.5 -42.5t49.5 -123.5v-258q0 -53 46 -53
q25 0 39 7zM302 48.5q40 14.5 66.5 43t26.5 68.5v93l-137 -25q-81 -15 -118 -42t-37 -69q0 -40 31 -61.5t86 -21.5q42 0 82 14.5zM194 659.5q11 -11.5 11 -29.5t-11 -29t-29 -11t-29.5 11t-11.5 29t11.5 29.5t29.5 11.5t29 -11.5zM383.5 659.5q11.5 -11.5 11.5 -29.5
t-11.5 -29t-29.5 -11t-29.5 11t-11.5 29t11.5 29.5t29.5 11.5t29.5 -11.5z" />
    <glyph glyph-name="agrave" unicode="&#xe0;" horiz-adv-x="543" 
d="M530 40l-3 -40q-18 -10 -49 -10q-35 0 -57 19t-25 66q-23 -40 -74 -62.5t-107 -22.5q-74 0 -118.5 33t-44.5 94q0 116 190 150l153 27v44q0 60 -35.5 94t-100.5 34q-119 0 -160 -106l-38 28q22 59 73 90.5t125 31.5q87 0 136.5 -42.5t49.5 -123.5v-258q0 -53 46 -53
q25 0 39 7zM302 48.5q40 14.5 66.5 43t26.5 68.5v93l-137 -25q-81 -15 -118 -42t-37 -69q0 -40 31 -61.5t86 -21.5q42 0 82 14.5zM288 583h-42l-93 158h54z" />
    <glyph glyph-name="amacron" unicode="&#x101;" horiz-adv-x="543" 
d="M530 40l-3 -40q-18 -10 -49 -10q-35 0 -57 19t-25 66q-23 -40 -74 -62.5t-107 -22.5q-74 0 -118.5 33t-44.5 94q0 116 190 150l153 27v44q0 60 -35.5 94t-100.5 34q-119 0 -160 -106l-38 28q22 59 73 90.5t125 31.5q87 0 136.5 -42.5t49.5 -123.5v-258q0 -53 46 -53
q25 0 39 7zM302 48.5q40 14.5 66.5 43t26.5 68.5v93l-137 -25q-81 -15 -118 -42t-37 -69q0 -40 31 -61.5t86 -21.5q42 0 82 14.5zM420 600h-320v42h320v-42z" />
    <glyph glyph-name="aogonek" unicode="&#x105;" horiz-adv-x="543" 
d="M519 -158l11 -33q-27 -18 -73 -18t-75 23.5t-29 63.5q0 38 24 66.5t73 51.5q-46 19 -54 80q-22 -40 -73 -63t-108 -23q-74 0 -118.5 33t-44.5 94q0 116 190 150l153 27v44q0 60 -35.5 94t-100.5 34q-117 0 -160 -106l-38 28q22 59 73 90.5t125 31.5q87 0 136.5 -42.5
t49.5 -123.5v-258q0 -53 46 -53q25 0 39 7l-3 -40q-72 -27 -102 -53.5t-30 -61.5q0 -27 17.5 -42t47.5 -15q40 0 59 14zM302 48.5q40 14.5 66.5 43t26.5 68.5v93l-137 -25q-81 -16 -118 -42.5t-37 -68.5q0 -40 31 -61.5t86 -21.5q42 0 82 14.5z" />
    <glyph glyph-name="aring" unicode="&#xe5;" horiz-adv-x="543" 
d="M530 40l-3 -40q-18 -10 -49 -10q-35 0 -57 19t-25 66q-23 -40 -74 -62.5t-107 -22.5q-74 0 -118.5 33t-44.5 94q0 116 190 150l153 27v44q0 60 -35.5 94t-100.5 34q-119 0 -160 -106l-38 28q22 59 73 90.5t125 31.5q87 0 136.5 -42.5t49.5 -123.5v-258q0 -53 46 -53
q25 0 39 7zM302 48.5q40 14.5 66.5 43t26.5 68.5v93l-137 -25q-81 -15 -118 -42t-37 -69q0 -40 31 -61.5t86 -21.5q42 0 82 14.5zM332.5 748q29.5 -28 29.5 -72t-29.5 -72.5t-75.5 -28.5t-75.5 28.5t-29.5 72.5t29.5 72t75.5 28t75.5 -28zM208.5 724q-19.5 -19 -19.5 -48
t19.5 -48.5t48.5 -19.5q30 0 49.5 19.5t19.5 48.5t-19.5 48t-49.5 19q-29 0 -48.5 -19z" />
    <glyph glyph-name="atilde" unicode="&#xe3;" horiz-adv-x="543" 
d="M530 40l-3 -40q-18 -10 -49 -10q-35 0 -57 19t-25 66q-23 -40 -74 -62.5t-107 -22.5q-74 0 -118.5 33t-44.5 94q0 116 190 150l153 27v44q0 60 -35.5 94t-100.5 34q-119 0 -160 -106l-38 28q22 59 73 90.5t125 31.5q87 0 136.5 -42.5t49.5 -123.5v-258q0 -53 46 -53
q25 0 39 7zM302 48.5q40 14.5 66.5 43t26.5 68.5v93l-137 -25q-81 -15 -118 -42t-37 -69q0 -40 31 -61.5t86 -21.5q42 0 82 14.5zM399 618q-24 -27 -68 -27q-28 0 -45.5 9.5t-38.5 28.5q-16 15 -28.5 22.5t-29.5 7.5q-27 0 -39.5 -16.5t-19.5 -52.5h-40q7 56 30.5 83
t69.5 27q27 0 44.5 -9.5t38.5 -28.5q16 -15 28.5 -22.5t28.5 -7.5q27 0 40 16.5t20 52.5h40q-7 -56 -31 -83z" />
    <glyph glyph-name="ae" unicode="&#xe6;" horiz-adv-x="876" 
d="M820 237h-376q3 -94 50 -148.5t123 -54.5q61 0 98 23t56 69l41 -22q-28 -56 -74 -85t-121 -29q-72 0 -122.5 35.5t-73.5 104.5q-16 -70 -74.5 -105t-134.5 -35q-73 0 -116.5 33.5t-43.5 93.5q0 59 46 97.5t139 49.5l162 18v55q0 61 -36.5 95t-103.5 34q-117 0 -160 -106
l-38 28q22 60 73.5 91t125.5 31q67 0 111.5 -29.5t61.5 -86.5q26 55 72 85.5t108 30.5q102 0 155.5 -64t53.5 -176q0 -15 -2 -33zM497 417.5q-45 -48.5 -52 -135.5h330q-11 184 -162 184q-71 0 -116 -48.5zM305 51q41 17 67.5 53t26.5 89v50l-146 -19q-79 -9 -114.5 -36
t-35.5 -71q0 -41 32 -62t86 -21q43 0 84 17z" />
    <glyph glyph-name="b" unicode="b" horiz-adv-x="609" 
d="M490.5 441q61.5 -69 61.5 -191t-61.5 -191t-167.5 -69q-67 0 -116 32.5t-70 89.5l-3 -112h-45v730h50v-336q23 54 71.5 85t112.5 31q106 0 167.5 -69zM453 91.5q49 57.5 49 158.5t-49 158.5t-136 57.5q-78 0 -126 -53t-52 -145v-36q4 -92 52 -145t126 -53q87 0 136 57.5z
" />
    <glyph glyph-name="c" unicode="c" horiz-adv-x="545" 
d="M420.5 474.5q52.5 -35.5 75.5 -99.5l-47 -22q-17 55 -57 84t-100 29q-87 0 -136 -57.5t-49 -158.5q0 -102 48.5 -159t135.5 -57q64 0 108.5 31.5t54.5 87.5l46 -16q-20 -68 -75.5 -107.5t-132.5 -39.5q-111 0 -173 69t-62 191t62.5 191t173.5 69q75 0 127.5 -35.5z" />
    <glyph glyph-name="cacute" unicode="&#x107;" horiz-adv-x="545" 
d="M420.5 474.5q52.5 -35.5 75.5 -99.5l-47 -22q-17 55 -57 84t-100 29q-87 0 -136 -57.5t-49 -158.5q0 -102 48.5 -159t135.5 -57q64 0 108.5 31.5t54.5 87.5l46 -16q-20 -68 -75.5 -107.5t-132.5 -39.5q-111 0 -173 69t-62 191t62.5 191t173.5 69q75 0 127.5 -35.5z
M392 741l-94 -158h-41l80 158h55z" />
    <glyph glyph-name="ccaron" unicode="&#x10d;" horiz-adv-x="545" 
d="M420.5 474.5q52.5 -35.5 75.5 -99.5l-47 -22q-17 55 -57 84t-100 29q-87 0 -136 -57.5t-49 -158.5q0 -102 48.5 -159t135.5 -57q64 0 108.5 31.5t54.5 87.5l46 -16q-20 -68 -75.5 -107.5t-132.5 -39.5q-111 0 -173 69t-62 191t62.5 191t173.5 69q75 0 127.5 -35.5z
M315 583h-58l-110 155h47l92 -119l92 119h47z" />
    <glyph glyph-name="ccedilla" unicode="&#xe7;" horiz-adv-x="545" 
d="M434.5 36.5q-47.5 -38.5 -115.5 -45.5q65 -42 65 -104q0 -41 -28 -68.5t-75 -27.5q-34 0 -58.5 9t-44.5 29l20 35q29 -35 77 -35q28 0 46.5 17.5t18.5 46.5t-18 51.5t-66 47.5q-94 11 -146.5 79t-52.5 179q0 122 62.5 191t173.5 69q75 0 127.5 -35.5t75.5 -99.5l-47 -22
q-17 55 -57 84t-100 29q-87 0 -136 -57.5t-49 -158.5q0 -102 48.5 -159t135.5 -57q64 0 108.5 31.5t54.5 87.5l46 -16q-18 -62 -65.5 -100.5z" />
    <glyph glyph-name="d" unicode="d" horiz-adv-x="609" 
d="M520 730v-730h-45l-3 112q-21 -57 -70 -89.5t-116 -32.5q-106 0 -167.5 69t-61.5 191t61.5 191t167.5 69q65 0 113 -31t71 -85v336h50zM418 86.5q48 52.5 52 142.5v42q-5 90 -52.5 142.5t-125.5 52.5q-87 0 -136 -57.5t-49 -158.5t49 -158.5t136 -57.5q78 0 126 52.5z
" />
    <glyph glyph-name="eth" unicode="&#xf0;" horiz-adv-x="600" 
d="M436 611q94 -124 94 -325q0 -141 -61 -218.5t-176 -77.5q-109 0 -172.5 66.5t-63.5 181.5q0 75 29.5 131t82 86t119.5 30q69 0 117.5 -26.5t74.5 -75.5q-19 133 -88 218l-180 -42l-7 32l165 35q-56 61 -149 104h73q74 -40 121 -93l114 28l9 -32zM430.5 92.5
q49.5 58.5 51.5 154.5q0 85 -50 139.5t-138 54.5q-86 0 -136 -54.5t-50 -148.5q0 -95 50 -149.5t137 -54.5q86 0 135.5 58.5z" />
    <glyph glyph-name="dcaron" unicode="&#x10f;" horiz-adv-x="620" 
d="M470 730h50v-730h-45l-3 112q-21 -57 -70 -89.5t-116 -32.5q-106 0 -167.5 69t-61.5 191t61.5 191t167.5 69q65 0 113 -31t71 -85v336zM661 730l-36 -197h-35l22 197h49zM418 86.5q48 52.5 52 142.5v42q-5 90 -52.5 142.5t-125.5 52.5q-87 0 -136 -57.5t-49 -158.5
t49 -158.5t136 -57.5q78 0 126 52.5z" />
    <glyph glyph-name="dcroat" unicode="&#x111;" horiz-adv-x="608" 
d="M606 579h-86v-579h-45l-3 112q-21 -57 -70 -89.5t-116 -32.5q-106 0 -167.5 69t-61.5 191t61.5 191t167.5 69q65 0 113 -31t71 -85v185h-169v38h169v113h50v-113h86v-38zM418 86.5q48 52.5 52 142.5v42q-5 90 -52.5 142.5t-125.5 52.5q-87 0 -136 -57.5t-49 -158.5
t49 -158.5t136 -57.5q78 0 126 52.5z" />
    <glyph glyph-name="e" unicode="e" horiz-adv-x="559" 
d="M503 229h-397q5 -92 54.5 -143.5t132.5 -51.5q59 0 101.5 24t61.5 68l42 -22q-28 -55 -80 -84.5t-125 -29.5q-111 0 -173.5 69t-62.5 191t60.5 191t169.5 69q102 0 160 -68t58 -180q0 -17 -2 -33zM159 415.5q-47 -50.5 -53 -141.5h352q-5 90 -49.5 141t-121.5 51
q-81 0 -128 -50.5z" />
    <glyph glyph-name="eacute" unicode="&#xe9;" horiz-adv-x="559" 
d="M503 229h-397q5 -92 54.5 -143.5t132.5 -51.5q59 0 101.5 24t61.5 68l42 -22q-28 -55 -80 -84.5t-125 -29.5q-111 0 -173.5 69t-62.5 191t60.5 191t169.5 69q102 0 160 -68t58 -180q0 -17 -2 -33zM159 415.5q-47 -50.5 -53 -141.5h352q-5 90 -49.5 141t-121.5 51
q-81 0 -128 -50.5zM390 741l-94 -158h-41l80 158h55z" />
    <glyph glyph-name="ecaron" unicode="&#x11b;" horiz-adv-x="559" 
d="M503 229h-397q5 -92 54.5 -143.5t132.5 -51.5q59 0 101.5 24t61.5 68l42 -22q-28 -55 -80 -84.5t-125 -29.5q-111 0 -173.5 69t-62.5 191t60.5 191t169.5 69q102 0 160 -68t58 -180q0 -17 -2 -33zM159 415.5q-47 -50.5 -53 -141.5h352q-5 90 -49.5 141t-121.5 51
q-81 0 -128 -50.5zM313 583h-58l-110 155h47l92 -119l92 119h47z" />
    <glyph glyph-name="ecircumflex" unicode="&#xea;" horiz-adv-x="559" 
d="M503 229h-397q5 -92 54.5 -143.5t132.5 -51.5q59 0 101.5 24t61.5 68l42 -22q-28 -55 -80 -84.5t-125 -29.5q-111 0 -173.5 69t-62.5 191t60.5 191t169.5 69q102 0 160 -68t58 -180q0 -17 -2 -33zM159 415.5q-47 -50.5 -53 -141.5h352q-5 90 -49.5 141t-121.5 51
q-81 0 -128 -50.5zM376 579l-92 120l-92 -120h-47l110 156h57l111 -156h-47z" />
    <glyph glyph-name="edieresis" unicode="&#xeb;" horiz-adv-x="559" 
d="M503 229h-397q5 -92 54.5 -143.5t132.5 -51.5q59 0 101.5 24t61.5 68l42 -22q-28 -55 -80 -84.5t-125 -29.5q-111 0 -173.5 69t-62.5 191t60.5 191t169.5 69q102 0 160 -68t58 -180q0 -17 -2 -33zM159 415.5q-47 -50.5 -53 -141.5h352q-5 90 -49.5 141t-121.5 51
q-81 0 -128 -50.5zM218 659.5q11 -11.5 11 -29.5t-11 -29t-29 -11t-29.5 11t-11.5 29t11.5 29.5t29.5 11.5t29 -11.5zM407.5 659.5q11.5 -11.5 11.5 -29.5t-11.5 -29t-29.5 -11t-29.5 11t-11.5 29t11.5 29.5t29.5 11.5t29.5 -11.5z" />
    <glyph glyph-name="edotaccent" unicode="&#x117;" horiz-adv-x="559" 
d="M503 229h-397q5 -92 54.5 -143.5t132.5 -51.5q59 0 101.5 24t61.5 68l42 -22q-28 -55 -80 -84.5t-125 -29.5q-111 0 -173.5 69t-62.5 191t60.5 191t169.5 69q102 0 160 -68t58 -180q0 -17 -2 -33zM159 415.5q-47 -50.5 -53 -141.5h352q-5 90 -49.5 141t-121.5 51
q-81 0 -128 -50.5zM314.5 669.5q11.5 -11.5 11.5 -30.5t-11.5 -30.5t-30.5 -11.5t-30.5 11.5t-11.5 30.5t11.5 30.5t30.5 11.5t30.5 -11.5z" />
    <glyph glyph-name="egrave" unicode="&#xe8;" horiz-adv-x="559" 
d="M503 229h-397q5 -92 54.5 -143.5t132.5 -51.5q59 0 101.5 24t61.5 68l42 -22q-28 -55 -80 -84.5t-125 -29.5q-111 0 -173.5 69t-62.5 191t60.5 191t169.5 69q102 0 160 -68t58 -180q0 -17 -2 -33zM159 415.5q-47 -50.5 -53 -141.5h352q-5 90 -49.5 141t-121.5 51
q-81 0 -128 -50.5zM312 583h-42l-93 158h54z" />
    <glyph glyph-name="emacron" unicode="&#x113;" horiz-adv-x="559" 
d="M503 229h-397q5 -92 54.5 -143.5t132.5 -51.5q59 0 101.5 24t61.5 68l42 -22q-28 -55 -80 -84.5t-125 -29.5q-111 0 -173.5 69t-62.5 191t60.5 191t169.5 69q102 0 160 -68t58 -180q0 -17 -2 -33zM159 415.5q-47 -50.5 -53 -141.5h352q-5 90 -49.5 141t-121.5 51
q-81 0 -128 -50.5zM444 600h-320v42h320v-42z" />
    <glyph glyph-name="eogonek" unicode="&#x119;" horiz-adv-x="559" 
d="M503 229h-397q5 -92 54.5 -143.5t132.5 -51.5q59 0 101.5 24t61.5 68l42 -22q-39 -75 -118 -101q-56 -32 -80 -58.5t-24 -56.5q0 -28 19 -44t49 -16q38 0 60 16l11 -34q-29 -19 -76 -19q-46 0 -75.5 25t-29.5 66q0 32 16.5 58t52.5 50h-10q-111 0 -173.5 69t-62.5 191
t60.5 191t169.5 69q102 0 160 -68t58 -180q0 -17 -2 -33zM159 415.5q-47 -50.5 -53 -141.5h352q-5 90 -49.5 141t-121.5 51q-81 0 -128 -50.5z" />
    <glyph glyph-name="f" unicode="f" horiz-adv-x="359" 
d="M173 500h176v-43h-176v-457h-50v457h-100v43h100v84q0 70 39 110.5t110 40.5q54 0 81 -27l-14 -40q-25 22 -63 22q-49 0 -76 -28.5t-27 -82.5v-79z" />
    <glyph glyph-name="g" unicode="g" horiz-adv-x="515" 
d="M463 20q43 -31 43 -83q0 -45 -30.5 -79.5t-84.5 -53.5t-123 -19q-113 0 -173 36.5t-60 96.5q0 39 24 67t66 40q-30 13 -47.5 36t-17.5 51q0 36 23.5 61t63.5 36q-41 21 -63 56.5t-22 81.5q0 74 55.5 118.5t147.5 44.5q64 0 113 -23q6 48 40 76.5t85 28.5l12 -44
q-47 0 -74 -21t-31 -60q57 -46 57 -120t-55.5 -119t-146.5 -45q-31 0 -68 7q-42 -5 -65.5 -24.5t-23.5 -46.5q0 -32 27 -50t81 -18h129q75 0 118 -31zM153 258q41 -33 112 -33q70 0 111 33t41 89t-41 88.5t-111 32.5t-111.5 -32.5t-41.5 -88.5t41 -89zM409.5 -143.5
q51.5 29.5 51.5 74.5q0 36 -32.5 56.5t-94.5 20.5h-129q-57 0 -90.5 -22.5t-33.5 -59.5q0 -46 50 -72.5t142 -26.5q85 0 136.5 29.5z" />
    <glyph glyph-name="gbreve" unicode="&#x11f;" horiz-adv-x="515" 
d="M171 615.5q-37 36.5 -37 98.5h42q0 -42 26 -69.5t68 -27.5q41 0 67 27.5t26 69.5h42q0 -61 -36.5 -98t-98.5 -37t-99 36.5zM463 20q43 -31 43 -83q0 -45 -30.5 -79.5t-84.5 -53.5t-123 -19q-113 0 -173 36.5t-60 96.5q0 39 24 67t66 40q-30 13 -47.5 36t-17.5 51
q0 36 23.5 61t63.5 36q-41 21 -63 56.5t-22 81.5q0 74 55.5 118.5t147.5 44.5q64 0 113 -23q6 48 40 76.5t85 28.5l12 -44q-47 0 -74 -21t-31 -60q57 -46 57 -120t-55.5 -119t-146.5 -45q-31 0 -68 7q-42 -5 -65.5 -24.5t-23.5 -46.5q0 -32 27 -50t81 -18h129q75 0 118 -31z
M153 258q41 -33 112 -33q70 0 111 33t41 89t-41 88.5t-111 32.5t-111.5 -32.5t-41.5 -88.5t41 -89zM409.5 -143.5q51.5 29.5 51.5 74.5q0 36 -32.5 56.5t-94.5 20.5h-129q-57 0 -90.5 -22.5t-33.5 -59.5q0 -46 50 -72.5t142 -26.5q85 0 136.5 29.5z" />
    <glyph glyph-name="h" unicode="h" horiz-adv-x="598" 
d="M461.5 462q52.5 -48 52.5 -137v-325h-50v309q0 79 -39.5 118.5t-106.5 39.5q-48 0 -89 -22.5t-65.5 -64.5t-24.5 -98v-282h-50v730h50v-329q24 53 72.5 81t111.5 28q86 0 138.5 -48z" />
    <glyph glyph-name="i" unicode="i" horiz-adv-x="229" 
d="M83.5 608.5q-11.5 11.5 -11.5 30.5t11.5 30.5t30.5 11.5t30.5 -11.5t11.5 -30.5t-11.5 -30.5t-30.5 -11.5t-30.5 11.5zM139 0h-50v500h50v-500z" />
    <glyph glyph-name="dotlessi" unicode="&#x131;" horiz-adv-x="229" 
d="M139 0h-50v500h50v-500z" />
    <glyph glyph-name="iacute" unicode="&#xed;" horiz-adv-x="229" 
d="M139 0h-50v500h50v-500zM220 741l-94 -158h-41l80 158h55z" />
    <glyph glyph-name="icircumflex" unicode="&#xee;" horiz-adv-x="229" 
d="M139 0h-50v500h50v-500zM207 579l-92 120l-92 -120h-47l110 156h57l111 -156h-47z" />
    <glyph glyph-name="idieresis" unicode="&#xef;" horiz-adv-x="229" 
d="M19 601q-11 11 -11 29t11 29.5t29 11.5q19 0 30 -11.5t11 -29.5t-11 -29t-30 -11q-18 0 -29 11zM150.5 601q-11.5 11 -11.5 29t11.5 29.5t29.5 11.5t29.5 -11.5t11.5 -29.5t-11.5 -29t-29.5 -11t-29.5 11zM139 0h-50v500h50v-500z" />
    <glyph glyph-name="i.loclTRK" horiz-adv-x="229" 
d="M83.5 608.5q-11.5 11.5 -11.5 30.5t11.5 30.5t30.5 11.5t30.5 -11.5t11.5 -30.5t-11.5 -30.5t-30.5 -11.5t-30.5 11.5zM139 0h-50v500h50v-500z" />
    <glyph glyph-name="igrave" unicode="&#xec;" horiz-adv-x="229" 
d="M139 0h-50v500h50v-500zM142 583h-42l-93 158h54z" />
    <glyph glyph-name="ij" unicode="&#x133;" horiz-adv-x="457" 
d="M83.5 608.5q-11.5 11.5 -11.5 30.5t11.5 30.5t30.5 11.5t30.5 -11.5t11.5 -30.5t-11.5 -30.5t-30.5 -11.5t-30.5 11.5zM139 0h-50v500h50v-500zM373 669q12 -12 12 -30q0 -17 -12 -29.5t-30 -12.5q-17 0 -29.5 12.5t-12.5 29.5q0 18 12.5 30t29.5 12q18 0 30 -12z
M368 -57q0 -78 -41 -118t-101 -40q-26 0 -49 7.5t-38 20.5l12 47q13 -12 32.5 -19.5t41.5 -7.5q43 0 68 29t25 85v553h50v-557z" />
    <glyph glyph-name="imacron" unicode="&#x12b;" horiz-adv-x="229" 
d="M207 600h-187v42h187v-42zM139 0h-50v500h50v-500z" />
    <glyph glyph-name="iogonek" unicode="&#x12f;" horiz-adv-x="229" 
d="M83.5 608.5q-11.5 11.5 -11.5 30.5t11.5 30.5t30.5 11.5t30.5 -11.5t11.5 -30.5t-11.5 -30.5t-30.5 -11.5t-30.5 11.5zM182 -187q-15 -12 -32.5 -17t-42.5 -5q-45 0 -73.5 24.5t-28.5 66.5q0 34 20.5 61t63.5 57v500h50v-500q-52 -36 -72 -60.5t-20 -53.5q0 -27 18 -43
t45 -16q35 0 59 18z" />
    <glyph glyph-name="j" unicode="j" horiz-adv-x="229" 
d="M144 669q12 -12 12 -30q0 -17 -12 -29.5t-30 -12.5q-17 0 -29.5 12.5t-12.5 29.5q0 18 12.5 30t29.5 12q18 0 30 -12zM139 -57q0 -78 -41 -118t-101 -40q-26 0 -49 7.5t-38 20.5l12 47q13 -12 32.5 -19.5t41.5 -7.5q43 0 68 29t25 85v553h50v-557z" />
    <glyph glyph-name="k" unicode="k" horiz-adv-x="527" 
d="M257 265l-118 -114v-151h-50v730h50v-516l297 286h65l-207 -200l215 -300h-61z" />
    <glyph glyph-name="l" unicode="l" horiz-adv-x="274" 
d="M135 121q0 -46 14.5 -65t48.5 -19q20 0 34 3t32 11l-7 -48q-28 -13 -66 -13q-54 0 -80 30.5t-26 95.5v614h50v-609z" />
    <glyph glyph-name="lacute" unicode="&#x13a;" horiz-adv-x="278" 
d="M183 930l-54 -133h-40l39 133h55zM135 121q0 -46 14.5 -65t48.5 -19q20 0 34 3t32 11l-7 -48q-28 -13 -66 -13q-54 0 -80 30.5t-26 95.5v614h50v-609z" />
    <glyph glyph-name="lcaron" unicode="&#x13e;" horiz-adv-x="274" 
d="M135 121q0 -46 14.5 -65t48.5 -19q20 0 34 3t32 11l-7 -48q-28 -13 -66 -13q-54 0 -80 30.5t-26 95.5v614h50v-609zM242 533h-35l22 197h49z" />
    <glyph glyph-name="ldot" unicode="&#x140;" horiz-adv-x="354" 
d="M135 121q0 -46 14.5 -65t48.5 -19q20 0 34 3t32 11l-7 -48q-28 -13 -66 -13q-54 0 -80 30.5t-26 95.5v614h50v-609zM321.5 389.5q12.5 -12.5 12.5 -32.5t-12.5 -32t-32.5 -12t-32.5 12.5t-12.5 31.5q0 20 12.5 32.5t32.5 12.5t32.5 -12.5z" />
    <glyph glyph-name="lslash" unicode="&#x142;" horiz-adv-x="328" 
d="M271 40q14 3 32 11l-7 -48q-29 -13 -67 -13q-53 0 -79 30.5t-26 95.5v195l-97 -64v52l97 64v367h50v-333l122 82v-52l-122 -82v-224q0 -46 14.5 -65t48.5 -19q20 0 34 3z" />
    <glyph glyph-name="m" unicode="m" horiz-adv-x="960" 
d="M823.5 463q52.5 -48 52.5 -138v-324h-50v319q0 72 -39 109.5t-105 37.5q-48 0 -87.5 -23t-63 -64t-23.5 -92v-288h-50v319q0 72 -39 109.5t-105 37.5q-46 0 -86 -22t-64.5 -64t-24.5 -97v-283h-50v500h45l3 -100q24 52 73 81t109 29q64 0 112 -30t67 -87q20 55 73.5 86.5
t116.5 31.5q83 0 135.5 -48z" />
    <glyph glyph-name="n" unicode="n" horiz-adv-x="598" 
d="M461.5 462q52.5 -48 52.5 -138v-324h-50v308q0 80 -39 119t-107 39q-48 0 -89 -22t-65.5 -64t-24.5 -98v-282h-50v500h45l2 -101q24 54 73.5 82.5t113.5 28.5q86 0 138.5 -48z" />
    <glyph glyph-name="nacute" unicode="&#x144;" horiz-adv-x="598" 
d="M461.5 462q52.5 -48 52.5 -138v-324h-50v308q0 80 -39 119t-107 39q-48 0 -89 -22t-65.5 -64t-24.5 -98v-282h-50v500h45l2 -101q24 54 73.5 82.5t113.5 28.5q86 0 138.5 -48zM412 741l-94 -158h-41l80 158h55z" />
    <glyph glyph-name="ncaron" unicode="&#x148;" horiz-adv-x="598" 
d="M461.5 462q52.5 -48 52.5 -138v-324h-50v308q0 80 -39 119t-107 39q-48 0 -89 -22t-65.5 -64t-24.5 -98v-282h-50v500h45l2 -101q24 54 73.5 82.5t113.5 28.5q86 0 138.5 -48zM335 583h-58l-110 155h47l92 -119l92 119h47z" />
    <glyph glyph-name="ntilde" unicode="&#xf1;" horiz-adv-x="598" 
d="M461.5 462q52.5 -48 52.5 -138v-324h-50v308q0 80 -39 119t-107 39q-48 0 -89 -22t-65.5 -64t-24.5 -98v-282h-50v500h45l2 -101q24 54 73.5 82.5t113.5 28.5q86 0 138.5 -48zM445 618q-24 -27 -68 -27q-28 0 -45.5 9.5t-38.5 28.5q-16 15 -28.5 22.5t-29.5 7.5
q-27 0 -39.5 -16.5t-19.5 -52.5h-40q7 56 30.5 83t69.5 27q27 0 44.5 -9.5t38.5 -28.5q16 -15 28.5 -22.5t28.5 -7.5q27 0 40 16.5t20 52.5h40q-7 -56 -31 -83z" />
    <glyph glyph-name="o" unicode="o" horiz-adv-x="590" 
d="M469.5 440.5q63.5 -69.5 63.5 -190.5t-63.5 -190.5t-174.5 -69.5t-174.5 69.5t-63.5 190.5t63.5 190.5t174.5 69.5t174.5 -69.5zM157 409q-50 -58 -50 -159t50 -159t138 -58t138 58t50 159t-50 159t-138 58t-138 -58z" />
    <glyph glyph-name="oacute" unicode="&#xf3;" horiz-adv-x="590" 
d="M469.5 440.5q63.5 -69.5 63.5 -190.5t-63.5 -190.5t-174.5 -69.5t-174.5 69.5t-63.5 190.5t63.5 190.5t174.5 69.5t174.5 -69.5zM157 409q-50 -58 -50 -159t50 -159t138 -58t138 58t50 159t-50 159t-138 58t-138 -58zM401 741l-94 -158h-41l80 158h55z" />
    <glyph glyph-name="ocircumflex" unicode="&#xf4;" horiz-adv-x="590" 
d="M469.5 440.5q63.5 -69.5 63.5 -190.5t-63.5 -190.5t-174.5 -69.5t-174.5 69.5t-63.5 190.5t63.5 190.5t174.5 69.5t174.5 -69.5zM157 409q-50 -58 -50 -159t50 -159t138 -58t138 58t50 159t-50 159t-138 58t-138 -58zM387 579l-92 120l-92 -120h-47l110 156h57l111 -156
h-47z" />
    <glyph glyph-name="odieresis" unicode="&#xf6;" horiz-adv-x="590" 
d="M469.5 440.5q63.5 -69.5 63.5 -190.5t-63.5 -190.5t-174.5 -69.5t-174.5 69.5t-63.5 190.5t63.5 190.5t174.5 69.5t174.5 -69.5zM157 409q-50 -58 -50 -159t50 -159t138 -58t138 58t50 159t-50 159t-138 58t-138 -58zM229 659.5q11 -11.5 11 -29.5t-11 -29t-29 -11
t-29.5 11t-11.5 29t11.5 29.5t29.5 11.5t29 -11.5zM418.5 659.5q11.5 -11.5 11.5 -29.5t-11.5 -29t-29.5 -11t-29.5 11t-11.5 29t11.5 29.5t29.5 11.5t29.5 -11.5z" />
    <glyph glyph-name="ograve" unicode="&#xf2;" horiz-adv-x="590" 
d="M469.5 440.5q63.5 -69.5 63.5 -190.5t-63.5 -190.5t-174.5 -69.5t-174.5 69.5t-63.5 190.5t63.5 190.5t174.5 69.5t174.5 -69.5zM157 409q-50 -58 -50 -159t50 -159t138 -58t138 58t50 159t-50 159t-138 58t-138 -58zM323 583h-42l-93 158h54z" />
    <glyph glyph-name="ohungarumlaut" unicode="&#x151;" horiz-adv-x="590" 
d="M469.5 440.5q63.5 -69.5 63.5 -190.5t-63.5 -190.5t-174.5 -69.5t-174.5 69.5t-63.5 190.5t63.5 190.5t174.5 69.5t174.5 -69.5zM157 409q-50 -58 -50 -159t50 -159t138 -58t138 58t50 159t-50 159t-138 58t-138 -58zM222 583h-41l80 158h55zM377 583h-41l80 158h55z" />
    <glyph glyph-name="omacron" unicode="&#x14d;" horiz-adv-x="590" 
d="M469.5 440.5q63.5 -69.5 63.5 -190.5t-63.5 -190.5t-174.5 -69.5t-174.5 69.5t-63.5 190.5t63.5 190.5t174.5 69.5t174.5 -69.5zM157 409q-50 -58 -50 -159t50 -159t138 -58t138 58t50 159t-50 159t-138 58t-138 -58zM455 600h-320v42h320v-42z" />
    <glyph glyph-name="oslash" unicode="&#xf8;" horiz-adv-x="591" 
d="M443 465l48 61h45l-66 -85q63 -69 63 -191q0 -121 -63.5 -190.5t-174.5 -69.5q-85 0 -141 41l-50 -65h-46l67 88q-68 70 -68 196q0 121 63.5 190.5t174.5 69.5q87 0 148 -45zM157 93l30 42l228 292q-49 40 -120 40q-88 0 -138 -58t-50 -159q0 -100 49 -157h1zM433 91
q50 58 50 159q0 93 -44 151h-1l-26 -35l-230 -298q44 -35 113 -35q88 0 138 58z" />
    <glyph glyph-name="otilde" unicode="&#xf5;" horiz-adv-x="590" 
d="M469.5 440.5q63.5 -69.5 63.5 -190.5t-63.5 -190.5t-174.5 -69.5t-174.5 69.5t-63.5 190.5t63.5 190.5t174.5 69.5t174.5 -69.5zM157 409q-50 -58 -50 -159t50 -159t138 -58t138 58t50 159t-50 159t-138 58t-138 -58zM434 618q-24 -27 -68 -27q-28 0 -45.5 9.5
t-38.5 28.5q-16 15 -28.5 22.5t-29.5 7.5q-27 0 -39.5 -16.5t-19.5 -52.5h-40q7 56 30.5 83t69.5 27q27 0 44.5 -9.5t38.5 -28.5q16 -15 28.5 -22.5t28.5 -7.5q27 0 40 16.5t20 52.5h40q-7 -56 -31 -83z" />
    <glyph glyph-name="oe" unicode="&#x153;" horiz-adv-x="988" 
d="M931 229h-397q5 -92 54.5 -143.5t132.5 -51.5q59 0 101.5 24t61.5 68l42 -22q-28 -55 -80 -84.5t-125 -29.5q-77 0 -131 35.5t-80 102.5q-26 -67 -80.5 -102.5t-132.5 -35.5q-112 0 -176 69t-64 191t64 191t176 69q77 0 132 -35.5t81 -101.5q24 66 76.5 101.5t128.5 35.5
q102 0 160 -68t58 -180q0 -17 -2 -33zM434.5 91.5q49.5 57.5 49.5 158.5t-49.5 158.5t-137.5 57.5t-138.5 -57.5t-50.5 -158.5t50.5 -158.5t138.5 -57.5t137.5 57.5zM587 415.5q-47 -50.5 -52 -141.5h351q-5 90 -49.5 141t-121.5 51q-81 0 -128 -50.5z" />
    <glyph glyph-name="p" unicode="p" horiz-adv-x="609" 
d="M490.5 441q61.5 -69 61.5 -191t-61.5 -191t-167.5 -69q-64 0 -112.5 31t-71.5 85v-316h-50v710h45l3 -113q21 58 69.5 90.5t116.5 32.5q106 0 167.5 -69zM453 91.5q49 57.5 49 158.5t-49 158.5t-136 57.5q-78 0 -126 -53t-52 -145v-36q4 -92 52 -145t126 -53
q87 0 136 57.5z" />
    <glyph glyph-name="thorn" unicode="&#xfe;" horiz-adv-x="609" 
d="M490.5 441q61.5 -69 61.5 -191t-61.5 -191t-167.5 -69q-64 0 -112 29t-72 80v-309h-50v940h50v-329q24 51 72 80t112 29q106 0 167.5 -69zM453 91.5q49 57.5 49 158.5t-49 158.5t-136 57.5q-81 0 -129.5 -57t-48.5 -154v-10q0 -98 48.5 -154.5t129.5 -56.5q87 0 136 57.5
z" />
    <glyph glyph-name="q" unicode="q" horiz-adv-x="610" 
d="M521 500v-710h-50v316q-23 -54 -71 -85t-113 -31q-106 0 -167.5 69t-61.5 191t61.5 191t167.5 69q67 0 116 -32.5t70 -89.5l3 112h45zM418.5 86.5q47.5 52.5 52.5 142.5v42q-4 90 -52 142.5t-126 52.5q-87 0 -136 -57.5t-49 -158.5t49 -158.5t136 -57.5q78 0 125.5 52.5z
" />
    <glyph glyph-name="r" unicode="r" horiz-adv-x="378" 
d="M362 493l-13 -47q-23 18 -64 18q-38 0 -71.5 -23.5t-54 -66t-20.5 -94.5v-280h-50v500h42l6 -102q21 53 62.5 82.5t99.5 29.5q40 0 63 -17z" />
    <glyph glyph-name="racute" unicode="&#x155;" horiz-adv-x="378" 
d="M362 493l-13 -47q-23 18 -64 18q-38 0 -71.5 -23.5t-54 -66t-20.5 -94.5v-280h-50v500h42l6 -102q21 53 62.5 82.5t99.5 29.5q40 0 63 -17zM314 741l-94 -158h-41l80 158h55z" />
    <glyph glyph-name="rcaron" unicode="&#x159;" horiz-adv-x="378" 
d="M362 493l-13 -47q-23 18 -64 18q-38 0 -71.5 -23.5t-54 -66t-20.5 -94.5v-280h-50v500h42l6 -102q21 53 62.5 82.5t99.5 29.5q40 0 63 -17zM237 583h-58l-110 155h47l92 -119l92 119h47z" />
    <glyph glyph-name="s" unicode="s" horiz-adv-x="505" 
d="M120 20q-56 30 -77 87l41 27q15 -50 61 -75t113 -25q68 0 106.5 26t38.5 69q0 37 -33 59t-116 37q-105 19 -148 51t-43 91q0 39 24 72t68 52t100 19q79 0 126.5 -30t65.5 -92l-43 -25q-28 103 -149 103q-40 0 -72.5 -13t-51 -34.5t-18.5 -46.5q0 -41 34 -64t120 -38
q102 -17 144 -49t42 -90q0 -64 -54.5 -102.5t-146.5 -38.5q-76 0 -132 30z" />
    <glyph glyph-name="sacute" unicode="&#x15b;" horiz-adv-x="505" 
d="M120 20q-56 30 -77 87l41 27q15 -50 61 -75t113 -25q68 0 106.5 26t38.5 69q0 37 -33 59t-116 37q-105 19 -148 51t-43 91q0 39 24 72t68 52t100 19q79 0 126.5 -30t65.5 -92l-43 -25q-28 103 -149 103q-40 0 -72.5 -13t-51 -34.5t-18.5 -46.5q0 -41 34 -64t120 -38
q102 -17 144 -49t42 -90q0 -64 -54.5 -102.5t-146.5 -38.5q-76 0 -132 30zM358 741l-94 -158h-41l80 158h55z" />
    <glyph glyph-name="scaron" unicode="&#x161;" horiz-adv-x="505" 
d="M120 20q-56 30 -77 87l41 27q15 -50 61 -75t113 -25q68 0 106.5 26t38.5 69q0 37 -33 59t-116 37q-105 19 -148 51t-43 91q0 39 24 72t68 52t100 19q79 0 126.5 -30t65.5 -92l-43 -25q-28 103 -149 103q-40 0 -72.5 -13t-51 -34.5t-18.5 -46.5q0 -41 34 -64t120 -38
q102 -17 144 -49t42 -90q0 -64 -54.5 -102.5t-146.5 -38.5q-76 0 -132 30zM281 583h-58l-110 155h47l92 -119l92 119h47z" />
    <glyph glyph-name="germandbls" unicode="&#xdf;" horiz-adv-x="590" 
d="M488 327.5q47 -55.5 47 -137.5q0 -56 -24.5 -101.5t-70.5 -72t-110 -26.5q-32 0 -61 10.5t-44 27.5l17 39q32 -32 90 -32q71 0 112.5 44t41.5 116q0 80 -49 121.5t-136 41.5h-41v46h41q71 0 113 40.5t42 108.5q0 66 -39 101t-111 35q-87 0 -127 -50t-40 -151v-488h-50
v506q0 229 222 229q65 0 109 -24.5t65.5 -65.5t21.5 -90q0 -44 -18.5 -82.5t-54 -62t-84.5 -24.5v-2q91 -1 138 -56.5z" />
    <glyph glyph-name="longs" unicode="&#x17f;" horiz-adv-x="236" 
d="M85 588q0 71 30.5 109t92.5 38q49 0 71 -24l-11 -40q-12 10 -23 14.5t-28 4.5q-82 0 -82 -106v-584h-50v588z" />
    <glyph glyph-name="t" unicode="t" horiz-adv-x="377" 
d="M365 32q-20 -20 -49 -31t-64 -11q-61 0 -95.5 33.5t-34.5 101.5v332h-100v43h100v125l50 14v-139h188v-43h-188v-325q0 -47 22.5 -71.5t65.5 -24.5q50 0 87 37z" />
    <glyph glyph-name="tcaron" unicode="&#x165;" horiz-adv-x="377" 
d="M283 570h-35l22 197h49zM365 32q-20 -20 -49 -31t-64 -11q-61 0 -95.5 33.5t-34.5 101.5v332h-100v43h100v125l50 14v-139h188v-43h-188v-325q0 -47 22.5 -71.5t65.5 -24.5q50 0 87 37z" />
    <glyph glyph-name="u" unicode="u" horiz-adv-x="593" 
d="M504 500v-500h-45l-2 99q-25 -53 -75 -81t-118 -28q-82 0 -131 45.5t-49 134.5v330h50v-318q0 -148 138 -148q55 0 96.5 24t63.5 65t22 90v287h50z" />
    <glyph glyph-name="uacute" unicode="&#xfa;" horiz-adv-x="593" 
d="M504 500v-500h-45l-2 99q-25 -53 -75 -81t-118 -28q-82 0 -131 45.5t-49 134.5v330h50v-318q0 -148 138 -148q55 0 96.5 24t63.5 65t22 90v287h50zM401 741l-94 -158h-41l80 158h55z" />
    <glyph glyph-name="ucircumflex" unicode="&#xfb;" horiz-adv-x="593" 
d="M504 500v-500h-45l-2 99q-25 -53 -75 -81t-118 -28q-82 0 -131 45.5t-49 134.5v330h50v-318q0 -148 138 -148q55 0 96.5 24t63.5 65t22 90v287h50zM387 579l-92 120l-92 -120h-47l110 156h57l111 -156h-47z" />
    <glyph glyph-name="udieresis" unicode="&#xfc;" horiz-adv-x="593" 
d="M504 500v-500h-45l-2 99q-25 -53 -75 -81t-118 -28q-82 0 -131 45.5t-49 134.5v330h50v-318q0 -148 138 -148q55 0 96.5 24t63.5 65t22 90v287h50zM229 659.5q11 -11.5 11 -29.5t-11 -29t-29 -11t-29.5 11t-11.5 29t11.5 29.5t29.5 11.5t29 -11.5zM418.5 659.5
q11.5 -11.5 11.5 -29.5t-11.5 -29t-29.5 -11t-29.5 11t-11.5 29t11.5 29.5t29.5 11.5t29.5 -11.5z" />
    <glyph glyph-name="ugrave" unicode="&#xf9;" horiz-adv-x="593" 
d="M504 500v-500h-45l-2 99q-25 -53 -75 -81t-118 -28q-82 0 -131 45.5t-49 134.5v330h50v-318q0 -148 138 -148q55 0 96.5 24t63.5 65t22 90v287h50zM323 583h-42l-93 158h54z" />
    <glyph glyph-name="uhungarumlaut" unicode="&#x171;" horiz-adv-x="593" 
d="M504 500v-500h-45l-2 99q-25 -53 -75 -81t-118 -28q-82 0 -131 45.5t-49 134.5v330h50v-318q0 -148 138 -148q55 0 96.5 24t63.5 65t22 90v287h50zM222 583h-41l80 158h55zM377 583h-41l80 158h55z" />
    <glyph glyph-name="umacron" unicode="&#x16b;" horiz-adv-x="593" 
d="M504 500v-500h-45l-2 99q-25 -53 -75 -81t-118 -28q-82 0 -131 45.5t-49 134.5v330h50v-318q0 -148 138 -148q55 0 96.5 24t63.5 65t22 90v287h50zM455 600h-320v42h320v-42z" />
    <glyph glyph-name="uni0123" unicode="&#x123;" horiz-adv-x="515" 
d="M295 587h-55l65 191h38zM463 20q43 -31 43 -83q0 -45 -30.5 -79.5t-84.5 -53.5t-123 -19q-113 0 -173 36.5t-60 96.5q0 39 24 67t66 40q-30 13 -47.5 36t-17.5 51q0 36 23.5 61t63.5 36q-41 21 -63 56.5t-22 81.5q0 74 55.5 118.5t147.5 44.5q64 0 113 -23q6 48 40 76.5
t85 28.5l12 -44q-47 0 -74 -21t-31 -60q57 -46 57 -120t-55.5 -119t-146.5 -45q-31 0 -68 7q-42 -5 -65.5 -24.5t-23.5 -46.5q0 -32 27 -50t81 -18h129q75 0 118 -31zM153 258q41 -33 112 -33q70 0 111 33t41 89t-41 88.5t-111 32.5t-111.5 -32.5t-41.5 -88.5t41 -89z
M409.5 -143.5q51.5 29.5 51.5 74.5q0 36 -32.5 56.5t-94.5 20.5h-129q-57 0 -90.5 -22.5t-33.5 -59.5q0 -46 50 -72.5t142 -26.5q85 0 136.5 29.5z" />
    <glyph glyph-name="uni0137" unicode="&#x137;" horiz-adv-x="527" 
d="M257 265l-118 -114v-151h-50v730h50v-516l297 286h65l-207 -200l215 -300h-61zM272 -233h-40l47 161h53z" />
    <glyph glyph-name="uni013C" unicode="&#x13c;" horiz-adv-x="274" 
d="M135 121q0 -46 14.5 -65t48.5 -19q20 0 34 3t32 11l-7 -48q-28 -13 -66 -13q-54 0 -80 30.5t-26 95.5v614h50v-609zM157 -233h-40l47 161h53z" />
    <glyph glyph-name="uni0146" unicode="&#x146;" horiz-adv-x="598" 
d="M461.5 462q52.5 -48 52.5 -138v-324h-50v308q0 80 -39 119t-107 39q-48 0 -89 -22t-65.5 -64t-24.5 -98v-282h-50v500h45l2 -101q24 54 73.5 82.5t113.5 28.5q86 0 138.5 -48zM292 -233h-40l47 161h53z" />
    <glyph glyph-name="uni0157" unicode="&#x157;" horiz-adv-x="378" 
d="M362 493l-13 -47q-23 18 -64 18q-38 0 -71.5 -23.5t-54 -66t-20.5 -94.5v-280h-50v500h42l6 -102q21 53 62.5 82.5t99.5 29.5q40 0 63 -17zM86 -233h-40l47 161h53z" />
    <glyph glyph-name="uni015F" unicode="&#x15f;" horiz-adv-x="505" 
d="M410 37.5q-43 -37.5 -117 -45.5q66 -42 66 -105q0 -41 -28 -68.5t-75 -27.5q-34 0 -58.5 9t-44.5 29l20 35q29 -35 77 -35q28 0 46.5 17.5t18.5 46.5t-17.5 50.5t-63.5 46.5q-70 4 -120.5 33.5t-70.5 83.5l41 27q15 -50 61 -75t113 -25q68 0 106.5 26t38.5 69
q0 37 -33 59t-116 37q-105 19 -148 51t-43 91q0 39 24 72t68 52t100 19q79 0 126.5 -30t65.5 -92l-43 -25q-28 103 -149 103q-40 0 -72.5 -13t-51 -34.5t-18.5 -46.5q0 -41 34 -64t120 -38q102 -17 144 -49t42 -90q0 -56 -43 -93.5z" />
    <glyph glyph-name="uni0163" unicode="&#x163;" horiz-adv-x="387" 
d="M330 -113q0 -41 -27.5 -68.5t-74.5 -27.5q-35 0 -59.5 9t-43.5 29l20 35q30 -35 78 -35q28 0 45.5 17.5t17.5 46.5q0 30 -19 53t-70 53q-36 12 -55.5 44t-19.5 82v332h-100v43h100v125l50 14v-139h188v-43h-188v-325q0 -47 22.5 -71.5t65.5 -24.5q50 0 87 37l18 -41
q-38 -37 -98 -41q63 -43 63 -104z" />
    <glyph glyph-name="uni0219" unicode="&#x219;" horiz-adv-x="505" 
d="M120 20q-56 30 -77 87l41 27q15 -50 61 -75t113 -25q68 0 106.5 26t38.5 69q0 37 -33 59t-116 37q-105 19 -148 51t-43 91q0 39 24 72t68 52t100 19q79 0 126.5 -30t65.5 -92l-43 -25q-28 103 -149 103q-40 0 -72.5 -13t-51 -34.5t-18.5 -46.5q0 -41 34 -64t120 -38
q102 -17 144 -49t42 -90q0 -64 -54.5 -102.5t-146.5 -38.5q-76 0 -132 30zM226 -233h-40l47 161h53z" />
    <glyph glyph-name="uni021B" unicode="&#x21b;" horiz-adv-x="377" 
d="M365 32q-20 -20 -49 -31t-64 -11q-61 0 -95.5 33.5t-34.5 101.5v332h-100v43h100v125l50 14v-139h188v-43h-188v-325q0 -47 22.5 -71.5t65.5 -24.5q50 0 87 37zM198 -233h-40l47 161h53z" />
    <glyph glyph-name="uogonek" unicode="&#x173;" horiz-adv-x="593" 
d="M521 -187q-30 -22 -77 -22q-46 0 -72 22.5t-26 61.5q0 41 26.5 70.5t88.5 62.5l-5 98q-26 -53 -78 -84.5t-114 -31.5q-82 0 -131 45.5t-49 134.5v330h50v-318q0 -76 35.5 -112t100.5 -36q54 0 96 26t65 68t23 89v283h50v-500q-67 -38 -92.5 -62.5t-25.5 -55.5
q0 -26 17 -40t46 -14q38 0 60 16z" />
    <glyph glyph-name="uring" unicode="&#x16f;" horiz-adv-x="593" 
d="M504 500v-500h-45l-2 99q-25 -53 -75 -81t-118 -28q-82 0 -131 45.5t-49 134.5v330h50v-318q0 -148 138 -148q55 0 96.5 24t63.5 65t22 90v287h50zM367.5 748q29.5 -28 29.5 -72t-29.5 -72.5t-75.5 -28.5t-75.5 28.5t-29.5 72.5t29.5 72t75.5 28t75.5 -28zM243.5 724
q-19.5 -19 -19.5 -48t19.5 -48.5t48.5 -19.5q30 0 49.5 19.5t19.5 48.5t-19.5 48t-49.5 19q-29 0 -48.5 -19z" />
    <glyph glyph-name="v" unicode="v" horiz-adv-x="502" 
d="M485 500l-209 -500h-50l-209 500h56l179 -449l180 449h53z" />
    <glyph glyph-name="w" unicode="w" horiz-adv-x="820" 
d="M787 500l-171 -500h-50l-158 437l-154 -437h-50l-171 500h56l140 -441l156 441h50l155 -441l141 441h56z" />
    <glyph glyph-name="x" unicode="x" horiz-adv-x="504" 
d="M419 0l-169 219l-166 -219h-60l198 256l-188 244h64l157 -204l152 204h60l-184 -241l199 -259h-63z" />
    <glyph glyph-name="y" unicode="y" horiz-adv-x="510" 
d="M249 -92q-28 -68 -62 -95.5t-86 -27.5q-62 0 -95 37l19 43q24 -36 76 -36q35 0 59.5 19.5t45.5 71.5l32 80l-52 124l-159 376h57l153 -379l25 -67l27 72l147 374h54z" />
    <glyph glyph-name="yacute" unicode="&#xfd;" horiz-adv-x="510" 
d="M249 -92q-28 -68 -62 -95.5t-86 -27.5q-62 0 -95 37l19 43q24 -36 76 -36q35 0 59.5 19.5t45.5 71.5l32 80l-52 124l-159 376h57l153 -379l25 -67l27 72l147 374h54zM365 741l-94 -158h-41l80 158h55z" />
    <glyph glyph-name="ydieresis" unicode="&#xff;" horiz-adv-x="510" 
d="M249 -92q-28 -68 -62 -95.5t-86 -27.5q-62 0 -95 37l19 43q24 -36 76 -36q35 0 59.5 19.5t45.5 71.5l32 80l-52 124l-159 376h57l153 -379l25 -67l27 72l147 374h54zM194 659.5q11 -11.5 11 -29.5t-11 -29t-29 -11t-29.5 11t-11.5 29t11.5 29.5t29.5 11.5t29 -11.5z
M383.5 659.5q11.5 -11.5 11.5 -29.5t-11.5 -29t-29.5 -11t-29.5 11t-11.5 29t11.5 29.5t29.5 11.5t29.5 -11.5z" />
    <glyph glyph-name="z" unicode="z" horiz-adv-x="505" 
d="M49 39l294 361l52 58l-79 -1h-270v43h405v-39l-285 -352l-60 -67l90 1h267v-43h-414v39z" />
    <glyph glyph-name="zacute" unicode="&#x17a;" horiz-adv-x="505" 
d="M49 39l294 361l52 58l-79 -1h-270v43h405v-39l-285 -352l-60 -67l90 1h267v-43h-414v39zM351 741l-94 -158h-41l80 158h55z" />
    <glyph glyph-name="zcaron" unicode="&#x17e;" horiz-adv-x="505" 
d="M49 39l294 361l52 58l-79 -1h-270v43h405v-39l-285 -352l-60 -67l90 1h267v-43h-414v39zM274 583h-58l-110 155h47l92 -119l92 119h47z" />
    <glyph glyph-name="zdotaccent" unicode="&#x17c;" horiz-adv-x="505" 
d="M49 39l294 361l52 58l-79 -1h-270v43h405v-39l-285 -352l-60 -67l90 1h267v-43h-414v39zM275.5 669.5q11.5 -11.5 11.5 -30.5t-11.5 -30.5t-30.5 -11.5t-30.5 11.5t-11.5 30.5t11.5 30.5t30.5 11.5t30.5 -11.5z" />
    <glyph glyph-name="germandbls.calt" horiz-adv-x="667" 
d="M572 313.5q53 -44.5 53 -130.5q0 -56 -25 -98.5t-70 -66t-103 -23.5q-56 0 -100 18t-61 44l23 37q18 -24 53.5 -39t80.5 -15q67 0 108.5 39.5t41.5 103.5q0 65 -43 98.5t-126 33.5h-84v43l207 256h-206q-74 0 -120.5 -48t-46.5 -124v-442h-50v443q0 64 27 113.5
t76.5 76.5t113.5 27h265v-47l-212 -255h47q98 0 151 -44.5z" />
    <glyph glyph-name="longs.component" horiz-adv-x="225" 
d="M85 588q0 147 119 147q22 0 35.5 -4.5t25.5 -14.5l-7 -45q-11 10 -21 14.5t-26 4.5q-76 0 -76 -106v-584h-50v588z" />
    <glyph glyph-name="iacute_j.loclNLD" horiz-adv-x="457" 
d="M220 741l-94 -158h-41l80 158h55zM453 741l-94 -158h-41l80 158h55zM139 0h-50v500h50v-500zM368 -57q0 -78 -41.5 -118t-101.5 -40q-26 0 -49 7.5t-37 20.5l11 47q14 -12 33.5 -19.5t41.5 -7.5q43 0 68 29.5t25 84.5v553h50v-557z" />
    <glyph glyph-name="g.ss01" horiz-adv-x="609" 
d="M520 500v-475q0 -117 -62.5 -178.5t-180.5 -61.5q-82 0 -137 32t-67 92l48 21q9 -49 50.5 -75t112.5 -26q85 0 135 50t50 135v89q-24 -50 -72 -79t-112 -29q-106 0 -167 68.5t-61 189.5q0 120 61 188.5t167 68.5q66 0 114.5 -30t71.5 -83l6 103h43zM421 95q48 56 48 153
v12q0 95 -48 150.5t-129 55.5q-87 0 -136 -57t-49 -156q0 -100 49 -157t136 -57q81 0 129 56z" />
    <glyph glyph-name="gbreve.ss01" horiz-adv-x="609" 
d="M520 500v-475q0 -117 -62.5 -178.5t-180.5 -61.5q-82 0 -137 32t-67 92l48 21q9 -49 50.5 -75t112.5 -26q85 0 135 50t50 135v89q-24 -50 -72 -79t-112 -29q-106 0 -167 68.5t-61 189.5q0 120 61 188.5t167 68.5q66 0 114.5 -30t71.5 -83l6 103h43zM421 95q48 56 48 153
v12q0 95 -48 150.5t-129 55.5q-87 0 -136 -57t-49 -156q0 -100 49 -157t136 -57q81 0 129 56zM383 615.5q-37 -36.5 -99 -36.5q-61 0 -98 37t-37 98h42q0 -42 26 -69.5t67 -27.5q42 0 68 27.5t26 69.5h42q0 -62 -37 -98.5z" />
    <glyph glyph-name="gcommaaccent.ss01" horiz-adv-x="609" 
d="M328 587h-56l66 191h38zM520 500v-475q0 -117 -62.5 -178.5t-180.5 -61.5q-82 0 -137 32t-67 92l48 21q9 -49 50.5 -75t112.5 -26q85 0 135 50t50 135v89q-24 -50 -72 -79t-112 -29q-106 0 -167 68.5t-61 189.5q0 120 61 188.5t167 68.5q66 0 114.5 -30t71.5 -83l6 103
h43zM421 95q48 56 48 153v12q0 95 -48 150.5t-129 55.5q-87 0 -136 -57t-49 -156q0 -100 49 -157t136 -57q81 0 129 56z" />
    <glyph glyph-name="l.ss02" horiz-adv-x="234" 
d="M142 0h-50v730h50v-730z" />
    <glyph glyph-name="lacute.ss02" horiz-adv-x="234" 
d="M189 930l-54 -133h-40l39 133h55zM142 0h-50v730h50v-730z" />
    <glyph glyph-name="lcaron.ss02" horiz-adv-x="243" 
d="M142 0h-50v730h50v-730zM247 533h-35l22 197h49z" />
    <glyph glyph-name="lcommaaccent.ss02" horiz-adv-x="234" 
d="M142 0h-50v730h50v-730zM87 -233h-40l47 161h53z" />
    <glyph glyph-name="ldot.ss02" horiz-adv-x="352" 
d="M142 0h-50v730h50v-730zM325.5 389.5q12.5 -12.5 12.5 -32.5t-12.5 -32t-32.5 -12t-32.5 12t-12.5 32t12.5 32.5t32.5 12.5t32.5 -12.5z" />
    <glyph glyph-name="lslash.ss02" horiz-adv-x="271" 
d="M240 397l-77 -51v-346h-50v312l-77 -51v52l77 51v366h50v-332l77 51v-52z" />
    <glyph glyph-name="n.swsh" horiz-adv-x="614" 
d="M594 -47.5q11 2.5 23 11.5l-7 -40q-20 -14 -58 -14q-44 0 -66 26t-22 71v301q0 80 -39 119t-107 39q-48 0 -89 -22t-65.5 -64t-24.5 -98v-282h-50v500h45l2 -101q24 54 73.5 82.5t113.5 28.5q86 0 138.5 -48t52.5 -138v-319q0 -55 52 -55q17 0 28 2.5z" />
    <glyph glyph-name="nacute.swsh" horiz-adv-x="614" 
d="M594 -47.5q11 2.5 23 11.5l-7 -40q-20 -14 -58 -14q-44 0 -66 26t-22 71v301q0 80 -39 119t-107 39q-48 0 -89 -22t-65.5 -64t-24.5 -98v-282h-50v500h45l2 -101q24 54 73.5 82.5t113.5 28.5q86 0 138.5 -48t52.5 -138v-319q0 -55 52 -55q17 0 28 2.5zM412 741l-94 -158
h-41l80 158h55z" />
    <glyph glyph-name="ncaron.swsh" horiz-adv-x="614" 
d="M594 -47.5q11 2.5 23 11.5l-7 -40q-20 -14 -58 -14q-44 0 -66 26t-22 71v301q0 80 -39 119t-107 39q-48 0 -89 -22t-65.5 -64t-24.5 -98v-282h-50v500h45l2 -101q24 54 73.5 82.5t113.5 28.5q86 0 138.5 -48t52.5 -138v-319q0 -55 52 -55q17 0 28 2.5zM335 583h-58
l-110 155h47l92 -119l92 119h47z" />
    <glyph glyph-name="ncommaaccent.swsh" horiz-adv-x="614" 
d="M594 -47.5q11 2.5 23 11.5l-7 -40q-20 -14 -58 -14q-44 0 -66 26t-22 71v301q0 80 -39 119t-107 39q-48 0 -89 -22t-65.5 -64t-24.5 -98v-282h-50v500h45l2 -101q24 54 73.5 82.5t113.5 28.5q86 0 138.5 -48t52.5 -138v-319q0 -55 52 -55q17 0 28 2.5zM283 -233h-40
l47 161h53z" />
    <glyph glyph-name="ntilde.swsh" horiz-adv-x="614" 
d="M594 -47.5q11 2.5 23 11.5l-7 -40q-20 -14 -58 -14q-44 0 -66 26t-22 71v301q0 80 -39 119t-107 39q-48 0 -89 -22t-65.5 -64t-24.5 -98v-282h-50v500h45l2 -101q24 54 73.5 82.5t113.5 28.5q86 0 138.5 -48t52.5 -138v-319q0 -55 52 -55q17 0 28 2.5zM445 618
q-24 -27 -68 -27q-28 0 -45.5 9.5t-38.5 28.5q-16 15 -28.5 22.5t-29.5 7.5q-27 0 -39.5 -16.5t-19.5 -52.5h-40q7 56 30.5 83t69.5 27q27 0 44.5 -9.5t38.5 -28.5q16 -15 28.5 -22.5t28.5 -7.5q27 0 40 16.5t20 52.5h40q-7 -56 -31 -83z" />
    <glyph glyph-name="r.swsh" horiz-adv-x="458" 
d="M339.5 501.5q23.5 -8.5 51.5 -26.5q21 -13 39.5 -21.5t42.5 -11.5l-27 -37q-22 4 -38.5 11t-38.5 20q-22 14 -41 21t-46 7q-61 0 -101.5 -42.5t-41.5 -121.5v-300h-50v500h42l6 -88q19 48 55.5 73t87.5 25q36 0 59.5 -8.5z" />
    <glyph glyph-name="racute.swsh" horiz-adv-x="458" 
d="M339.5 501.5q23.5 -8.5 51.5 -26.5q21 -13 39.5 -21.5t42.5 -11.5l-27 -37q-22 4 -38.5 11t-38.5 20q-22 14 -41 21t-46 7q-61 0 -101.5 -42.5t-41.5 -121.5v-300h-50v500h42l6 -88q19 48 55.5 73t87.5 25q36 0 59.5 -8.5zM314 741l-94 -158h-41l80 158h55z" />
    <glyph glyph-name="rcaron.swsh" horiz-adv-x="458" 
d="M339.5 501.5q23.5 -8.5 51.5 -26.5q21 -13 39.5 -21.5t42.5 -11.5l-27 -37q-22 4 -38.5 11t-38.5 20q-22 14 -41 21t-46 7q-61 0 -101.5 -42.5t-41.5 -121.5v-300h-50v500h42l6 -88q19 48 55.5 73t87.5 25q36 0 59.5 -8.5zM237 583h-58l-110 155h47l92 -119l92 119h47z
" />
    <glyph glyph-name="rcommaaccent.swsh" horiz-adv-x="458" 
d="M339.5 501.5q23.5 -8.5 51.5 -26.5q21 -13 39.5 -21.5t42.5 -11.5l-27 -37q-22 4 -38.5 11t-38.5 20q-22 14 -41 21t-46 7q-61 0 -101.5 -42.5t-41.5 -121.5v-300h-50v500h42l6 -88q19 48 55.5 73t87.5 25q36 0 59.5 -8.5zM86 -233h-40l47 161h53z" />
    <glyph glyph-name="t.swsh" horiz-adv-x="425" 
d="M172 457v-325q0 -47 22.5 -71.5t65.5 -24.5q50 0 87 37l18 -41q-20 -20 -49 -31t-64 -11q-61 0 -95.5 33.5t-34.5 101.5v332h-100v43h100v125l50 14v-139h155q60 0 96 11.5t57 39.5l22 -32q-24 -32 -64 -47t-110 -15h-156z" />
    <glyph glyph-name="tcaron.swsh" horiz-adv-x="425" 
d="M283 570h-35l22 197h49zM172 457v-325q0 -47 22.5 -71.5t65.5 -24.5q50 0 87 37l18 -41q-20 -20 -49 -31t-64 -11q-61 0 -95.5 33.5t-34.5 101.5v332h-100v43h100v125l50 14v-139h155q60 0 96 11.5t57 39.5l22 -32q-24 -32 -64 -47t-110 -15h-156z" />
    <glyph glyph-name="uni0163.swsh" horiz-adv-x="377" 
d="M172 457v-325q0 -47 22.5 -71.5t65.5 -24.5q50 0 87 37l18 -41q-34 -33 -87 -40q65 -43 65 -105q0 -41 -28 -68.5t-74 -27.5q-35 0 -60 9t-44 29l20 35q30 -35 78 -35q28 0 46 17.5t18 46.5t-17 51t-63 49q-46 8 -71.5 41t-25.5 91v332h-100v43h100v125l50 14v-139h155
q60 0 96 11.5t57 39.5l22 -32q-24 -32 -64 -47t-110 -15h-156z" />
    <glyph glyph-name="uni021B.swsh" horiz-adv-x="425" 
d="M172 457v-325q0 -47 22.5 -71.5t65.5 -24.5q50 0 87 37l18 -41q-20 -20 -49 -31t-64 -11q-61 0 -95.5 33.5t-34.5 101.5v332h-100v43h100v125l50 14v-139h155q60 0 96 11.5t57 39.5l22 -32q-24 -32 -64 -47t-110 -15h-156zM198 -233h-40l47 161h53z" />
    <glyph glyph-name="y.swsh" horiz-adv-x="535" 
d="M6 -178l19 43q24 -36 76 -36q35 0 59.5 19.5t45.5 71.5l32 80l-52 124l-159 376h57l153 -379l25 -67l27 72l137 342q24 60 53.5 86t73.5 26q24 0 40 -5.5t30 -18.5l-10 -35q-13 10 -24 14t-27 4q-32 0 -53 -19.5t-37 -60.5l-223 -551q-28 -68 -62 -95.5t-86 -27.5
q-62 0 -95 37z" />
    <glyph glyph-name="yacute.swsh" horiz-adv-x="535" 
d="M6 -178l19 43q24 -36 76 -36q35 0 59.5 19.5t45.5 71.5l32 80l-52 124l-159 376h57l153 -379l25 -67l27 72l137 342q24 60 53.5 86t73.5 26q24 0 40 -5.5t30 -18.5l-10 -35q-13 10 -24 14t-27 4q-32 0 -53 -19.5t-37 -60.5l-223 -551q-28 -68 -62 -95.5t-86 -27.5
q-62 0 -95 37zM365 741l-94 -158h-41l80 158h55z" />
    <glyph glyph-name="ydieresis.swsh" horiz-adv-x="535" 
d="M6 -178l19 43q24 -36 76 -36q35 0 59.5 19.5t45.5 71.5l32 80l-52 124l-159 376h57l153 -379l25 -67l27 72l137 342q24 60 53.5 86t73.5 26q24 0 40 -5.5t30 -18.5l-10 -35q-13 10 -24 14t-27 4q-32 0 -53 -19.5t-37 -60.5l-223 -551q-28 -68 -62 -95.5t-86 -27.5
q-62 0 -95 37zM194 659.5q11 -11.5 11 -29.5t-11 -29t-29 -11t-29.5 11t-11.5 29t11.5 29.5t29.5 11.5t29 -11.5zM383.5 659.5q11.5 -11.5 11.5 -29.5t-11.5 -29t-29.5 -11t-29.5 11t-11.5 29t11.5 29.5t29.5 11.5t29.5 -11.5z" />
    <glyph glyph-name="c_t" horiz-adv-x="868" 
d="M856 32q-20 -20 -49 -31t-64 -11q-61 0 -96 33.5t-35 101.5v436q0 129 -90 129q-89 0 -89 -117q0 -40 15.5 -86.5t46.5 -111.5l-47 -22q-17 54 -57 83.5t-99 29.5q-87 0 -136 -57.5t-49 -158.5q0 -102 48.5 -159t135.5 -57q62 0 106 31.5t57 87.5l45 -15
q-19 -69 -74.5 -108.5t-132.5 -39.5q-111 0 -173 69t-62 191t62.5 191t173.5 69q70 0 116 -31q-21 47 -21 101q0 78 38 115.5t99 37.5q63 0 100 -38t37 -113v-82h189v-43h-189v-325q0 -47 23 -71.5t66 -24.5q51 0 86 37z" />
    <glyph glyph-name="s_t" horiz-adv-x="824" 
d="M812 32q-19 -19 -48.5 -30.5t-64.5 -11.5q-60 0 -95 34t-35 101v436q0 65 -24 97t-68 32q-42 0 -64.5 -29t-22.5 -85q0 -79 59 -187l-42 -20q-30 97 -152 97q-40 0 -72.5 -13t-51 -34.5t-18.5 -46.5q0 -41 34 -63.5t120 -38.5q102 -17 144 -49t42 -90q0 -64 -54.5 -102.5
t-146.5 -38.5q-76 0 -132 30t-77 87l41 27q15 -50 61 -75t113 -25q68 0 106.5 26t38.5 69q0 37 -32.5 58.5t-116.5 36.5q-105 19 -148 52t-43 91q0 39 24 72t68 52t100 19q68 0 113 -24q-25 52 -25 90q0 78 37 117.5t100 39.5t101 -38.5t38 -112.5v-82h188v-43h-188v-325
q0 -47 22.5 -71.5t65.5 -24.5q50 0 87 37z" />
    <glyph glyph-name="longs_i" horiz-adv-x="453" 
d="M85 588q0 147 119 147q22 0 35.5 -4.5t25.5 -14.5l-7 -45q-11 10 -21 14.5t-26 4.5q-76 0 -76 -106v-584h-50v588zM308.5 608.5q-11.5 11.5 -11.5 30.5t11.5 30.5t30.5 11.5t30.5 -11.5t11.5 -30.5t-11.5 -30.5t-30.5 -11.5t-30.5 11.5zM364 0h-50v500h50v-500z" />
    <glyph glyph-name="longs_l" horiz-adv-x="510" 
d="M85 588q0 71 30.5 109t92.5 38q49 0 71 -24l-11 -40q-12 10 -23 14.5t-28 4.5q-82 0 -82 -106v-584h-50v588zM371 121q0 -45 15 -64.5t48 -19.5q20 0 34 3t32 11l-7 -48q-28 -13 -66 -13q-54 0 -80 30.5t-26 95.5v614h50v-609z" />
    <glyph glyph-name="longs_s" horiz-adv-x="731" 
d="M85 588q0 71 30.5 109t92.5 38q49 0 71 -24l-11 -40q-12 10 -23 14.5t-28 4.5q-82 0 -82 -106v-584h-50v588zM346 20q-56 30 -77 87l41 27q15 -50 61 -75t113 -25q68 0 106.5 26t38.5 69q0 37 -33 59t-116 37q-105 19 -148 51t-43 91q0 39 24 72t68 52t100 19
q79 0 126.5 -30t65.5 -92l-43 -25q-28 103 -149 103q-40 0 -72.5 -13t-51 -34.5t-18.5 -46.5q0 -41 34 -64t120 -38q102 -17 144 -49t42 -90q0 -64 -54.5 -102.5t-146.5 -38.5q-76 0 -132 30z" />
    <glyph glyph-name="fl.ss02" horiz-adv-x="593" 
d="M173 500h176v-43h-176v-457h-50v457h-100v43h100v84q0 70 39 110.5t110 40.5q54 0 81 -27l-14 -40q-25 22 -63 22q-49 0 -76 -28.5t-27 -82.5v-79zM501 0h-50v730h50v-730z" />
    <glyph glyph-name="longs_l.ss02" horiz-adv-x="464" 
d="M85 588q0 71 30.5 109t92.5 38q49 0 71 -24l-11 -40q-12 10 -23 14.5t-28 4.5q-82 0 -82 -106v-584h-50v588zM371 0h-50v730h50v-730z" />
    <glyph glyph-name="Gcommaaccent.sc" horiz-adv-x="627" 
d="M563 276v-276h-40l-2 110q-23 -57 -73.5 -87.5t-127.5 -30.5q-80 0 -139.5 35t-92 100t-32.5 153t34 153t95 100t141 35q91 0 148 -34.5t86 -105.5l-45 -24q-20 60 -68 90.5t-120 30.5q-64 0 -114.5 -29.5t-78.5 -85t-28 -130.5q0 -115 58.5 -180t159.5 -65
q64 0 107.5 26t64 68.5t20.5 92.5v12h-196v42h243zM308 -233h-40l47 161h53z" />
    <glyph glyph-name="Kcommaaccent.sc" horiz-adv-x="548" 
d="M257 300l-115 -112v-188h-50v560h50v-312l316 312h63l-227 -227l234 -333h-62zM266 -233h-40l47 161h53z" />
    <glyph glyph-name="Lcommaaccent.sc" horiz-adv-x="540" 
d="M491 43v-43h-399v560h50v-517h349zM274 -233h-40l47 161h53z" />
    <glyph glyph-name="Ncommaaccent.sc" horiz-adv-x="641" 
d="M549 0h-67l-305 445l-38 62h-1l3 -61v-446h-49v560h67l301 -440l42 -67h1l-3 61v446h49v-560zM291 -233h-40l47 161h53z" />
    <glyph glyph-name="Rcommaaccent.sc" horiz-adv-x="575" 
d="M480 0l-163 240h-2h-173v-240h-50v560h223q90 0 141.5 -42.5t51.5 -117.5q0 -62 -36 -102.5t-101 -52.5l168 -245h-59zM142 283h172q70 0 107 30t37 87q0 56 -37 86.5t-107 30.5h-172v-234zM278 -233h-40l47 161h53z" />
    <glyph glyph-name="Scedilla.sc" horiz-adv-x="555" 
d="M454 40q-53 -41 -141 -47q67 -43 67 -106q0 -41 -28 -68.5t-75 -27.5q-34 0 -58.5 9t-44.5 29l20 35q29 -35 77 -35q28 0 46.5 17.5t18.5 46.5q0 30 -18.5 52t-68.5 48q-79 7 -132.5 40.5t-74.5 90.5l39 33q18 -60 71.5 -91t133.5 -31q76 0 123.5 28.5t47.5 78.5
q0 36 -24 57.5t-59.5 32t-95.5 21.5q-71 14 -114 27.5t-73 44t-30 83.5q0 43 26 80t75.5 58.5t114.5 21.5q166 0 223 -122l-39 -33q-22 59 -66.5 85.5t-116.5 26.5q-76 0 -121.5 -32.5t-45.5 -80.5q0 -36 24 -58t59.5 -32.5t96.5 -22.5q71 -13 113.5 -27t72.5 -44t30 -83
q0 -64 -53 -105z" />
    <glyph glyph-name="Scommaaccent.sc" horiz-adv-x="555" 
d="M500 446l-39 -33q-22 59 -66.5 85.5t-116.5 26.5q-76 0 -121.5 -32.5t-45.5 -80.5q0 -36 24 -58t59.5 -32.5t96.5 -22.5q71 -13 113.5 -27t72.5 -44t30 -83q0 -45 -28 -80t-78 -54t-115 -19q-94 0 -157.5 34t-86.5 98l39 33q18 -60 71.5 -91t133.5 -31q76 0 123.5 28.5
t47.5 78.5q0 36 -24 57.5t-59.5 32t-95.5 21.5q-71 14 -114 27.5t-73 44t-30 83.5q0 43 26 80t75.5 58.5t114.5 21.5q166 0 223 -122zM259 -233h-40l47 161h53z" />
    <glyph glyph-name="uni0162.sc" horiz-adv-x="521" 
d="M286 517v-511q40 -26 58.5 -54.5t18.5 -64.5q0 -41 -29 -68.5t-76 -27.5q-34 0 -58 9.5t-44 29.5l20 34q32 -35 76 -35q29 0 47 18t18 47q0 31 -18 53.5t-63 52.5v517h-214v43h477v-43h-213z" />
    <glyph glyph-name="uni021A.sc" horiz-adv-x="521" 
d="M499 517h-213v-517h-50v517h-214v43h477v-43zM224 -233h-40l47 161h53z" />
    <glyph glyph-name="a.sc" horiz-adv-x="562" 
d="M418 174h-275l-72 -174h-52l232 560h59l233 -560h-53zM401 217l-100 239l-20 58l-21 -58l-99 -239h240z" />
    <glyph glyph-name="aacute.sc" horiz-adv-x="562" 
d="M299 643h-41l65 148h59zM418 174h-275l-72 -174h-52l232 560h59l233 -560h-53zM401 217l-100 239l-20 58l-21 -58l-99 -239h240z" />
    <glyph glyph-name="abreve.sc" horiz-adv-x="562" 
d="M418 174h-275l-72 -174h-52l232 560h59l233 -560h-53zM401 217l-100 239l-20 58l-21 -58l-99 -239h240zM379 675.5q-37 -36.5 -99 -36.5q-61 0 -98 37t-37 98h42q0 -42 26 -69.5t67 -27.5q42 0 68 27.5t26 69.5h42q0 -62 -37 -98.5z" />
    <glyph glyph-name="acircumflex.sc" horiz-adv-x="562" 
d="M188 639h-47l111 156h58l111 -156h-46l-94 122zM418 174h-275l-72 -174h-52l232 560h59l233 -560h-53zM401 217l-100 239l-20 58l-21 -58l-99 -239h240z" />
    <glyph glyph-name="adieresis.sc" horiz-adv-x="562" 
d="M418 174h-275l-72 -174h-52l232 560h59l233 -560h-53zM401 217l-100 239l-20 58l-21 -58l-99 -239h240zM215 719.5q11 -11.5 11 -29.5t-11 -29t-29 -11t-29.5 11t-11.5 29t11.5 29.5t29.5 11.5t29 -11.5zM404.5 719.5q11.5 -11.5 11.5 -29.5t-11.5 -29t-29.5 -11
t-29.5 11t-11.5 29t11.5 29.5t29.5 11.5t29.5 -11.5z" />
    <glyph glyph-name="agrave.sc" horiz-adv-x="562" 
d="M256 643l-83 148h59l65 -148h-41zM418 174h-275l-72 -174h-52l232 560h59l233 -560h-53zM401 217l-100 239l-20 58l-21 -58l-99 -239h240z" />
    <glyph glyph-name="amacron.sc" horiz-adv-x="562" 
d="M418 174h-275l-72 -174h-52l232 560h59l233 -560h-53zM401 217l-100 239l-20 58l-21 -58l-99 -239h240zM441 660h-320v42h320v-42z" />
    <glyph glyph-name="aogonek.sc" horiz-adv-x="562" 
d="M555 -189q-28 -20 -77 -20q-47 0 -75.5 24t-28.5 68q0 41 26.5 72t85.5 55l-68 164h-275l-72 -174h-52l232 560h59l233 -560q-71 -25 -99.5 -52t-28.5 -62q0 -28 19 -43t49 -15q39 0 61 16zM401 217l-100 239l-20 58l-21 -58l-99 -239h240z" />
    <glyph glyph-name="aring.sc" horiz-adv-x="562" 
d="M418 174h-275l-72 -174h-52l222 536q-28 10 -44.5 33.5t-16.5 56.5q0 42 28 68.5t73 26.5t72.5 -26.5t27.5 -68.5q0 -33 -16 -56.5t-45 -33.5l223 -536h-53zM234.5 580.5q17.5 -17.5 46.5 -17.5q28 0 46 17.5t18 45.5t-18 45t-46 17q-29 0 -46.5 -17t-17.5 -45
t17.5 -45.5zM401 217l-100 239l-20 58l-21 -58l-99 -239h240z" />
    <glyph glyph-name="atilde.sc" horiz-adv-x="562" 
d="M418 174h-275l-72 -174h-52l232 560h59l233 -560h-53zM401 217l-100 239l-20 58l-21 -58l-99 -239h240zM420 678q-24 -27 -68 -27q-28 0 -45.5 9.5t-38.5 28.5q-16 15 -28.5 22.5t-29.5 7.5q-27 0 -39.5 -16.5t-19.5 -52.5h-40q7 56 30.5 83t69.5 27q27 0 44.5 -9.5
t38.5 -28.5q16 -15 28.5 -22.5t28.5 -7.5q27 0 40 16.5t20 52.5h40q-7 -56 -31 -83z" />
    <glyph glyph-name="ae.sc" horiz-adv-x="792" 
d="M754 43v-43h-387v196h-203l-112 -196h-52l323 560h418v-43h-325v-212h254v-43h-254v-219h338zM367 240v277h-19l-159 -277h178z" />
    <glyph glyph-name="b.sc" horiz-adv-x="570" 
d="M92 560h216q95 0 142 -38t47 -110q0 -50 -28 -84t-79 -44v-1q60 -7 92 -43.5t32 -90.5q0 -72 -53 -110.5t-153 -38.5h-216v560zM311 303q136 0 136 107q0 53 -34.5 80t-101.5 27h-169v-214h169zM315 43q74 0 111.5 27.5t37.5 81.5t-37.5 81.5t-111.5 27.5h-173v-218h173z
" />
    <glyph glyph-name="c.sc" horiz-adv-x="597" 
d="M476 32q-63 -40 -155 -40q-79 0 -139 35t-93 100t-33 153t33 153t93.5 100t140.5 35q90 0 148.5 -37.5t81.5 -112.5l-47 -21q-19 66 -63.5 97t-120.5 31q-64 0 -113 -29.5t-76 -85t-27 -130.5t27 -130.5t75.5 -85t111.5 -29.5q79 0 128 32.5t64 94.5l48 -16
q-21 -74 -84 -114z" />
    <glyph glyph-name="cacute.sc" horiz-adv-x="597" 
d="M420 791l-83 -148h-41l65 148h59zM476 32q-63 -40 -155 -40q-79 0 -139 35t-93 100t-33 153t33 153t93.5 100t140.5 35q90 0 148.5 -37.5t81.5 -112.5l-47 -21q-19 66 -63.5 97t-120.5 31q-64 0 -113 -29.5t-76 -85t-27 -130.5t27 -130.5t75.5 -85t111.5 -29.5
q79 0 128 32.5t64 94.5l48 -16q-21 -74 -84 -114z" />
    <glyph glyph-name="ccaron.sc" horiz-adv-x="597" 
d="M348 640h-58l-111 156h47l93 -122l94 122h46zM476 32q-63 -40 -155 -40q-79 0 -139 35t-93 100t-33 153t33 153t93.5 100t140.5 35q90 0 148.5 -37.5t81.5 -112.5l-47 -21q-19 66 -63.5 97t-120.5 31q-64 0 -113 -29.5t-76 -85t-27 -130.5t27 -130.5t75.5 -85
t111.5 -29.5q79 0 128 32.5t64 94.5l48 -16q-21 -74 -84 -114z" />
    <glyph glyph-name="ccedilla.sc" horiz-adv-x="597" 
d="M489.5 41q-52.5 -39 -129.5 -47q69 -43 69 -107q0 -41 -28 -68.5t-75 -27.5q-34 0 -58.5 9t-44.5 29l20 35q29 -35 77 -35q28 0 46.5 17.5t18.5 46.5q0 30 -18.5 52t-67.5 48q-73 4 -128 40.5t-85 100t-30 146.5q0 88 33 153t93.5 100t140.5 35q90 0 148.5 -37.5
t81.5 -112.5l-47 -21q-19 66 -63.5 97t-120.5 31q-64 0 -113 -29.5t-76 -85t-27 -130.5t27 -130.5t75.5 -85t111.5 -29.5q79 0 128 32.5t64 94.5l48 -16q-18 -66 -70.5 -105z" />
    <glyph glyph-name="d.sc" horiz-adv-x="629" 
d="M498 489q75 -71 75 -205q0 -138 -75 -211t-216 -73h-190v560h190q141 0 216 -71zM462 105q61 62 61 179q0 113 -61 173t-177 60h-143v-474h143q116 0 177 62z" />
    <glyph glyph-name="eth.sc" horiz-adv-x="641" 
d="M513 489q75 -71 75 -205q0 -138 -75 -211t-215 -73h-191v264h-90v37h90v259h191q140 0 215 -71zM477 105q61 62 61 179q0 113 -61 173t-176 60h-144v-216h170v-37h-170v-221h144q115 0 176 62z" />
    <glyph glyph-name="dcaron.sc" horiz-adv-x="629" 
d="M256 640l-111 156h47l93 -122l94 122h46l-111 -156h-58zM498 489q75 -71 75 -205q0 -138 -75 -211t-216 -73h-190v560h190q141 0 216 -71zM462 105q61 62 61 179q0 113 -61 173t-177 60h-143v-474h143q116 0 177 62z" />
    <glyph glyph-name="dcroat.sc" horiz-adv-x="641" 
d="M513 489q75 -71 75 -205q0 -138 -75 -211t-215 -73h-191v264h-90v37h90v259h191q140 0 215 -71zM477 105q61 62 61 179q0 113 -61 173t-176 60h-144v-216h170v-37h-170v-221h144q115 0 176 62z" />
    <glyph glyph-name="e.sc" horiz-adv-x="548" 
d="M510 43v-43h-418v560h404v-43h-354v-211h280v-43h-280v-220h368z" />
    <glyph glyph-name="eacute.sc" horiz-adv-x="548" 
d="M306 643h-41l65 148h59zM510 43v-43h-418v560h404v-43h-354v-211h280v-43h-280v-220h368z" />
    <glyph glyph-name="ecaron.sc" horiz-adv-x="548" 
d="M260 640l-111 156h47l93 -122l94 122h46l-111 -156h-58zM510 43v-43h-418v560h404v-43h-354v-211h280v-43h-280v-220h368z" />
    <glyph glyph-name="ecircumflex.sc" horiz-adv-x="548" 
d="M196 639h-47l111 156h58l111 -156h-46l-94 122zM510 43v-43h-418v560h404v-43h-354v-211h280v-43h-280v-220h368z" />
    <glyph glyph-name="edieresis.sc" horiz-adv-x="548" 
d="M510 43v-43h-418v560h404v-43h-354v-211h280v-43h-280v-220h368zM223 719.5q11 -11.5 11 -29.5t-11 -29t-29 -11t-29.5 11t-11.5 29t11.5 29.5t29.5 11.5t29 -11.5zM412.5 719.5q11.5 -11.5 11.5 -29.5t-11.5 -29t-29.5 -11t-29.5 11t-11.5 29t11.5 29.5t29.5 11.5
t29.5 -11.5z" />
    <glyph glyph-name="edotaccent.sc" horiz-adv-x="548" 
d="M510 43v-43h-418v560h404v-43h-354v-211h280v-43h-280v-220h368zM319.5 729.5q11.5 -11.5 11.5 -30.5t-11.5 -30.5t-30.5 -11.5t-30.5 11.5t-11.5 30.5t11.5 30.5t30.5 11.5t30.5 -11.5z" />
    <glyph glyph-name="egrave.sc" horiz-adv-x="548" 
d="M274 643l-83 148h59l65 -148h-41zM510 43v-43h-418v560h404v-43h-354v-211h280v-43h-280v-220h368z" />
    <glyph glyph-name="emacron.sc" horiz-adv-x="548" 
d="M510 43v-43h-418v560h404v-43h-354v-211h280v-43h-280v-220h368zM449 660h-320v42h320v-42z" />
    <glyph glyph-name="eogonek.sc" horiz-adv-x="548" 
d="M523 -189q-30 -20 -78 -20q-47 0 -75.5 23.5t-28.5 65.5q0 41 24.5 69.5t78.5 50.5h-352v560h404v-43h-354v-211h280v-43h-280v-220h368v-43q-72 -26 -100 -53t-28 -61q0 -28 19 -43t50 -15q38 0 60 16z" />
    <glyph glyph-name="f.sc" horiz-adv-x="524" 
d="M142 517v-211h280v-43h-280v-263h-50v560h404v-43h-354z" />
    <glyph glyph-name="g.sc" horiz-adv-x="627" 
d="M563 276v-276h-40l-2 110q-23 -57 -73.5 -87.5t-127.5 -30.5q-80 0 -139.5 35t-92 100t-32.5 153t34 153t95 100t141 35q91 0 148 -34.5t86 -105.5l-45 -24q-20 60 -68 90.5t-120 30.5q-64 0 -114.5 -29.5t-78.5 -85t-28 -130.5q0 -115 58.5 -180t159.5 -65
q64 0 107.5 26t64 68.5t20.5 92.5v12h-196v42h243z" />
    <glyph glyph-name="gbreve.sc" horiz-adv-x="627" 
d="M563 276v-276h-40l-2 110q-23 -57 -73.5 -87.5t-127.5 -30.5q-80 0 -139.5 35t-92 100t-32.5 153t34 153t95 100t141 35q91 0 148 -34.5t86 -105.5l-45 -24q-20 60 -68 90.5t-120 30.5q-64 0 -114.5 -29.5t-78.5 -85t-28 -130.5q0 -115 58.5 -180t159.5 -65
q64 0 107.5 26t64 68.5t20.5 92.5v12h-196v42h243zM423 675.5q-37 -36.5 -99 -36.5q-61 0 -98 37t-37 98h42q0 -42 26 -69.5t67 -27.5q42 0 68 27.5t26 69.5h42q0 -62 -37 -98.5z" />
    <glyph glyph-name="h.sc" horiz-adv-x="641" 
d="M549 560v-560h-50v263h-357v-263h-50v560h50v-254h357v254h50z" />
    <glyph glyph-name="i.sc" horiz-adv-x="234" 
d="M142 0h-50v560h50v-560z" />
    <glyph glyph-name="iacute.sc" horiz-adv-x="234" 
d="M217 791l-82 -148h-41l65 148h58zM142 0h-50v560h50v-560z" />
    <glyph glyph-name="iacute_j.loclNLD.sc" horiz-adv-x="717" 
d="M220 791l-83 -148h-41l65 148h59zM708 791l-83 -148h-41l65 148h59zM142 0h-50v560h50v-560zM632 188q0 -92 -49.5 -144t-140.5 -52q-84 0 -129 40t-45 110q0 19 3 40l48 11q-3 -21 -3 -39q0 -59 32 -89t93 -30q141 0 141 160v365h50v-372z" />
    <glyph glyph-name="icircumflex.sc" horiz-adv-x="234" 
d="M211 639l-94 122l-93 -122h-47l111 156h58l111 -156h-46zM142 0h-50v560h50v-560z" />
    <glyph glyph-name="idieresis.sc" horiz-adv-x="234" 
d="M80 719.5q11 -11.5 11 -29.5t-11 -29t-29 -11t-29.5 11t-11.5 29t11.5 29.5t29.5 11.5t29 -11.5zM213 719.5q11 -11.5 11 -29.5t-11 -29t-29 -11q-19 0 -30 11t-11 29t11 29.5t30 11.5q18 0 29 -11.5zM142 0h-50v560h50v-560z" />
    <glyph glyph-name="i.sc.loclTRK" horiz-adv-x="234" 
d="M142 0h-50v560h50v-560zM147.5 695.5q11.5 -11.5 11.5 -30.5t-11.5 -30.5t-30.5 -11.5t-30.5 11.5t-11.5 30.5t11.5 30.5t30.5 11.5t30.5 -11.5z" />
    <glyph glyph-name="igrave.sc" horiz-adv-x="234" 
d="M133 643h-41l-83 148h59zM142 0h-50v560h50v-560z" />
    <glyph glyph-name="ij.sc" horiz-adv-x="717" 
d="M142 0h-50v560h50v-560zM632 188q0 -92 -49.5 -144t-140.5 -52q-84 0 -129 40t-45 110q0 19 3 40l48 11q-3 -21 -3 -39q0 -59 32 -89t93 -30q141 0 141 160v365h50v-372z" />
    <glyph glyph-name="imacron.sc" horiz-adv-x="234" 
d="M212 660h-190v42h190v-42zM142 0h-50v560h50v-560z" />
    <glyph glyph-name="iogonek.sc" horiz-adv-x="234" 
d="M175 -187q-31 -22 -75 -22q-45 0 -73.5 24.5t-28.5 66.5q0 36 22.5 65.5t71.5 56.5v556h50v-560q-58 -33 -80 -58t-22 -53q0 -29 17.5 -45t46.5 -16q19 0 32 4t26 14z" />
    <glyph glyph-name="j.sc" horiz-adv-x="483" 
d="M398 188q0 -92 -49.5 -144t-140.5 -52q-84 0 -129 40t-45 110q0 19 3 40l48 11q-3 -21 -3 -39q0 -59 32 -89t93 -30q141 0 141 160v365h50v-372z" />
    <glyph glyph-name="k.sc" horiz-adv-x="548" 
d="M257 300l-115 -112v-188h-50v560h50v-312l316 312h63l-227 -227l234 -333h-62z" />
    <glyph glyph-name="l.sc" horiz-adv-x="540" 
d="M491 43v-43h-399v560h50v-517h349z" />
    <glyph glyph-name="lacute.sc" horiz-adv-x="540" 
d="M140 643h-41l65 148h59zM491 43v-43h-399v560h50v-517h349z" />
    <glyph glyph-name="lcaron.sc" horiz-adv-x="540" 
d="M491 43v-43h-399v560h50v-517h349zM270 363h-35l22 197h49z" />
    <glyph glyph-name="ldot.sc" horiz-adv-x="540" 
d="M491 43v-43h-399v560h50v-517h349zM479.5 327.5q12.5 -12.5 12.5 -32.5t-12.5 -32.5t-32.5 -12.5t-32.5 12.5t-12.5 32.5t12.5 32.5t32.5 12.5t32.5 -12.5z" />
    <glyph glyph-name="lslash.sc" horiz-adv-x="523" 
d="M503 43v-43h-399v224l-95 -54v47l95 53v290h50v-262l167 94v-46l-167 -94v-209h349z" />
    <glyph glyph-name="m.sc" horiz-adv-x="739" 
d="M92 560h75l173 -425l29 -80h2l28 80l173 425h75v-560h-49v401l5 109h-2l-207 -510h-49l-207 510h-2l4 -109v-401h-48v560z" />
    <glyph glyph-name="n.sc" horiz-adv-x="641" 
d="M549 0h-67l-305 445l-38 62h-1l3 -61v-446h-49v560h67l301 -440l42 -67h1l-3 61v446h49v-560z" />
    <glyph glyph-name="nacute.sc" horiz-adv-x="641" 
d="M422 791l-83 -148h-41l65 148h59zM549 0h-67l-305 445l-38 62h-1l3 -61v-446h-49v560h67l301 -440l42 -67h1l-3 61v446h49v-560z" />
    <glyph glyph-name="ncaron.sc" horiz-adv-x="641" 
d="M350 640h-58l-111 156h47l93 -122l94 122h46zM549 0h-67l-305 445l-38 62h-1l3 -61v-446h-49v560h67l301 -440l42 -67h1l-3 61v446h49v-560z" />
    <glyph glyph-name="ntilde.sc" horiz-adv-x="641" 
d="M549 0h-67l-305 445l-38 62h-1l3 -61v-446h-49v560h67l301 -440l42 -67h1l-3 61v446h49v-560zM460 678q-24 -27 -68 -27q-28 0 -45.5 9.5t-38.5 28.5q-16 15 -28.5 22.5t-29.5 7.5q-27 0 -39.5 -16.5t-19.5 -52.5h-40q7 56 30.5 83t69.5 27q27 0 44.5 -9.5t38.5 -28.5
q16 -15 28.5 -22.5t28.5 -7.5q27 0 40 16.5t20 52.5h40q-7 -56 -31 -83z" />
    <glyph glyph-name="o.sc" horiz-adv-x="654" 
d="M471 533q61 -35 94 -100t33 -153t-33 -153t-94 -100t-144 -35t-144 35t-94 100t-33 153t33 153t94 100t144 35t144 -35zM165.5 459.5q-59.5 -65.5 -59.5 -179.5t59.5 -179.5t161.5 -65.5t161.5 65.5t59.5 179.5t-59.5 179.5t-161.5 65.5t-161.5 -65.5z" />
    <glyph glyph-name="oacute.sc" horiz-adv-x="654" 
d="M429 791l-83 -148h-41l65 148h59zM471 533q61 -35 94 -100t33 -153t-33 -153t-94 -100t-144 -35t-144 35t-94 100t-33 153t33 153t94 100t144 35t144 -35zM165.5 459.5q-59.5 -65.5 -59.5 -179.5t59.5 -179.5t161.5 -65.5t161.5 65.5t59.5 179.5t-59.5 179.5t-161.5 65.5
t-161.5 -65.5z" />
    <glyph glyph-name="ocircumflex.sc" horiz-adv-x="654" 
d="M421 639l-94 122l-93 -122h-47l111 156h58l111 -156h-46zM471 533q61 -35 94 -100t33 -153t-33 -153t-94 -100t-144 -35t-144 35t-94 100t-33 153t33 153t94 100t144 35t144 -35zM165.5 459.5q-59.5 -65.5 -59.5 -179.5t59.5 -179.5t161.5 -65.5t161.5 65.5t59.5 179.5
t-59.5 179.5t-161.5 65.5t-161.5 -65.5z" />
    <glyph glyph-name="odieresis.sc" horiz-adv-x="654" 
d="M471 533q61 -35 94 -100t33 -153t-33 -153t-94 -100t-144 -35t-144 35t-94 100t-33 153t33 153t94 100t144 35t144 -35zM165.5 459.5q-59.5 -65.5 -59.5 -179.5t59.5 -179.5t161.5 -65.5t161.5 65.5t59.5 179.5t-59.5 179.5t-161.5 65.5t-161.5 -65.5zM261 719.5
q11 -11.5 11 -29.5t-11 -29t-29 -11t-29.5 11t-11.5 29t11.5 29.5t29.5 11.5t29 -11.5zM450.5 719.5q11.5 -11.5 11.5 -29.5t-11.5 -29t-29.5 -11t-29.5 11t-11.5 29t11.5 29.5t29.5 11.5t29.5 -11.5z" />
    <glyph glyph-name="ograve.sc" horiz-adv-x="654" 
d="M343 643h-41l-83 148h59zM471 533q61 -35 94 -100t33 -153t-33 -153t-94 -100t-144 -35t-144 35t-94 100t-33 153t33 153t94 100t144 35t144 -35zM165.5 459.5q-59.5 -65.5 -59.5 -179.5t59.5 -179.5t161.5 -65.5t161.5 65.5t59.5 179.5t-59.5 179.5t-161.5 65.5
t-161.5 -65.5z" />
    <glyph glyph-name="ohungarumlaut.sc" horiz-adv-x="654" 
d="M353 791l-83 -148h-41l65 148h59zM493 791l-83 -148h-41l65 148h59zM471 533q61 -35 94 -100t33 -153t-33 -153t-94 -100t-144 -35t-144 35t-94 100t-33 153t33 153t94 100t144 35t144 -35zM165.5 459.5q-59.5 -65.5 -59.5 -179.5t59.5 -179.5t161.5 -65.5t161.5 65.5
t59.5 179.5t-59.5 179.5t-161.5 65.5t-161.5 -65.5z" />
    <glyph glyph-name="omacron.sc" horiz-adv-x="654" 
d="M471 533q61 -35 94 -100t33 -153t-33 -153t-94 -100t-144 -35t-144 35t-94 100t-33 153t33 153t94 100t144 35t144 -35zM165.5 459.5q-59.5 -65.5 -59.5 -179.5t59.5 -179.5t161.5 -65.5t161.5 65.5t59.5 179.5t-59.5 179.5t-161.5 65.5t-161.5 -65.5zM487 660h-320v42
h320v-42z" />
    <glyph glyph-name="oslash.sc" horiz-adv-x="654" 
d="M576.5 406q21.5 -56 21.5 -126q0 -88 -33 -153t-94 -100t-144 -35q-94 0 -159 45l-48 -65h-41l62 85q-41 38 -63 95t-22 128q0 88 33 153t94 100t144 35q98 0 163 -47l45 61h41l-61 -82q40 -38 61.5 -94zM171 95l290 389q-53 41 -134 41q-102 0 -161.5 -65.5
t-59.5 -179.5q0 -118 65 -185zM488.5 100.5q59.5 65.5 59.5 179.5q0 117 -62 182l-290 -388q55 -39 131 -39q102 0 161.5 65.5z" />
    <glyph glyph-name="otilde.sc" horiz-adv-x="654" 
d="M471 533q61 -35 94 -100t33 -153t-33 -153t-94 -100t-144 -35t-144 35t-94 100t-33 153t33 153t94 100t144 35t144 -35zM165.5 459.5q-59.5 -65.5 -59.5 -179.5t59.5 -179.5t161.5 -65.5t161.5 65.5t59.5 179.5t-59.5 179.5t-161.5 65.5t-161.5 -65.5zM466 678
q-24 -27 -68 -27q-28 0 -45.5 9.5t-38.5 28.5q-16 15 -28.5 22.5t-29.5 7.5q-27 0 -39.5 -16.5t-19.5 -52.5h-40q7 56 30.5 83t69.5 27q27 0 44.5 -9.5t38.5 -28.5q16 -15 28.5 -22.5t28.5 -7.5q27 0 40 16.5t20 52.5h40q-7 -56 -31 -83z" />
    <glyph glyph-name="oe.sc" horiz-adv-x="949" 
d="M911 43v-43h-387v104q-60 -112 -208 -112q-79 0 -137.5 35t-90.5 100t-32 153t31.5 153t91 100t139.5 35q147 0 206 -111v103h373v-43h-330v-211h262v-43h-262v-220h344zM468.5 97q50.5 62 50.5 183t-50.5 183t-149.5 62q-98 0 -155.5 -65.5t-57.5 -179.5t57 -179.5
t156 -65.5t149.5 62z" />
    <glyph glyph-name="p.sc" horiz-adv-x="531" 
d="M439 516q54 -44 54 -122q0 -76 -54 -120t-147 -44h-150v-230h-50v560h200q93 0 147 -44zM404 304.5q39 31.5 39 89.5q0 59 -39 91t-112 32h-150v-244h150q73 0 112 31.5z" />
    <glyph glyph-name="thorn.sc" horiz-adv-x="539" 
d="M442 411.5q54 -42.5 54 -124.5t-54 -124.5t-160 -42.5h-140v-120h-50v560h50v-106h140q106 0 160 -42.5zM446 287q0 124 -153 124h-151v-247h151q153 0 153 123z" />
    <glyph glyph-name="q.sc" horiz-adv-x="654" 
d="M529 -114q26 9 43 25l16 -42q-18 -16 -48 -25.5t-63 -9.5q-76 0 -122.5 39.5t-50.5 119.5q-115 7 -181.5 83.5t-66.5 203.5q0 88 33 153t94 100t144 35t144 -35t94 -100t33 -153q0 -128 -68 -205t-185 -83q5 -59 39 -87t89 -28q30 0 56 9zM165.5 100.5
q59.5 -65.5 161.5 -65.5t161.5 65.5t59.5 179.5t-59.5 179.5t-161.5 65.5t-161.5 -65.5t-59.5 -179.5t59.5 -179.5z" />
    <glyph glyph-name="r.sc" horiz-adv-x="575" 
d="M480 0l-163 240h-2h-173v-240h-50v560h223q90 0 141.5 -42.5t51.5 -117.5q0 -62 -36 -102.5t-101 -52.5l168 -245h-59zM142 283h172q70 0 107 30t37 87q0 56 -37 86.5t-107 30.5h-172v-234z" />
    <glyph glyph-name="racute.sc" horiz-adv-x="575" 
d="M295 643h-41l65 148h59zM480 0l-163 240h-2h-173v-240h-50v560h223q90 0 141.5 -42.5t51.5 -117.5q0 -62 -36 -102.5t-101 -52.5l168 -245h-59zM142 283h172q70 0 107 30t37 87q0 56 -37 86.5t-107 30.5h-172v-234z" />
    <glyph glyph-name="rcaron.sc" horiz-adv-x="575" 
d="M247 640l-111 156h47l93 -122l94 122h46l-111 -156h-58zM480 0l-163 240h-2h-173v-240h-50v560h223q90 0 141.5 -42.5t51.5 -117.5q0 -62 -36 -102.5t-101 -52.5l168 -245h-59zM142 283h172q70 0 107 30t37 87q0 56 -37 86.5t-107 30.5h-172v-234z" />
    <glyph glyph-name="s.sc" horiz-adv-x="555" 
d="M500 446l-39 -33q-22 59 -66.5 85.5t-116.5 26.5q-76 0 -121.5 -32.5t-45.5 -80.5q0 -36 24 -58t59.5 -32.5t96.5 -22.5q71 -13 113.5 -27t72.5 -44t30 -83q0 -45 -28 -80t-78 -54t-115 -19q-94 0 -157.5 34t-86.5 98l39 33q18 -60 71.5 -91t133.5 -31q76 0 123.5 28.5
t47.5 78.5q0 36 -24 57.5t-59.5 32t-95.5 21.5q-71 14 -114 27.5t-73 44t-30 83.5q0 43 26 80t75.5 58.5t114.5 21.5q166 0 223 -122z" />
    <glyph glyph-name="sacute.sc" horiz-adv-x="555" 
d="M379 791l-83 -148h-41l65 148h59zM500 446l-39 -33q-22 59 -66.5 85.5t-116.5 26.5q-76 0 -121.5 -32.5t-45.5 -80.5q0 -36 24 -58t59.5 -32.5t96.5 -22.5q71 -13 113.5 -27t72.5 -44t30 -83q0 -45 -28 -80t-78 -54t-115 -19q-94 0 -157.5 34t-86.5 98l39 33
q18 -60 71.5 -91t133.5 -31q76 0 123.5 28.5t47.5 78.5q0 36 -24 57.5t-59.5 32t-95.5 21.5q-71 14 -114 27.5t-73 44t-30 83.5q0 43 26 80t75.5 58.5t114.5 21.5q166 0 223 -122z" />
    <glyph glyph-name="scaron.sc" horiz-adv-x="555" 
d="M306 640h-58l-111 156h47l93 -122l94 122h46zM500 446l-39 -33q-22 59 -66.5 85.5t-116.5 26.5q-76 0 -121.5 -32.5t-45.5 -80.5q0 -36 24 -58t59.5 -32.5t96.5 -22.5q71 -13 113.5 -27t72.5 -44t30 -83q0 -45 -28 -80t-78 -54t-115 -19q-94 0 -157.5 34t-86.5 98l39 33
q18 -60 71.5 -91t133.5 -31q76 0 123.5 28.5t47.5 78.5q0 36 -24 57.5t-59.5 32t-95.5 21.5q-71 14 -114 27.5t-73 44t-30 83.5q0 43 26 80t75.5 58.5t114.5 21.5q166 0 223 -122z" />
    <glyph glyph-name="germandbls.sc" horiz-adv-x="599" 
d="M514 263.5q46 -38.5 46 -111.5q0 -71 -48.5 -113.5t-127.5 -42.5q-48 0 -86 14.5t-57 37.5l23 38q19 -21 48.5 -34t66.5 -13q59 0 95 30.5t36 83.5q0 58 -35 84t-101 26h-87v39l183 215h-179q-66 0 -107.5 -41t-41.5 -106v-370h-50v372q0 85 54 136.5t143 51.5h236v-44
l-187 -214h49q81 0 127 -38.5z" />
    <glyph glyph-name="t.sc" horiz-adv-x="521" 
d="M499 517h-213v-517h-50v517h-214v43h477v-43z" />
    <glyph glyph-name="tcaron.sc" horiz-adv-x="521" 
d="M232 640l-111 156h47l93 -122l94 122h46l-111 -156h-58zM499 517h-213v-517h-50v517h-214v43h477v-43z" />
    <glyph glyph-name="u.sc" horiz-adv-x="627" 
d="M542 206q0 -104 -59 -159t-169 -55t-169.5 55t-59.5 159v354h50v-348q0 -87 46 -132t133 -45t132.5 45t45.5 132v348h50v-354z" />
    <glyph glyph-name="uacute.sc" horiz-adv-x="627" 
d="M415 791l-83 -148h-41l65 148h59zM542 206q0 -104 -59 -159t-169 -55t-169.5 55t-59.5 159v354h50v-348q0 -87 46 -132t133 -45t132.5 45t45.5 132v348h50v-354z" />
    <glyph glyph-name="ucircumflex.sc" horiz-adv-x="627" 
d="M408 639l-94 122l-93 -122h-47l111 156h58l111 -156h-46zM542 206q0 -104 -59 -159t-169 -55t-169.5 55t-59.5 159v354h50v-348q0 -87 46 -132t133 -45t132.5 45t45.5 132v348h50v-354z" />
    <glyph glyph-name="udieresis.sc" horiz-adv-x="627" 
d="M542 206q0 -104 -59 -159t-169 -55t-169.5 55t-59.5 159v354h50v-348q0 -87 46 -132t133 -45t132.5 45t45.5 132v348h50v-354zM248 719.5q11 -11.5 11 -29.5t-11 -29t-29 -11t-29.5 11t-11.5 29t11.5 29.5t29.5 11.5t29 -11.5zM437.5 719.5q11.5 -11.5 11.5 -29.5
t-11.5 -29t-29.5 -11t-29.5 11t-11.5 29t11.5 29.5t29.5 11.5t29.5 -11.5z" />
    <glyph glyph-name="ugrave.sc" horiz-adv-x="627" 
d="M330 643h-41l-83 148h59zM542 206q0 -104 -59 -159t-169 -55t-169.5 55t-59.5 159v354h50v-348q0 -87 46 -132t133 -45t132.5 45t45.5 132v348h50v-354z" />
    <glyph glyph-name="uhungarumlaut.sc" horiz-adv-x="627" 
d="M338 791l-82 -148h-42l66 148h58zM478 791l-82 -148h-42l66 148h58zM542 206q0 -104 -59 -159t-169 -55t-169.5 55t-59.5 159v354h50v-348q0 -87 46 -132t133 -45t132.5 45t45.5 132v348h50v-354z" />
    <glyph glyph-name="umacron.sc" horiz-adv-x="627" 
d="M542 206q0 -104 -59 -159t-169 -55t-169.5 55t-59.5 159v354h50v-348q0 -87 46 -132t133 -45t132.5 45t45.5 132v348h50v-354zM474 660h-320v42h320v-42z" />
    <glyph glyph-name="uogonek.sc" horiz-adv-x="627" 
d="M542 560v-354q0 -84 -39 -136.5t-113 -69.5q-64 -30 -90.5 -58t-26.5 -59q0 -28 19 -43t49 -15q40 0 62 16l12 -34q-31 -19 -79 -19q-46 0 -75.5 24t-29.5 65q0 36 19.5 63.5t60.5 51.5q-109 1 -167.5 55.5t-58.5 158.5v354h50v-348q0 -87 46 -132t133 -45t132.5 45
t45.5 132v348h50z" />
    <glyph glyph-name="uring.sc" horiz-adv-x="627" 
d="M542 206q0 -104 -59 -159t-169 -55t-169.5 55t-59.5 159v354h50v-348q0 -87 46 -132t133 -45t132.5 45t45.5 132v348h50v-354zM389.5 713q29.5 -28 29.5 -72t-29.5 -72.5t-75.5 -28.5t-75.5 28.5t-29.5 72.5t29.5 72t75.5 28t75.5 -28zM265.5 689q-19.5 -19 -19.5 -48
t19.5 -48.5t48.5 -19.5q30 0 49.5 19.5t19.5 48.5t-19.5 48t-49.5 19q-29 0 -48.5 -19z" />
    <glyph glyph-name="v.sc" horiz-adv-x="553" 
d="M306 0h-58l-226 560h53l172 -431l30 -84l30 83l172 432h53z" />
    <glyph glyph-name="w.sc" horiz-adv-x="840" 
d="M386 386l-115 -386h-63l-180 560h52l106 -340l55 -177l151 517h58l151 -517l56 179l105 338h50l-180 -560h-62l-115 386l-35 128h-1z" />
    <glyph glyph-name="x.sc" horiz-adv-x="509" 
d="M429 0l-175 251l-177 -251h-62l210 289l-190 271h59l162 -233l165 233h58l-195 -271l204 -289h-59z" />
    <glyph glyph-name="y.sc" horiz-adv-x="494" 
d="M272 216v-216h-50v216l-207 344h57l175 -300l65 110l111 190h56z" />
    <glyph glyph-name="yacute.sc" horiz-adv-x="494" 
d="M348 791l-83 -148h-41l65 148h59zM272 216v-216h-50v216l-207 344h57l175 -300l65 110l111 190h56z" />
    <glyph glyph-name="ydieresis.sc" horiz-adv-x="494" 
d="M272 216v-216h-50v216l-207 344h57l175 -300l65 110l111 190h56zM181 719.5q11 -11.5 11 -29.5t-11 -29t-29 -11t-29.5 11t-11.5 29t11.5 29.5t29.5 11.5t29 -11.5zM370.5 719.5q11.5 -11.5 11.5 -29.5t-11.5 -29t-29.5 -11t-29.5 11t-11.5 29t11.5 29.5t29.5 11.5
t29.5 -11.5z" />
    <glyph glyph-name="z.sc" horiz-adv-x="532" 
d="M496 43v-43h-456v41l342 426l45 50h-386v43h439v-42l-330 -410l-57 -65h403z" />
    <glyph glyph-name="zacute.sc" horiz-adv-x="532" 
d="M281 643h-41l65 148h59zM496 43v-43h-456v41l342 426l45 50h-386v43h439v-42l-330 -410l-57 -65h403z" />
    <glyph glyph-name="zcaron.sc" horiz-adv-x="532" 
d="M238 640l-112 156h47l93 -122l94 122h46l-111 -156h-57zM496 43v-43h-456v41l342 426l45 50h-386v43h439v-42l-330 -410l-57 -65h403z" />
    <glyph glyph-name="zdotaccent.sc" horiz-adv-x="532" 
d="M496 43v-43h-456v41l342 426l45 50h-386v43h439v-42l-330 -410l-57 -65h403zM293.5 729.5q11.5 -11.5 11.5 -30.5t-11.5 -30.5t-30.5 -11.5t-30.5 11.5t-11.5 30.5t11.5 30.5t30.5 11.5t30.5 -11.5z" />
    <glyph glyph-name="Rcommaaccent.sc.ss03" horiz-adv-x="571" 
d="M92 560h223q89 0 141 -42.5t52 -116.5q0 -58 -33.5 -95.5t-92.5 -48.5v-1q105 -16 110 -118q3 -70 9 -95.5t16 -39.5v-3h-53q-8 16 -13 44t-8 88q-5 108 -140 108h-161v-240h-50v560zM312 283q71 0 108.5 30t37.5 87q0 56 -38 86.5t-108 30.5h-170v-234h170zM273 -233
h-40l47 161h53z" />
    <glyph glyph-name="r.sc.ss03" horiz-adv-x="571" 
d="M92 560h223q89 0 141 -42.5t52 -116.5q0 -58 -33.5 -95.5t-92.5 -48.5v-1q105 -16 110 -118q3 -70 9 -95.5t16 -39.5v-3h-53q-8 16 -13 44t-8 88q-5 108 -140 108h-161v-240h-50v560zM312 283q71 0 108.5 30t37.5 87q0 56 -38 86.5t-108 30.5h-170v-234h170z" />
    <glyph glyph-name="racute.sc.ss03" horiz-adv-x="571" 
d="M92 560h223q89 0 141 -42.5t52 -116.5q0 -58 -33.5 -95.5t-92.5 -48.5v-1q105 -16 110 -118q3 -70 9 -95.5t16 -39.5v-3h-53q-8 16 -13 44t-8 88q-5 108 -140 108h-161v-240h-50v560zM312 283q71 0 108.5 30t37.5 87q0 56 -38 86.5t-108 30.5h-170v-234h170zM382 801
l-94 -158h-41l80 158h55z" />
    <glyph glyph-name="rcaron.sc.ss03" horiz-adv-x="571" 
d="M92 560h223q89 0 141 -42.5t52 -116.5q0 -58 -33.5 -95.5t-92.5 -48.5v-1q105 -16 110 -118q3 -70 9 -95.5t16 -39.5v-3h-53q-8 16 -13 44t-8 88q-5 108 -140 108h-161v-240h-50v560zM312 283q71 0 108.5 30t37.5 87q0 56 -38 86.5t-108 30.5h-170v-234h170zM305 643h-58
l-110 155h47l92 -119l92 119h47z" />
    <glyph glyph-name="Gcommaaccent.sc.ss04" horiz-adv-x="616" 
d="M570 276v-25q0 -119 -61.5 -189t-186.5 -70q-81 0 -141 35t-92.5 100t-32.5 153t33.5 153t94 100t140.5 35q91 0 148 -34.5t86 -105.5l-46 -22q-39 119 -188 119q-65 0 -114.5 -29.5t-76.5 -85t-27 -130.5q0 -115 58.5 -180t162.5 -65q73 0 116.5 30.5t61.5 75t18 92.5v1
h-202v42h249zM296 -233h-40l47 161h53z" />
    <glyph glyph-name="g.sc.ss04" horiz-adv-x="616" 
d="M570 276v-25q0 -119 -61.5 -189t-186.5 -70q-81 0 -141 35t-92.5 100t-32.5 153t33.5 153t94 100t140.5 35q91 0 148 -34.5t86 -105.5l-46 -22q-39 119 -188 119q-65 0 -114.5 -29.5t-76.5 -85t-27 -130.5q0 -115 58.5 -180t162.5 -65q73 0 116.5 30.5t61.5 75t18 92.5v1
h-202v42h249z" />
    <glyph glyph-name="gbreve.sc.ss04" horiz-adv-x="616" 
d="M570 276v-25q0 -119 -61.5 -189t-186.5 -70q-81 0 -141 35t-92.5 100t-32.5 153t33.5 153t94 100t140.5 35q91 0 148 -34.5t86 -105.5l-46 -22q-39 119 -188 119q-65 0 -114.5 -29.5t-76.5 -85t-27 -130.5q0 -115 58.5 -180t162.5 -65q73 0 116.5 30.5t61.5 75t18 92.5v1
h-202v42h249zM419 675.5q-37 -36.5 -99 -36.5q-61 0 -98 37t-37 98h42q0 -42 26 -69.5t67 -27.5q42 0 68 27.5t26 69.5h42q0 -62 -37 -98.5z" />
    <glyph glyph-name="iacute_j.loclNLD.sc.ss05" horiz-adv-x="535" 
d="M217 791l-83 -148h-41l65 148h59zM526 791l-82 -148h-42l66 148h58zM451 188q0 -94 -49.5 -145t-139.5 -51q-94 0 -138 41t-39 120h49q-3 -58 30 -88t99 -30q67 0 102.5 40.5t35.5 118.5v366h50v-372zM135 233h-50v327h50v-327z" />
    <glyph glyph-name="ij.sc.ss05" horiz-adv-x="536" 
d="M451 188q0 -94 -49.5 -145t-139.5 -51q-94 0 -138 41t-39 120h49q-3 -58 30 -88t99 -30q67 0 102.5 40.5t35.5 118.5v366h50v-372zM135 233h-50v327h50v-327z" />
    <glyph glyph-name="ordfeminine" unicode="&#xaa;" horiz-adv-x="368" 
d="M357 364l-3 -30q-16 -7 -33 -7q-53 0 -59 55q-16 -26 -50.5 -40.5t-76.5 -14.5q-50 0 -79.5 21.5t-29.5 60.5q0 40 31 64.5t97 36.5l103 18v22q0 38 -23 59t-66 21q-40 0 -65.5 -15.5t-38.5 -50.5l-32 17q12 40 47.5 62t90.5 22q62 0 96 -29t34 -84v-156q0 -37 32 -37
q15 0 25 5zM221 383.5q36 21.5 36 58.5v56l-88 -17q-52 -10 -75.5 -26t-23.5 -43q0 -50 74 -50q41 0 77 21.5zM32 246h309v-35h-309v35z" />
    <glyph glyph-name="ordmasculine" unicode="&#xba;" horiz-adv-x="357" 
d="M30 496q0 169 149 169q148 0 148 -169t-148 -169q-149 0 -149 169zM257 396q25 33 25 100t-25 100.5t-78 33.5t-78.5 -33.5t-25.5 -100.5t25.5 -100t78.5 -33t78 33zM40 246h277v-35h-277v35z" />
    <glyph glyph-name="pi" unicode="&#x3c0;" horiz-adv-x="709" 
d="M521 458v-342q0 -41 28 -57.5t83 -16.5l-10 -42q-77 0 -114 25t-37 85v348h-252v-458h-50v458h-150v42h661v-42h-159z" />
    <glyph glyph-name="zero" unicode="0" horiz-adv-x="607" 
d="M125 77.5q-62 87.5 -62 252.5t62 252.5t179 87.5q116 0 178 -87.5t62 -252.5t-62 -252.5t-178 -87.5q-117 0 -179 87.5zM444.5 111q48.5 76 48.5 219t-48.5 219t-140.5 76t-141 -76t-49 -219t49 -219t141 -76t140.5 76z" />
    <glyph glyph-name="one" unicode="1" horiz-adv-x="365" 
d="M268 660v-660h-50v500q0 29 2 91q-33 -38 -79 -66.5t-95 -41.5l-13 45q48 12 106.5 51t83.5 81h45z" />
    <glyph glyph-name="two" unicode="2" horiz-adv-x="560" 
d="M65 41q141 110 216 178t113.5 128t38.5 122q0 71 -43.5 113t-118.5 42q-77 0 -124 -48.5t-53 -131.5l-44 25q9 92 67.5 146.5t154.5 54.5q98 0 155.5 -54.5t57.5 -146.5q0 -66 -37 -128.5t-110.5 -131.5t-199.5 -163v-1l66 1h302v-46h-441v41z" />
    <glyph glyph-name="three" unicode="3" horiz-adv-x="554" 
d="M420.5 622q52.5 -48 52.5 -124q0 -66 -35.5 -112.5t-90.5 -51.5v-1q63 -2 102.5 -47.5t39.5 -111.5q0 -54 -28 -95.5t-77.5 -65t-112.5 -23.5q-86 0 -142.5 40t-80.5 115l46 25q35 -134 180 -134q73 0 118 39t45 103t-40.5 98t-119.5 34h-37v46h37q70 0 107 36t37 98
q0 64 -38.5 99t-107.5 35q-61 0 -101.5 -30.5t-55.5 -84.5l-47 23q23 64 77.5 101t126.5 37q93 0 145.5 -48z" />
    <glyph glyph-name="four" unicode="4" horiz-adv-x="582" 
d="M546 188h-127v-188h-50v188h-328v38l314 434h64v-429h127v-43zM95 231h274v302l2 85h-2q-19 -33 -55 -87z" />
    <glyph glyph-name="five" unicode="5" horiz-adv-x="560" 
d="M404.5 386q47.5 -26 73.5 -73.5t26 -109.5q0 -97 -59.5 -155t-159.5 -58q-183 0 -228 155l48 24q29 -133 178 -133q76 0 122.5 45.5t46.5 119.5q-1 76 -45 120.5t-118 44.5q-117 0 -170 -74h-44l36 368h365v-46h-323l-26 -256l-2 -13h1q58 67 170 67q61 0 108.5 -26z" />
    <glyph glyph-name="six" unicode="6" horiz-adv-x="581" 
d="M437.5 637.5q46.5 -32.5 71.5 -97.5l-46 -22q-15 49 -52 77.5t-97 28.5q-66 0 -112 -42t-69 -112t-23 -154q0 -27 5 -67h3q4 49 33 85t71.5 54.5t87.5 18.5q99 0 156.5 -56.5t57.5 -152.5q0 -95 -59 -151.5t-159 -56.5q-117 0 -179.5 90.5t-62.5 249.5q0 109 32.5 185.5
t90 115.5t130.5 39q74 0 120.5 -32.5zM220.5 338q-37.5 -22 -58.5 -58.5t-21 -79.5q0 -72 45.5 -117.5t118.5 -45.5q78 0 122.5 44t44.5 119q0 73 -44.5 116.5t-120.5 43.5q-49 0 -86.5 -22z" />
    <glyph glyph-name="seven" unicode="7" horiz-adv-x="530" 
d="M507 660v-46q-122 -129 -182.5 -279.5t-68.5 -334.5h-52q16 363 248 614h-420v46h475z" />
    <glyph glyph-name="eight" unicode="8" horiz-adv-x="591" 
d="M444 623.5q56 -45.5 56 -121.5q0 -57 -31 -97t-86 -57v-1q67 -17 106.5 -63t39.5 -110q0 -55 -29 -96.5t-82.5 -64.5t-122.5 -23q-68 0 -121 23t-82.5 64.5t-29.5 96.5q0 64 39.5 110t106.5 63v1q-55 17 -86 57t-31 97q0 76 55.5 121.5t148.5 45.5t149 -45.5zM184 589
q-41 -34 -41 -92t41.5 -92.5t110.5 -34.5t111 34.5t42 92.5t-41.5 92t-111.5 34t-111 -34zM427 75q50 39 50 103q0 65 -50 105t-132 40q-81 0 -131 -40t-50 -105q0 -64 49.5 -103t131.5 -39t132 39z" />
    <glyph glyph-name="nine" unicode="9" horiz-adv-x="596" 
d="M466.5 579q63.5 -91 63.5 -249q0 -166 -64.5 -253t-179.5 -87q-86 0 -142 38t-78 107l50 26q14 -59 54.5 -92t114.5 -33q106 0 153 85t47 225q0 25 -6 69h-3q-4 -53 -33 -89.5t-73 -54.5t-90 -18q-98 0 -157 56.5t-59 152.5q0 95 60 151.5t161 56.5q118 0 181.5 -91z
M161.5 579q-45.5 -44 -45.5 -119q0 -73 45 -116.5t123 -43.5q49 0 87.5 22t60 58.5t21.5 79.5q0 72 -46.5 117.5t-120.5 45.5q-79 0 -124.5 -44z" />
    <glyph glyph-name="zero.osf" horiz-adv-x="585" 
d="M466.5 495.5q59.5 -74.5 59.5 -215.5t-59.5 -215.5t-174.5 -74.5q-114 0 -173.5 74.5t-59.5 215.5t59.5 215.5t173.5 74.5q115 0 174.5 -74.5zM156 463.5q-47 -63.5 -47 -183.5t47 -183.5t136 -63.5t136.5 63t47.5 184t-47.5 184t-136.5 63t-136 -63.5z" />
    <glyph glyph-name="one.osf" horiz-adv-x="349" 
d="M257 560v-560h-50v430q0 42 1 64q-31 -36 -75.5 -63t-92.5 -41l-13 41q53 17 107 52t78 77h45z" />
    <glyph glyph-name="two.osf" horiz-adv-x="532" 
d="M411.5 520.5q54.5 -49.5 54.5 -138.5q0 -67 -35.5 -122.5t-97.5 -101.5t-158 -98q-12 -8 -40 -18v-2l20 1q28 2 44 2h293v-43h-434v44q122 62 197 110t118.5 104.5t43.5 125.5q0 70 -43.5 106.5t-110.5 36.5q-70 0 -115.5 -43.5t-45.5 -115.5q0 -13 1 -20l-44 21
q-2 59 23 105t72 71t108 25q95 0 149.5 -49.5z" />
    <glyph glyph-name="three.osf" horiz-adv-x="527" 
d="M398 521.5q52 -48.5 52 -125.5q0 -67 -32 -109.5t-93 -52.5v-1q68 -4 104.5 -47.5t36.5 -109.5q0 -55 -27.5 -97t-77 -65.5t-112.5 -23.5q-86 0 -142.5 40t-80.5 115l44 25q35 -137 182 -137q74 0 119 40t45 107q0 64 -41 98t-120 34h-37v42h37q70 0 107.5 37t37.5 99
q0 67 -38 102t-109 35q-61 0 -102.5 -31t-56.5 -87l-45 23q23 64 77 101t126 37q94 0 146 -48.5z" />
    <glyph glyph-name="four.osf" horiz-adv-x="582" 
d="M543 88h-127v-188h-50v188h-328v38l314 434h64v-429h127v-43zM92 131h274v302l2 85h-2q-19 -33 -55 -87z" />
    <glyph glyph-name="five.osf" horiz-adv-x="548" 
d="M401 286q47 -26 73 -73.5t26 -109.5q0 -97 -59.5 -155t-159.5 -58q-183 0 -228 155l46 24q14 -67 60 -101.5t122 -34.5q77 0 123 45.5t46 122.5t-44.5 123t-120.5 46q-60 0 -101.5 -21.5t-67.5 -56.5h-45l36 368h365v-43h-324l-26 -259l-2 -13h1q60 67 172 67
q61 0 108 -26z" />
    <glyph glyph-name="six.osf" horiz-adv-x="571" 
d="M432.5 637.5q46.5 -32.5 71.5 -97.5l-45 -21q-32 108 -147 108q-69 0 -115.5 -42.5t-69 -113t-22.5 -155.5q0 -32 5 -70h3q4 51 33 87.5t72 55t88 18.5q98 0 155 -56.5t57 -152.5q0 -95 -58.5 -151.5t-157.5 -56.5q-118 0 -181 90.5t-63 249.5q0 109 33 185.5t90.5 115.5
t131.5 39q73 0 119.5 -32.5zM215.5 342.5q-38.5 -22.5 -59.5 -60.5t-21 -82q0 -74 46 -120.5t120 -46.5q78 0 122.5 45t44.5 122q0 75 -44.5 120t-120.5 45q-49 0 -87.5 -22.5z" />
    <glyph glyph-name="seven.osf" horiz-adv-x="514" 
d="M491 560v-46q-125 -133 -184 -280.5t-67 -333.5h-51q16 366 250 616h-423v44h475z" />
    <glyph glyph-name="eight.osf" horiz-adv-x="577" 
d="M435.5 623.5q55.5 -45.5 55.5 -121.5q0 -57 -30.5 -97t-84.5 -57v-1q67 -17 105.5 -63t38.5 -110q0 -55 -29 -96.5t-81.5 -64.5t-121.5 -23q-68 0 -120.5 23t-81.5 64.5t-29 96.5q0 64 38.5 110t105.5 63v1q-54 17 -84.5 57.5t-30.5 96.5q0 76 55 121.5t147 45.5
t147.5 -45.5zM177.5 592.5q-41.5 -34.5 -41.5 -93.5t41.5 -94.5t110.5 -35.5q70 0 111.5 35.5t41.5 94.5t-41.5 93.5t-111.5 34.5q-69 0 -110.5 -34.5zM420.5 72.5q49.5 39.5 49.5 105.5t-50 106.5t-132 40.5t-131.5 -40.5t-49.5 -106.5t49.5 -105.5t131.5 -39.5
q83 0 132.5 39.5z" />
    <glyph glyph-name="nine.osf" horiz-adv-x="591" 
d="M466.5 479q63.5 -91 63.5 -249q0 -106 -29.5 -183t-84.5 -117t-130 -40q-86 0 -142 38t-78 107l47 25q12 -60 54.5 -93.5t117.5 -33.5q99 0 149.5 84t50.5 215q0 35 -7 86h-3q-3 -52 -31.5 -89.5t-72 -56.5t-91.5 -19q-98 0 -157 56.5t-59 152.5q0 95 60 151.5t161 56.5
q118 0 181.5 -91zM160 482q-46 -45 -46 -122q0 -75 46 -120t124 -45q49 0 87.5 23t60.5 61t22 81q0 74 -46.5 120.5t-121.5 46.5q-80 0 -126 -45z" />
    <glyph glyph-name="zero.tf" 
d="M123 77.5q-62 87.5 -62 252.5t62 252.5t179 87.5t179 -87.5t62 -252.5t-62 -252.5t-179 -87.5t-179 87.5zM442.5 111q48.5 76 48.5 219t-48.5 219t-140.5 76t-140.5 -76t-48.5 -219t48.5 -219t140.5 -76t140.5 76z" />
    <glyph glyph-name="one.tf" 
d="M552 45v-45h-443v45h207v479q0 23 2 71q-37 -39 -94.5 -71.5t-110.5 -47.5l-14 46q31 8 77.5 30t87.5 51t58 57h44v-615h186z" />
    <glyph glyph-name="two.tf" 
d="M92 41q141 110 216 178t113.5 128t38.5 122q0 71 -43.5 113t-118.5 42q-77 0 -124 -48.5t-53 -131.5l-44 25q9 92 67.5 146.5t154.5 54.5q98 0 155.5 -54.5t57.5 -146.5q0 -66 -37 -128.5t-110.5 -131.5t-199.5 -163v-1l66 1h302v-46h-441v41z" />
    <glyph glyph-name="three.tf" 
d="M448.5 622q52.5 -48 52.5 -124q0 -66 -35.5 -112.5t-90.5 -51.5v-1q42 -1 74 -23t50 -58t18 -77q0 -55 -28 -97t-77.5 -65t-112.5 -23q-86 0 -143.5 40.5t-81.5 114.5l48 26q33 -135 180 -135q73 0 118 39t45 104q0 62 -41 96.5t-119 34.5h-37v46h37q70 0 107 36t37 98
q0 64 -38.5 99t-107.5 35q-60 0 -101 -30.5t-56 -84.5l-47 23q23 64 77.5 101t126.5 37q93 0 145.5 -48z" />
    <glyph glyph-name="four.tf" 
d="M373 188h-323v38l306 434h67v-429h136v-43h-136v-188h-50v188zM373 231v253q0 87 2 132h-2q-18 -34 -58 -90l-212 -295h270z" />
    <glyph glyph-name="five.tf" 
d="M431.5 386q47.5 -26 73.5 -73.5t26 -109.5q0 -97 -59.5 -155t-159.5 -58q-183 0 -228 155l48 24q29 -133 178 -133q76 0 122.5 45.5t46.5 119.5q-1 76 -45 120.5t-118 44.5q-117 0 -170 -74h-44l36 368h365v-46h-323l-26 -256l-2 -13h1q58 67 170 67q61 0 108.5 -26z" />
    <glyph glyph-name="six.tf" 
d="M462.5 637.5q47.5 -32.5 72.5 -97.5l-47 -22q-16 49 -53 77.5t-98 28.5q-67 0 -114 -42t-70 -112t-23 -154q0 -25 5 -67h3q6 50 35 85.5t71.5 54t88.5 18.5q99 0 157.5 -56.5t58.5 -152.5q0 -95 -59.5 -151.5t-160.5 -56.5q-119 0 -182.5 90.5t-63.5 249.5
q0 109 33 185.5t91.5 115.5t132.5 39q75 0 122.5 -32.5zM241.5 338q-38.5 -22 -60 -58.5t-21.5 -79.5q0 -72 46.5 -117.5t121.5 -45.5q79 0 124 44t45 119q0 72 -45 116t-122 44q-50 0 -88.5 -22z" />
    <glyph glyph-name="seven.tf" 
d="M568 660v-46q-133 -131 -200 -282t-72 -332h-52q5 175 72 330t196 284h-456v46h512z" />
    <glyph glyph-name="eight.tf" 
d="M446 623.5q54 -45.5 54 -121.5q0 -56 -30 -96.5t-82 -57.5v-1q65 -17 103 -63t38 -110q0 -55 -28.5 -96.5t-80 -64.5t-118.5 -23t-118.5 23t-80 64.5t-28.5 96.5q0 64 38.5 110t103.5 63v1q-53 17 -83.5 57.5t-30.5 96.5q0 76 54 121.5t145 45.5q90 0 144 -45.5zM195 589
q-40 -34 -40 -92t40.5 -92.5t106.5 -34.5t106.5 34.5t40.5 92.5t-40 92t-107 34t-107 -34zM429 75q48 39 48 103q0 65 -48 105t-127 40t-127.5 -40t-48.5 -105q0 -64 48.5 -103t127.5 -39t127 39z" />
    <glyph glyph-name="nine.tf" 
d="M469.5 579q63.5 -91 63.5 -249q0 -166 -64.5 -253t-179.5 -87q-86 0 -142 38t-78 107l50 26q14 -59 54.5 -92t114.5 -33q106 0 153 85t47 225q0 25 -6 69h-3q-4 -53 -33 -89.5t-73 -54.5t-90 -18q-98 0 -157 56.5t-59 152.5q0 95 60 151.5t161 56.5q118 0 181.5 -91z
M164.5 579q-45.5 -44 -45.5 -119q0 -73 45 -116.5t123 -43.5q48 0 86.5 22t60.5 59t22 79q0 72 -46.5 117.5t-120.5 45.5q-79 0 -124.5 -44z" />
    <glyph glyph-name="zero.tosf" 
d="M475.5 495.5q60.5 -74.5 60.5 -215.5t-60.5 -215.5t-173.5 -74.5t-173.5 74.5t-60.5 215.5t60.5 215.5t173.5 74.5t173.5 -74.5zM165.5 464q-47.5 -63 -47.5 -184t47.5 -184t136.5 -63t136.5 63t47.5 184t-47.5 184t-136.5 63t-136.5 -63z" />
    <glyph glyph-name="one.tosf" 
d="M551 44v-44h-443v44h207v366q0 26 2 88q-35 -39 -87.5 -70t-103.5 -45l-14 42q49 13 116 53.5t93 81.5h44v-516h186z" />
    <glyph glyph-name="two.tosf" 
d="M438.5 520.5q54.5 -49.5 54.5 -138.5q0 -67 -35.5 -122.5t-97.5 -101.5t-158 -98q-12 -8 -40 -18v-2l20 1q28 2 44 2h293v-43h-434v44q122 62 197 110t118.5 104.5t43.5 125.5q0 70 -43.5 106.5t-110.5 36.5q-70 0 -115.5 -43.5t-45.5 -115.5q0 -13 1 -20l-44 21
q-2 59 23 105t72 71t108 25q95 0 149.5 -49.5z" />
    <glyph glyph-name="three.tosf" 
d="M451 521.5q52 -48.5 52 -125.5q0 -67 -32 -109.5t-93 -52.5v-1q68 -4 104.5 -47.5t36.5 -109.5q0 -55 -27.5 -97t-77 -65.5t-112.5 -23.5q-86 0 -142.5 40t-80.5 115l44 25q35 -137 182 -137q74 0 119 40t45 107q0 64 -41 98t-120 34h-37v42h37q70 0 107.5 37t37.5 99
q0 67 -38 102t-109 35q-61 0 -102.5 -31t-56.5 -87l-45 23q23 64 77 101t126 37q94 0 146 -48.5z" />
    <glyph glyph-name="four.tosf" 
d="M381 88h-328v38l312 434h66v-429h131v-43h-131v-188h-50v188zM381 131v253q0 42 2 132h-1q-18 -32 -58 -88l-217 -297h274z" />
    <glyph glyph-name="five.tosf" 
d="M433 286q47 -26 73 -73.5t26 -109.5q0 -97 -59.5 -155t-159.5 -58q-183 0 -228 155l46 24q14 -67 60 -101.5t122 -34.5q77 0 123 45.5t46 122.5t-44.5 123t-120.5 46q-60 0 -101.5 -21.5t-67.5 -56.5h-45l36 368h365v-43h-324l-26 -259l-2 -13h1q60 67 172 67
q61 0 108 -26z" />
    <glyph glyph-name="six.tosf" 
d="M454.5 637.5q46.5 -32.5 71.5 -97.5l-45 -21q-32 108 -147 108q-69 0 -115.5 -42.5t-69 -113t-22.5 -155.5q0 -32 5 -70h3q4 51 33 87.5t72 55t88 18.5q98 0 155 -56.5t57 -152.5q0 -95 -58.5 -151.5t-157.5 -56.5q-118 0 -181 90.5t-63 249.5q0 109 33 185.5t90.5 115.5
t131.5 39q73 0 119.5 -32.5zM237.5 342.5q-38.5 -22.5 -59.5 -60.5t-21 -82q0 -74 46 -120.5t120 -46.5q78 0 122.5 45t44.5 122q0 75 -44.5 120t-120.5 45q-49 0 -87.5 -22.5z" />
    <glyph glyph-name="seven.tosf" 
d="M539 560v-46q-122 -129 -182.5 -279.5t-68.5 -334.5h-50q16 365 249 616h-423v44h475z" />
    <glyph glyph-name="eight.tosf" 
d="M447.5 623.5q55.5 -45.5 55.5 -121.5q0 -57 -30.5 -97t-84.5 -57v-1q67 -17 105.5 -63t38.5 -110q0 -55 -29 -96.5t-81.5 -64.5t-121.5 -23q-68 0 -120.5 23t-81.5 64.5t-29 96.5q0 64 38.5 110t105.5 63v1q-54 17 -84.5 57.5t-30.5 96.5q0 76 55 121.5t147 45.5
t147.5 -45.5zM189.5 592.5q-41.5 -34.5 -41.5 -93.5t41.5 -94.5t110.5 -35.5q70 0 111.5 35.5t41.5 94.5t-41.5 93.5t-111.5 34.5q-69 0 -110.5 -34.5zM432.5 72.5q49.5 39.5 49.5 105.5t-50 106.5t-132 40.5t-131.5 -40.5t-49.5 -106.5t49.5 -105.5t131.5 -39.5
q83 0 132.5 39.5z" />
    <glyph glyph-name="nine.tosf" 
d="M464.5 479q63.5 -91 63.5 -249q0 -106 -29.5 -183t-84.5 -117t-130 -40q-86 0 -142 38t-78 107l47 25q12 -60 54.5 -93.5t117.5 -33.5q99 0 149.5 84t50.5 215q0 35 -7 86h-3q-3 -52 -31.5 -89.5t-72 -56.5t-91.5 -19q-98 0 -157 56.5t-59 152.5q0 95 60 151.5t161 56.5
q118 0 181.5 -91zM158 482q-46 -45 -46 -122q0 -75 46 -120t124 -45q49 0 87.5 23t60.5 61t22 81q0 74 -46.5 120.5t-121.5 46.5q-80 0 -126 -45z" />
    <glyph glyph-name="zero.zero" horiz-adv-x="607" 
d="M482 582.5q62 -87.5 62 -252.5t-62 -252.5t-178 -87.5q-117 0 -179 87.5t-62 252.5t62 252.5t179 87.5q116 0 178 -87.5zM181 87l216 512q-40 26 -93 26q-92 0 -141 -76t-49 -219q0 -168 67 -243zM444.5 111q48.5 76 48.5 219q0 167 -66 242l-216 -511q40 -26 93 -26
q92 0 140.5 76z" />
    <glyph glyph-name="zero.osf.zero" horiz-adv-x="585" 
d="M466.5 495.5q59.5 -74.5 59.5 -215.5t-59.5 -215.5t-174.5 -74.5q-114 0 -173.5 74.5t-59.5 215.5t59.5 215.5t173.5 74.5q115 0 174.5 -74.5zM172 78l215 425q-39 24 -95 24q-89 0 -136 -63.5t-47 -183.5q0 -140 63 -202zM428.5 96q47.5 63 47.5 184q0 136 -59 198
l-215 -424q39 -21 90 -21q89 0 136.5 63z" />
    <glyph glyph-name="zero.tf.zero" 
d="M481 582.5q62 -87.5 62 -252.5t-62 -252.5t-179 -87.5t-179 87.5t-62 252.5t62 252.5t179 87.5t179 -87.5zM184 82l208 519q-37 24 -90 24q-92 0 -140.5 -76t-48.5 -219q0 -175 71 -248zM442.5 111q48.5 76 48.5 219q0 172 -69 246l-208 -518q38 -23 88 -23
q92 0 140.5 76z" />
    <glyph glyph-name="zero.tosf.zero" 
d="M475.5 495.5q60.5 -74.5 60.5 -215.5t-60.5 -215.5t-173.5 -74.5t-173.5 74.5t-60.5 215.5t60.5 215.5t173.5 74.5t173.5 -74.5zM189 71l216 426q-42 30 -103 30q-89 0 -136.5 -63t-47.5 -184q0 -149 71 -209zM438.5 96q47.5 63 47.5 184q0 126 -52 190l-213 -420
q33 -17 81 -17q89 0 136.5 63z" />
    <glyph glyph-name="fraction" unicode="&#x2044;" horiz-adv-x="226" 
d="M323 660h51l-471 -660h-51z" />
    <glyph glyph-name="onehalf" unicode="&#xbd;" horiz-adv-x="794" 
d="M164 665v-397h-45v279q0 20 2 68q-22 -23 -51.5 -40.5t-59.5 -25.5v38q30 8 65 30.5t50 47.5h39zM543 660h51l-471 -660h-51zM484 29l102 81q63 50 91.5 87.5t28.5 75.5q0 40 -24.5 64t-66.5 24q-45 0 -71.5 -27.5t-28.5 -74.5l-40 13q4 58 41.5 92t99.5 34
q64 0 100 -34.5t36 -88.5q0 -83 -134 -184l-75 -59v-1q20 2 46 2h175v-37h-280v33z" />
    <glyph glyph-name="onequarter" unicode="&#xbc;" horiz-adv-x="716" 
d="M164 665v-397h-45v279q0 20 2 68q-22 -23 -51.5 -40.5t-59.5 -25.5v38q30 8 65 30.5t50 47.5h39zM543 660h51l-471 -660h-51zM697 105h-76v-109h-39v109h-198v26l187 262h50v-255h76v-33zM582 138v157q0 20 2 60h-2l-12 -20l-9 -14t-11 -16l-122 -167h154z" />
    <glyph glyph-name="threequarters" unicode="&#xbe;" horiz-adv-x="833" 
d="M256.5 640.5q33.5 -29.5 33.5 -77.5q0 -38 -22 -63.5t-54 -31.5v-1q35 -2 60 -27.5t25 -65.5q0 -50 -38.5 -81t-99.5 -31q-56 0 -92 24t-50 70l42 19q16 -76 101 -76q41 0 66 21.5t25 58.5q0 34 -22.5 52.5t-66.5 18.5h-25v34h23q39 0 60 20.5t21 53.5q0 35 -21.5 55
t-60.5 20q-36 0 -59 -17.5t-30 -48.5l-41 15q12 42 47 65t85 23q60 0 93.5 -29.5zM659 660h51l-471 -660h-51zM813 105h-76v-109h-39v109h-198v26l187 262h50v-255h76v-33zM698 138v157q0 20 2 60h-2l-12 -20l-9 -14t-11 -16l-122 -167h154z" />
    <glyph glyph-name="zero.dnom" horiz-adv-x="378" 
d="M75 42q-39 52 -39 152t39 152t114 52t114 -52t39 -152t-39 -152t-114 -52t-114 52zM270.5 69.5q27.5 42.5 27.5 124.5t-27.5 124.5t-81.5 42.5q-53 0 -80.5 -42.5t-27.5 -124.5t27.5 -124.5t80.5 -42.5q54 0 81.5 42.5z" />
    <glyph glyph-name="one.dnom" horiz-adv-x="220" 
d="M164 393v-397h-45v279q0 32 3 68q-22 -23 -51.5 -40.5t-60.5 -25.5v38q30 8 65 30.5t50 47.5h39z" />
    <glyph glyph-name="two.dnom" horiz-adv-x="348" 
d="M38 29l102 81q63 50 91.5 87.5t28.5 75.5q0 40 -24.5 64t-66.5 24q-45 0 -71.5 -27.5t-28.5 -74.5l-40 13q4 58 41.5 92t99.5 34q64 0 100 -34.5t36 -88.5q0 -83 -134 -184l-75 -59v-1q20 2 46 2h175v-37h-280v33z" />
    <glyph glyph-name="three.dnom" horiz-adv-x="336" 
d="M256.5 368.5q33.5 -29.5 33.5 -77.5q0 -38 -22 -63.5t-54 -31.5v-1q35 -2 60 -27.5t25 -65.5q0 -50 -38.5 -81t-99.5 -31q-56 0 -92 24t-50 70l42 19q16 -76 101 -76q41 0 66 21.5t25 58.5q0 34 -22.5 52.5t-66.5 18.5h-25v34h23q39 0 60 20.5t21 53.5q0 35 -21.5 55
t-60.5 20q-36 0 -59 -17.5t-30 -48.5l-41 15q12 42 47 65t85 23q60 0 93.5 -29.5z" />
    <glyph glyph-name="four.dnom" horiz-adv-x="344" 
d="M325 105h-76v-109h-39v109h-198v26l187 262h50v-255h76v-33zM210 138v157q0 20 2 60h-2l-12 -20l-9 -14t-11 -16l-122 -167h154z" />
    <glyph glyph-name="five.dnom" horiz-adv-x="345" 
d="M279.5 212q35.5 -35 35.5 -90q0 -61 -39 -96t-102 -35q-112 0 -143 91l40 21q16 -75 102 -75q43 0 70 26t27 67q0 43 -24.5 67.5t-69.5 24.5q-36 0 -59 -11t-37 -33h-36l19 224h233v-37h-198l-11 -119q-3 -22 -5 -28h1q16 18 40.5 28t63.5 10q57 0 92.5 -35z" />
    <glyph glyph-name="six.dnom" horiz-adv-x="358" 
d="M75.5 42.5q-39.5 52.5 -39.5 151.5t44.5 151.5t115.5 52.5q92 0 122 -79l-37 -18q-10 28 -31 44t-55 16q-58 0 -87.5 -49t-29.5 -120q0 -21 1 -30h1q13 38 42.5 58.5t71.5 20.5q61 0 96.5 -34t35.5 -91q0 -59 -36.5 -92.5t-100.5 -33.5q-74 0 -113.5 52.5zM258 50
q25 24 25 66q0 41 -25 65t-68 24q-42 0 -69.5 -27t-27.5 -62q0 -39 27 -64.5t69 -25.5q44 0 69 24z" />
    <glyph glyph-name="seven.dnom" horiz-adv-x="304" 
d="M296 393v-37q-74 -78 -109.5 -166t-35.5 -194h-44q0 101 36 192t108 168h-247v37h292z" />
    <glyph glyph-name="eight.dnom" horiz-adv-x="366" 
d="M278.5 369q35.5 -28 35.5 -75q0 -33 -19 -57t-53 -34v-1q41 -11 65 -37t24 -64q0 -51 -40.5 -81t-107.5 -30t-107.5 30t-40.5 81q0 37 24 63.5t65 37.5v1q-34 10 -53.5 34t-19.5 57q0 47 35.5 75t96.5 28q60 0 95.5 -28zM119.5 343.5q-23.5 -19.5 -23.5 -51.5t23.5 -52
t63.5 -20t63.5 20t23.5 52t-23.5 51.5t-63.5 19.5t-63.5 -19.5zM257.5 47q28.5 22 28.5 57q0 36 -28.5 58t-74.5 22t-74.5 -22t-28.5 -58q0 -35 28.5 -57t74.5 -22t74.5 22z" />
    <glyph glyph-name="nine.dnom" horiz-adv-x="366" 
d="M289.5 344q40.5 -54 40.5 -151q0 -98 -41.5 -150.5t-113.5 -52.5q-53 0 -88.5 22t-49.5 64l42 18q15 -68 97 -68q58 0 85.5 47t27.5 113q0 17 -4 45h-1q-4 -35 -38 -59.5t-73 -24.5q-64 0 -100.5 34t-36.5 91q0 58 38 92t102 34q73 0 113.5 -54zM106 337q-26 -24 -26 -65
t26 -65t70 -24q42 0 69.5 26t27.5 62q0 39 -27 64.5t-69 25.5q-45 0 -71 -24z" />
    <glyph glyph-name="zero.numr" horiz-adv-x="378" 
d="M75 314q-39 52 -39 152t39 152t114 52t114 -52t39 -152t-39 -152t-114 -52t-114 52zM270.5 341.5q27.5 42.5 27.5 124.5t-27.5 124.5t-81.5 42.5q-53 0 -80.5 -42.5t-27.5 -124.5t27.5 -124.5t80.5 -42.5q54 0 81.5 42.5z" />
    <glyph glyph-name="one.numr" horiz-adv-x="220" 
d="M164 665v-397h-45v279q0 20 2 68q-22 -23 -51.5 -40.5t-59.5 -25.5v38q30 8 65 30.5t50 47.5h39z" />
    <glyph glyph-name="two.numr" horiz-adv-x="348" 
d="M38 301l102 81q63 50 91.5 87.5t28.5 75.5q0 40 -24.5 64t-66.5 24q-45 0 -71.5 -27.5t-28.5 -74.5l-40 13q4 58 41.5 92t99.5 34q64 0 100 -34.5t36 -88.5q0 -83 -134 -184l-75 -59v-1q20 2 46 2h175v-37h-280v33z" />
    <glyph glyph-name="three.numr" horiz-adv-x="336" 
d="M256.5 640.5q33.5 -29.5 33.5 -77.5q0 -38 -22 -63.5t-54 -31.5v-1q35 -2 60 -27.5t25 -65.5q0 -50 -38.5 -81t-99.5 -31q-56 0 -92 24t-50 70l42 19q16 -76 101 -76q41 0 66 21.5t25 58.5q0 34 -22.5 52.5t-66.5 18.5h-25v34h23q39 0 60 20.5t21 53.5q0 35 -21.5 55
t-60.5 20q-36 0 -59 -17.5t-30 -48.5l-41 15q12 42 47 65t85 23q60 0 93.5 -29.5z" />
    <glyph glyph-name="four.numr" horiz-adv-x="344" 
d="M325 377h-76v-109h-39v109h-198v26l187 262h50v-255h76v-33zM210 410v157q0 20 2 60h-2l-12 -20l-9 -14t-11 -16l-122 -167h154z" />
    <glyph glyph-name="five.numr" horiz-adv-x="345" 
d="M279.5 484q35.5 -35 35.5 -90q0 -61 -39 -96t-102 -35q-112 0 -143 91l40 21q16 -75 102 -75q43 0 70 26t27 67q0 43 -24.5 67.5t-69.5 24.5q-36 0 -59 -11t-37 -33h-36l19 224h233v-37h-198l-11 -119q-3 -22 -5 -28h1q16 18 40.5 28t63.5 10q57 0 92.5 -35z" />
    <glyph glyph-name="six.numr" horiz-adv-x="358" 
d="M75.5 314.5q-39.5 52.5 -39.5 151.5t44.5 151.5t115.5 52.5q92 0 122 -79l-37 -18q-10 28 -31 44t-55 16q-58 0 -87.5 -49t-29.5 -120q0 -21 1 -30h1q13 38 42.5 58.5t71.5 20.5q61 0 96.5 -34t35.5 -91q0 -59 -36.5 -92.5t-100.5 -33.5q-74 0 -113.5 52.5zM258 322
q25 24 25 66q0 41 -25 65t-68 24q-42 0 -69.5 -27t-27.5 -62q0 -39 27 -64.5t69 -25.5q44 0 69 24z" />
    <glyph glyph-name="seven.numr" horiz-adv-x="304" 
d="M296 665v-37q-74 -78 -109.5 -166t-35.5 -194h-44q0 101 36 192t108 168h-247v37h292z" />
    <glyph glyph-name="eight.numr" horiz-adv-x="366" 
d="M278.5 641q35.5 -28 35.5 -75q0 -33 -19 -57t-53 -34v-1q41 -11 65 -37t24 -64q0 -51 -40.5 -81t-107.5 -30t-107.5 30t-40.5 81q0 37 24 63.5t65 37.5v1q-34 10 -53.5 34t-19.5 57q0 47 35.5 75t96.5 28q60 0 95.5 -28zM119.5 615.5q-23.5 -19.5 -23.5 -51.5t23.5 -52
t63.5 -20t63.5 20t23.5 52t-23.5 51.5t-63.5 19.5t-63.5 -19.5zM257.5 319q28.5 22 28.5 57q0 36 -28.5 58t-74.5 22t-74.5 -22t-28.5 -58q0 -35 28.5 -57t74.5 -22t74.5 22z" />
    <glyph glyph-name="nine.numr" horiz-adv-x="366" 
d="M289.5 616q40.5 -54 40.5 -151q0 -98 -41.5 -150.5t-113.5 -52.5q-53 0 -88.5 22t-49.5 64l42 18q15 -68 97 -68q58 0 85.5 47t27.5 113q0 17 -4 45h-1q-4 -35 -38 -59.5t-73 -24.5q-64 0 -100.5 34t-36.5 91q0 58 38 92t102 34q73 0 113.5 -54zM106 609q-26 -24 -26 -65
t26 -65t70 -24q42 0 69.5 26t27.5 62q0 39 -27 64.5t-69 25.5q-45 0 -71 -24z" />
    <glyph glyph-name="uni2780" unicode="&#x2780;" horiz-adv-x="910" 
d="M263 7q-84 47 -130.5 131t-46.5 192t46.5 192t130.5 131t192 47t192 -47t130.5 -131t46.5 -192t-46.5 -192t-130.5 -131t-192 -47t-192 47zM624.5 40.5q74.5 42.5 116 118t41.5 171.5t-41.5 171.5t-116 118t-169.5 42.5t-169.5 -42.5t-116 -118t-41.5 -171.5t41.5 -171.5
t116 -118t169.5 -42.5t169.5 42.5zM495 533v-397h-45v279q0 32 3 68q-22 -23 -51.5 -40.5t-60.5 -25.5v38q30 8 65 30.5t50 47.5h39z" />
    <glyph glyph-name="uni2781" unicode="&#x2781;" horiz-adv-x="910" 
d="M263 7q-84 47 -130.5 131t-46.5 192t46.5 192t130.5 131t192 47t192 -47t130.5 -131t46.5 -192t-46.5 -192t-130.5 -131t-192 -47t-192 47zM624.5 40.5q74.5 42.5 116 118t41.5 171.5t-41.5 171.5t-116 118t-169.5 42.5t-169.5 -42.5t-116 -118t-41.5 -171.5t41.5 -171.5
t116 -118t169.5 -42.5t169.5 42.5zM320 179l102 81q63 50 91.5 87.5t28.5 75.5q0 40 -24.5 64t-66.5 24q-45 0 -71.5 -27.5t-28.5 -74.5l-40 13q4 58 41.5 92t99.5 34q64 0 100 -34.5t36 -88.5q0 -83 -134 -184l-75 -59v-1q20 2 46 2h175v-37h-280v33z" />
    <glyph glyph-name="uni2782" unicode="&#x2782;" horiz-adv-x="910" 
d="M263 7q-84 47 -130.5 131t-46.5 192t46.5 192t130.5 131t192 47t192 -47t130.5 -131t46.5 -192t-46.5 -192t-130.5 -131t-192 -47t-192 47zM624.5 40.5q74.5 42.5 116 118t41.5 171.5t-41.5 171.5t-116 118t-169.5 42.5t-169.5 -42.5t-116 -118t-41.5 -171.5t41.5 -171.5
t116 -118t169.5 -42.5t169.5 42.5zM552.5 505.5q33.5 -29.5 33.5 -77.5q0 -38 -22 -63.5t-54 -31.5v-1q35 -2 60 -27.5t25 -65.5q0 -50 -38.5 -81t-99.5 -31q-56 0 -92 24t-50 70l42 19q16 -76 101 -76q41 0 66 21.5t25 58.5q0 34 -22.5 52.5t-66.5 18.5h-25v34h23
q39 0 60 20.5t21 53.5q0 35 -21.5 55t-60.5 20q-36 0 -59 -17.5t-30 -48.5l-41 15q12 42 47 65t85 23q60 0 93.5 -29.5z" />
    <glyph glyph-name="uni2783" unicode="&#x2783;" horiz-adv-x="910" 
d="M263 7q-84 47 -130.5 131t-46.5 192t46.5 192t130.5 131t192 47t192 -47t130.5 -131t46.5 -192t-46.5 -192t-130.5 -131t-192 -47t-192 47zM624.5 40.5q74.5 42.5 116 118t41.5 171.5t-41.5 171.5t-116 118t-169.5 42.5t-169.5 -42.5t-116 -118t-41.5 -171.5t41.5 -171.5
t116 -118t169.5 -42.5t169.5 42.5zM589 245h-76v-109h-39v109h-198v26l187 262h50v-255h76v-33zM474 278v157q0 20 2 60h-2l-12 -20l-9 -14t-11 -16l-122 -167h154z" />
    <glyph glyph-name="uni2784" unicode="&#x2784;" horiz-adv-x="910" 
d="M263 7q-84 47 -130.5 131t-46.5 192t46.5 192t130.5 131t192 47t192 -47t130.5 -131t46.5 -192t-46.5 -192t-130.5 -131t-192 -47t-192 47zM624.5 40.5q74.5 42.5 116 118t41.5 171.5t-41.5 171.5t-116 118t-169.5 42.5t-169.5 -42.5t-116 -118t-41.5 -171.5t41.5 -171.5
t116 -118t169.5 -42.5t169.5 42.5zM560.5 344q35.5 -35 35.5 -90q0 -61 -39 -96t-102 -35q-112 0 -143 91l40 21q16 -75 102 -75q43 0 70 26t27 67q0 43 -24.5 67.5t-69.5 24.5q-36 0 -59 -11t-37 -33h-36l19 224h233v-37h-198l-11 -119q-3 -22 -5 -28h1q16 18 40.5 28
t63.5 10q57 0 92.5 -35z" />
    <glyph glyph-name="uni2785" unicode="&#x2785;" horiz-adv-x="910" 
d="M263 7q-84 47 -130.5 131t-46.5 192t46.5 192t130.5 131t192 47t192 -47t130.5 -131t46.5 -192t-46.5 -192t-130.5 -131t-192 -47t-192 47zM624.5 40.5q74.5 42.5 116 118t41.5 171.5t-41.5 171.5t-116 118t-169.5 42.5t-169.5 -42.5t-116 -118t-41.5 -171.5t41.5 -171.5
t116 -118t169.5 -42.5t169.5 42.5zM339.5 179.5q-39.5 52.5 -39.5 151.5t44.5 151.5t115.5 52.5q92 0 122 -79l-37 -18q-10 28 -31 44t-55 16q-58 0 -87.5 -49t-29.5 -120q0 -21 1 -30h1q13 38 42.5 58.5t71.5 20.5q61 0 96.5 -34t35.5 -91q0 -59 -36.5 -92.5t-100.5 -33.5
q-74 0 -113.5 52.5zM522 187q25 24 25 66q0 41 -25 65t-68 24q-42 0 -69.5 -27t-27.5 -62q0 -39 27 -64.5t69 -25.5q44 0 69 24z" />
    <glyph glyph-name="uni2786" unicode="&#x2786;" horiz-adv-x="910" 
d="M263 7q-84 47 -130.5 131t-46.5 192t46.5 192t130.5 131t192 47t192 -47t130.5 -131t46.5 -192t-46.5 -192t-130.5 -131t-192 -47t-192 47zM624.5 40.5q74.5 42.5 116 118t41.5 171.5t-41.5 171.5t-116 118t-169.5 42.5t-169.5 -42.5t-116 -118t-41.5 -171.5t41.5 -171.5
t116 -118t169.5 -42.5t169.5 42.5zM606 517v-37q-74 -78 -109.5 -166t-35.5 -194h-44q0 101 36 192t108 168h-247v37h292z" />
    <glyph glyph-name="uni2787" unicode="&#x2787;" horiz-adv-x="910" 
d="M263 7q-84 47 -130.5 131t-46.5 192t46.5 192t130.5 131t192 47t192 -47t130.5 -131t46.5 -192t-46.5 -192t-130.5 -131t-192 -47t-192 47zM624.5 40.5q74.5 42.5 116 118t41.5 171.5t-41.5 171.5t-116 118t-169.5 42.5t-169.5 -42.5t-116 -118t-41.5 -171.5t41.5 -171.5
t116 -118t169.5 -42.5t169.5 42.5zM550.5 506q35.5 -28 35.5 -75q0 -33 -19 -57t-53 -34v-1q41 -11 65 -37t24 -64q0 -51 -40.5 -81t-107.5 -30t-107.5 30t-40.5 81q0 37 24 63.5t65 37.5v1q-34 10 -53.5 34t-19.5 57q0 47 35.5 75t96.5 28q60 0 95.5 -28zM391.5 480.5
q-23.5 -19.5 -23.5 -51.5t23.5 -52t63.5 -20t63.5 20t23.5 52t-23.5 51.5t-63.5 19.5t-63.5 -19.5zM529.5 184q28.5 22 28.5 57q0 36 -28.5 58t-74.5 22t-74.5 -22t-28.5 -58q0 -35 28.5 -57t74.5 -22t74.5 22z" />
    <glyph glyph-name="uni2788" unicode="&#x2788;" horiz-adv-x="910" 
d="M263 7q-84 47 -130.5 131t-46.5 192t46.5 192t130.5 131t192 47t192 -47t130.5 -131t46.5 -192t-46.5 -192t-130.5 -131t-192 -47t-192 47zM624.5 40.5q74.5 42.5 116 118t41.5 171.5t-41.5 171.5t-116 118t-169.5 42.5t-169.5 -42.5t-116 -118t-41.5 -171.5t41.5 -171.5
t116 -118t169.5 -42.5t169.5 42.5zM568.5 481q40.5 -54 40.5 -151q0 -98 -41.5 -150.5t-113.5 -52.5q-53 0 -88.5 22t-49.5 64l42 18q15 -68 97 -68q58 0 85.5 47t27.5 113q0 17 -4 45h-1q-4 -35 -38 -59.5t-73 -24.5q-64 0 -100.5 34t-36.5 91q0 58 38 92t102 34
q73 0 113.5 -54zM385 474q-26 -24 -26 -65t26 -65t70 -24q42 0 69.5 26t27.5 62q0 39 -27 64.5t-69 25.5q-45 0 -71 -24z" />
    <glyph glyph-name="uni2080" unicode="&#x2080;" horiz-adv-x="378" 
d="M75 -143q-39 52 -39 152t39 152t114 52t114 -52t39 -152t-39 -152t-114 -52t-114 52zM270.5 -115.5q27.5 42.5 27.5 124.5t-27.5 124.5t-81.5 42.5q-53 0 -80.5 -42.5t-27.5 -124.5t27.5 -124.5t80.5 -42.5q54 0 81.5 42.5z" />
    <glyph glyph-name="uni2081" unicode="&#x2081;" horiz-adv-x="220" 
d="M164 208v-397h-45v279q0 32 3 68q-22 -23 -51.5 -40.5t-60.5 -25.5v38q30 8 65 30.5t50 47.5h39z" />
    <glyph glyph-name="uni2082" unicode="&#x2082;" horiz-adv-x="348" 
d="M38 -156l102 81q63 50 91.5 87.5t28.5 75.5q0 40 -24.5 64t-66.5 24q-45 0 -71.5 -27.5t-28.5 -74.5l-40 13q4 58 41.5 92t99.5 34q64 0 100 -34.5t36 -88.5q0 -83 -134 -184l-75 -59v-1q20 2 46 2h175v-37h-280v33z" />
    <glyph glyph-name="uni2083" unicode="&#x2083;" horiz-adv-x="336" 
d="M256.5 183.5q33.5 -29.5 33.5 -77.5q0 -38 -22 -63.5t-54 -31.5v-1q35 -2 60 -27.5t25 -65.5q0 -50 -38.5 -81t-99.5 -31q-56 0 -92 24t-50 70l42 19q16 -76 101 -76q41 0 66 21.5t25 58.5q0 34 -22.5 52.5t-66.5 18.5h-25v34h23q39 0 60 20.5t21 53.5q0 35 -21.5 55
t-60.5 20q-36 0 -59 -17.5t-30 -48.5l-41 15q12 42 47 65t85 23q60 0 93.5 -29.5z" />
    <glyph glyph-name="uni2084" unicode="&#x2084;" horiz-adv-x="344" 
d="M325 -80h-76v-109h-39v109h-198v26l187 262h50v-255h76v-33zM210 -47v157q0 20 2 60h-2l-12 -20l-9 -14t-11 -16l-122 -167h154z" />
    <glyph glyph-name="uni2085" unicode="&#x2085;" horiz-adv-x="345" 
d="M279.5 27q35.5 -35 35.5 -90q0 -61 -39 -96t-102 -35q-112 0 -143 91l40 21q16 -75 102 -75q43 0 70 26t27 67q0 43 -24.5 67.5t-69.5 24.5q-36 0 -59 -11t-37 -33h-36l19 224h233v-37h-198l-11 -119q-3 -22 -5 -28h1q16 18 40.5 28t63.5 10q57 0 92.5 -35z" />
    <glyph glyph-name="uni2086" unicode="&#x2086;" horiz-adv-x="358" 
d="M75.5 -142.5q-39.5 52.5 -39.5 151.5t44.5 151.5t115.5 52.5q92 0 122 -79l-37 -18q-10 28 -31 44t-55 16q-58 0 -87.5 -49t-29.5 -120q0 -21 1 -30h1q13 38 42.5 58.5t71.5 20.5q61 0 96.5 -34t35.5 -91q0 -59 -36.5 -92.5t-100.5 -33.5q-74 0 -113.5 52.5zM258 -135
q25 24 25 66q0 41 -25 65t-68 24q-42 0 -69.5 -27t-27.5 -62q0 -39 27 -64.5t69 -25.5q44 0 69 24z" />
    <glyph glyph-name="uni2087" unicode="&#x2087;" horiz-adv-x="304" 
d="M296 208v-37q-74 -78 -109.5 -166t-35.5 -194h-44q0 101 36 192t108 168h-247v37h292z" />
    <glyph glyph-name="uni2088" unicode="&#x2088;" horiz-adv-x="366" 
d="M278.5 184q35.5 -28 35.5 -75q0 -33 -19 -57t-53 -34v-1q41 -11 65 -37t24 -64q0 -51 -40.5 -81t-107.5 -30t-107.5 30t-40.5 81q0 37 24 63.5t65 37.5v1q-34 10 -53.5 34t-19.5 57q0 47 35.5 75t96.5 28q60 0 95.5 -28zM119.5 158.5q-23.5 -19.5 -23.5 -51.5t23.5 -52
t63.5 -20t63.5 20t23.5 52t-23.5 51.5t-63.5 19.5t-63.5 -19.5zM257.5 -138q28.5 22 28.5 57q0 36 -28.5 58t-74.5 22t-74.5 -22t-28.5 -58q0 -35 28.5 -57t74.5 -22t74.5 22z" />
    <glyph glyph-name="uni2089" unicode="&#x2089;" horiz-adv-x="366" 
d="M289.5 159q40.5 -54 40.5 -151q0 -98 -41.5 -150.5t-113.5 -52.5q-53 0 -88.5 22t-49.5 64l42 18q15 -68 97 -68q58 0 85.5 47t27.5 113q0 17 -4 45h-1q-4 -35 -38 -59.5t-73 -24.5q-64 0 -100.5 34t-36.5 91q0 58 38 92t102 34q73 0 113.5 -54zM106 152q-26 -24 -26 -65
t26 -65t70 -24q42 0 69.5 26t27.5 62q0 39 -27 64.5t-69 25.5q-45 0 -71 -24z" />
    <glyph glyph-name="uni2070" unicode="&#x2070;" horiz-adv-x="378" 
d="M75 379q-39 52 -39 152t39 152t114 52t114 -52t39 -152t-39 -152t-114 -52t-114 52zM270.5 406.5q27.5 42.5 27.5 124.5t-27.5 124.5t-81.5 42.5q-53 0 -80.5 -42.5t-27.5 -124.5t27.5 -124.5t80.5 -42.5q54 0 81.5 42.5z" />
    <glyph glyph-name="uni00B9" unicode="&#xb9;" horiz-adv-x="220" 
d="M164 730v-397h-45v279q0 32 3 68q-22 -23 -51.5 -40.5t-60.5 -25.5v38q30 8 65 30.5t50 47.5h39z" />
    <glyph glyph-name="uni00B2" unicode="&#xb2;" horiz-adv-x="348" 
d="M38 366l102 81q63 50 91.5 87.5t28.5 75.5q0 40 -24.5 64t-66.5 24q-45 0 -71.5 -27.5t-28.5 -74.5l-40 13q4 58 41.5 92t99.5 34q64 0 100 -34.5t36 -88.5q0 -83 -134 -184l-75 -59v-1q20 2 46 2h175v-37h-280v33z" />
    <glyph glyph-name="uni00B3" unicode="&#xb3;" horiz-adv-x="336" 
d="M256.5 705.5q33.5 -29.5 33.5 -77.5q0 -38 -22 -63.5t-54 -31.5v-1q35 -2 60 -27.5t25 -65.5q0 -50 -38.5 -81t-99.5 -31q-56 0 -92 24t-50 70l42 19q16 -76 101 -76q41 0 66 21.5t25 58.5q0 34 -22.5 52.5t-66.5 18.5h-25v34h23q39 0 60 20.5t21 53.5q0 35 -21.5 55
t-60.5 20q-36 0 -59 -17.5t-30 -48.5l-41 15q12 42 47 65t85 23q60 0 93.5 -29.5z" />
    <glyph glyph-name="uni2074" unicode="&#x2074;" horiz-adv-x="344" 
d="M325 442h-76v-109h-39v109h-198v26l187 262h50v-255h76v-33zM210 475v157q0 20 2 60h-2l-12 -20l-9 -14t-11 -16l-122 -167h154z" />
    <glyph glyph-name="uni2075" unicode="&#x2075;" horiz-adv-x="345" 
d="M279.5 549q35.5 -35 35.5 -90q0 -61 -39 -96t-102 -35q-112 0 -143 91l40 21q16 -75 102 -75q43 0 70 26t27 67q0 43 -24.5 67.5t-69.5 24.5q-36 0 -59 -11t-37 -33h-36l19 224h233v-37h-198l-11 -119q-3 -22 -5 -28h1q16 18 40.5 28t63.5 10q57 0 92.5 -35z" />
    <glyph glyph-name="uni2076" unicode="&#x2076;" horiz-adv-x="358" 
d="M75.5 379.5q-39.5 52.5 -39.5 151.5t44.5 151.5t115.5 52.5q92 0 122 -79l-37 -18q-10 28 -31 44t-55 16q-58 0 -87.5 -49t-29.5 -120q0 -21 1 -30h1q13 38 42.5 58.5t71.5 20.5q61 0 96.5 -34t35.5 -91q0 -59 -36.5 -92.5t-100.5 -33.5q-74 0 -113.5 52.5zM258 387
q25 24 25 66q0 41 -25 65t-68 24q-42 0 -69.5 -27t-27.5 -62q0 -39 27 -64.5t69 -25.5q44 0 69 24z" />
    <glyph glyph-name="uni2077" unicode="&#x2077;" horiz-adv-x="304" 
d="M296 730v-37q-74 -78 -109.5 -166t-35.5 -194h-44q0 101 36 192t108 168h-247v37h292z" />
    <glyph glyph-name="uni2078" unicode="&#x2078;" horiz-adv-x="366" 
d="M278.5 706q35.5 -28 35.5 -75q0 -33 -19 -57t-53 -34v-1q41 -11 65 -37t24 -64q0 -51 -40.5 -81t-107.5 -30t-107.5 30t-40.5 81q0 37 24 63.5t65 37.5v1q-34 10 -53.5 34t-19.5 57q0 47 35.5 75t96.5 28q60 0 95.5 -28zM119.5 680.5q-23.5 -19.5 -23.5 -51.5t23.5 -52
t63.5 -20t63.5 20t23.5 52t-23.5 51.5t-63.5 19.5t-63.5 -19.5zM257.5 384q28.5 22 28.5 57q0 36 -28.5 58t-74.5 22t-74.5 -22t-28.5 -58q0 -35 28.5 -57t74.5 -22t74.5 22z" />
    <glyph glyph-name="uni2079" unicode="&#x2079;" horiz-adv-x="366" 
d="M289.5 681q40.5 -54 40.5 -151q0 -98 -41.5 -150.5t-113.5 -52.5q-53 0 -88.5 22t-49.5 64l42 18q15 -68 97 -68q58 0 85.5 47t27.5 113q0 17 -4 45h-1q-4 -35 -38 -59.5t-73 -24.5q-64 0 -100.5 34t-36.5 91q0 58 38 92t102 34q73 0 113.5 -54zM106 674q-26 -24 -26 -65
t26 -65t70 -24q42 0 69.5 26t27.5 62q0 39 -27 64.5t-69 25.5q-45 0 -71 -24z" />
    <glyph glyph-name="zero.sc" horiz-adv-x="563" 
d="M450.5 495.5q58.5 -74.5 58.5 -215.5t-58.5 -215.5t-169.5 -74.5q-110 0 -168.5 74.5t-58.5 215.5t58.5 215.5t168.5 74.5q111 0 169.5 -74.5zM149.5 464q-45.5 -63 -45.5 -184t45.5 -184t131.5 -63t132 63.5t46 183.5t-46 183.5t-132 63.5t-131.5 -63z" />
    <glyph glyph-name="one.sc" horiz-adv-x="344" 
d="M252 560v-560h-50v429q0 41 1 62q-31 -35 -75 -60.5t-93 -40.5l-13 43q49 13 104.5 49t80.5 78h45z" />
    <glyph glyph-name="two.sc" horiz-adv-x="519" 
d="M402 520.5q52 -47.5 52 -124.5q0 -69 -39.5 -129t-104.5 -111.5t-164 -113.5v-1q38 2 59 2h269v-43h-405v41q114 71 185 125t110.5 109t39.5 115q0 61 -39 98t-108 37q-66 0 -108.5 -41t-42.5 -102q0 -13 1 -19l-43 21q-2 52 21 94t67.5 66t105.5 24q92 0 144 -47.5z" />
    <glyph glyph-name="three.sc" horiz-adv-x="497" 
d="M377 528q47 -40 47 -107q0 -56 -32 -94.5t-80 -43.5v-1q56 -2 91 -37t35 -90q0 -74 -54.5 -118.5t-139.5 -44.5q-79 0 -129.5 33.5t-70.5 97.5l47 24q26 -112 155 -112q64 0 103 32.5t39 86.5q0 52 -35 80t-103 28h-35v40h34q61 0 93 30.5t32 81.5q0 53 -34 82t-94 29
q-53 0 -88.5 -25.5t-48.5 -71.5l-46 20q19 57 68.5 88.5t115.5 31.5q83 0 130 -40z" />
    <glyph glyph-name="four.sc" horiz-adv-x="520" 
d="M331 156h-292v34l276 370h64v-363h112v-41h-112v-156h-48v156zM331 197v319h-2q-20 -33 -37 -56l-199 -263h238z" />
    <glyph glyph-name="five.sc" horiz-adv-x="497" 
d="M395 301q51 -49 51 -127q0 -84 -53.5 -133t-142.5 -49q-81 0 -132.5 31t-72.5 98l46 24q26 -110 157 -110q67 0 107.5 37.5t40.5 99.5q-1 62 -39.5 98.5t-103.5 36.5q-51 0 -89 -16.5t-60 -43.5l-42 2l32 311h327v-43h-287l-20 -204l-3 -21h1q23 27 58 42.5t92 15.5
q82 0 133 -49z" />
    <glyph glyph-name="six.sc" horiz-adv-x="509" 
d="M106.5 65.5q-55.5 73.5 -55.5 212.5q0 94 29.5 159t80.5 98t117 33t108 -27.5t64 -82.5l-45 -21q-29 88 -129 88q-59 0 -99 -34.5t-60 -92t-20 -125.5q0 -22 4 -58h3q5 38 30 67.5t62 45.5t76 16q88 0 138.5 -47.5t50.5 -128.5q0 -80 -51.5 -128t-138.5 -48
q-109 0 -164.5 73.5zM372.5 71q38.5 36 38.5 98q0 60 -38 96t-104 36q-43 0 -76 -18.5t-51.5 -48.5t-18.5 -65q0 -59 39.5 -96.5t103.5 -37.5q68 0 106.5 36z" />
    <glyph glyph-name="seven.sc" horiz-adv-x="479" 
d="M457 560v-42q-108 -108 -161.5 -235t-61.5 -283h-50q14 307 220 517h-373v43h426z" />
    <glyph glyph-name="eight.sc" horiz-adv-x="531" 
d="M113.5 34.5q-57.5 42.5 -57.5 113.5q0 54 36 92.5t96 52.5v1q-51 14 -80 48t-29 82q0 66 50.5 104.5t135.5 38.5q86 0 137 -38.5t51 -104.5q0 -47 -29 -81.5t-80 -48.5v-1q60 -14 95.5 -53t35.5 -92q0 -71 -57.5 -113.5t-152.5 -42.5q-94 0 -151.5 42.5zM365 343.5
q38 29.5 38 77.5t-37.5 76t-100.5 28t-100 -28t-37 -76t38 -77.5t99 -29.5q62 0 100 29.5zM381.5 66q43.5 32 43.5 85q0 54 -44 87t-116 33q-71 0 -115 -33t-44 -87q0 -52 44 -84.5t115 -32.5q73 0 116.5 32z" />
    <glyph glyph-name="nine.sc" horiz-adv-x="521" 
d="M123.5 23.5q-50.5 31.5 -69.5 89.5l48 24q25 -102 148 -102q92 0 132.5 69t40.5 181q0 30 -5 63h-2q-4 -43 -29.5 -73.5t-62.5 -45.5t-74 -15q-92 0 -145 48t-53 129t54 129t145 48q104 0 160.5 -76.5t56.5 -211.5q0 -140 -58 -214t-160 -74q-76 0 -126.5 31.5z
M326.5 276.5q33.5 18.5 52 48.5t18.5 65q0 58 -41.5 96.5t-104.5 38.5q-69 0 -109 -36t-40 -98q0 -61 40 -97t107 -36q44 0 77.5 18.5z" />
    <glyph glyph-name="asterisk" unicode="*" horiz-adv-x="543" 
d="M347 436l74 -104l-33 -24l-76 102l-41 69l-40 -69l-76 -102l-33 24l74 104l52 60l-78 18l-120 40l12 39l121 -38l74 -31l-7 79v127h43v-127l-7 -79l73 31l122 38l12 -39l-120 -40l-78 -18z" />
    <glyph glyph-name="backslash" unicode="\" horiz-adv-x="396" 
d="M80 730l285 -800h-48l-285 800h48z" />
    <glyph glyph-name="periodcentered" unicode="&#xb7;" horiz-adv-x="210" 
d="M137.5 389.5q12.5 -12.5 12.5 -32.5t-12.5 -32t-32.5 -12t-32.5 12t-12.5 32t12.5 32.5t32.5 12.5t32.5 -12.5z" />
    <glyph glyph-name="bullet" unicode="&#x2022;" horiz-adv-x="430" 
d="M283 404q27 -26 27 -66t-27 -66t-68 -26t-68 26t-27 66t27 66t68 26t68 -26z" />
    <glyph glyph-name="colon" unicode=":" horiz-adv-x="247" 
d="M156.5 492.5q12.5 -12.5 12.5 -32.5t-12.5 -32.5t-32.5 -12.5t-32.5 12.5t-12.5 32.5t12.5 32.5t32.5 12.5t32.5 -12.5zM156.5 69.5q12.5 -12.5 12.5 -32.5t-12.5 -32.5t-32.5 -12.5t-32.5 12.5t-12.5 32.5t12.5 32.5t32.5 12.5t32.5 -12.5z" />
    <glyph glyph-name="comma" unicode="," horiz-adv-x="220" 
d="M151.5 62q14.5 -20 14.5 -53q0 -42 -22 -79t-64 -58l-28 25q35 13 57.5 44t20.5 60l-3 1q-7 -10 -23 -10q-15 0 -27 12t-12 32q0 19 13.5 32.5t32.5 13.5q26 0 40.5 -20z" />
    <glyph glyph-name="ellipsis" unicode="&#x2026;" horiz-adv-x="706" 
d="M622.5 69.5q12.5 -12.5 12.5 -32.5t-12.5 -32.5t-32.5 -12.5t-32.5 12.5t-12.5 32.5t12.5 32.5t32.5 12.5t32.5 -12.5zM385.5 69.5q12.5 -12.5 12.5 -32.5t-12.5 -32.5t-32.5 -12.5t-32.5 12.5t-12.5 32.5t12.5 32.5t32.5 12.5t32.5 -12.5zM149.5 69.5
q12.5 -12.5 12.5 -32.5t-12.5 -32.5t-32.5 -12.5t-32.5 12.5t-12.5 32.5t12.5 32.5t32.5 12.5t32.5 -12.5z" />
    <glyph glyph-name="exclam" unicode="!" horiz-adv-x="230" 
d="M141 340l-6 -150h-40l-6 150v320h52v-320zM147.5 69.5q12.5 -12.5 12.5 -32.5t-12.5 -32.5t-32.5 -12.5t-32.5 12.5t-12.5 32.5t12.5 32.5t32.5 12.5t32.5 -12.5z" />
    <glyph glyph-name="exclamdown" unicode="&#xa1;" horiz-adv-x="222" 
d="M78.5 430.5q-12.5 12.5 -12.5 32.5t12.5 32.5t32.5 12.5t32.5 -12.5t12.5 -32.5t-12.5 -32.5t-32.5 -12.5t-32.5 12.5zM85 160l6 150h40l6 -150v-320h-52v320z" />
    <glyph glyph-name="numbersign" unicode="#" horiz-adv-x="636" 
d="M466 429l-30 -191h132v-39h-139l-31 -199h-44l32 199h-181l-31 -199h-44l32 199h-131v39h137l30 191h-130v39h137l30 192h44l-31 -192h181l30 192h44l-31 -192h133v-39h-139zM423 429h-181l-30 -191h180z" />
    <glyph glyph-name="period" unicode="." horiz-adv-x="220" 
d="M142.5 69.5q12.5 -12.5 12.5 -32.5t-12.5 -32.5t-32.5 -12.5t-32.5 12.5t-12.5 32.5t12.5 32.5t32.5 12.5t32.5 -12.5z" />
    <glyph glyph-name="question" unicode="?" horiz-adv-x="510" 
d="M407 624q57 -46 57 -124q0 -161 -193 -201v-118h-51v145q105 24 148.5 62.5t43.5 106.5q0 60 -42 94.5t-115 34.5q-78 0 -122.5 -38.5t-53.5 -109.5l-44 24q15 80 71.5 125t151.5 45q92 0 149 -46zM277 69.5q12 -12.5 12 -32.5t-12 -32.5t-32 -12.5t-32.5 12.5
t-12.5 32.5t12.5 32.5t32.5 12.5t32 -12.5z" />
    <glyph glyph-name="questiondown" unicode="&#xbf;" horiz-adv-x="505" 
d="M230 428.5q-12 12.5 -12 32.5t12 32.5t32 12.5t32.5 -12.5t12.5 -32.5t-12.5 -32.5t-32.5 -12.5t-32 12.5zM100.5 -126.5q-57.5 45.5 -57.5 123.5q0 162 193 202v118h52v-145q-106 -25 -149.5 -63t-43.5 -106q0 -60 42 -94.5t115 -34.5q78 0 122.5 38.5t53.5 109.5
l44 -25q-15 -80 -71.5 -124.5t-151.5 -44.5q-91 0 -148.5 45.5z" />
    <glyph glyph-name="quotedbl" unicode="&#x22;" horiz-adv-x="327" 
d="M248 480h-40v205h54zM115 480h-40v205h54z" />
    <glyph glyph-name="quotesingle" unicode="'" horiz-adv-x="194" 
d="M115 480h-40v205h54z" />
    <glyph glyph-name="semicolon" unicode=";" horiz-adv-x="247" 
d="M95.5 428q-12.5 12 -12.5 32t12.5 32.5t32.5 12.5t32.5 -12.5t12.5 -32.5t-12.5 -32t-32.5 -12t-32.5 12zM165.5 62q14.5 -20 14.5 -53q0 -42 -22 -79t-64 -58l-27 25q34 13 56.5 44t20.5 60l-3 1q-7 -10 -23 -10q-15 0 -27 12t-12 32q0 19 13.5 32.5t32.5 13.5
q26 0 40.5 -20z" />
    <glyph glyph-name="slash" unicode="/" horiz-adv-x="396" 
d="M79 -70h-48l285 800h48z" />
    <glyph glyph-name="underscore" unicode="_" horiz-adv-x="520" 
d="M520 -143h-520v46h520v-46z" />
    <glyph glyph-name="periodcentered.case" horiz-adv-x="210" 
d="M137.5 371.5q12.5 -12.5 12.5 -32.5t-12.5 -32.5t-32.5 -12.5t-32.5 12.5t-12.5 32.5t12.5 32.5t32.5 12.5t32.5 -12.5z" />
    <glyph glyph-name="exclamdown.case" horiz-adv-x="222" 
d="M78.5 590.5q-12.5 12.5 -12.5 32.5t12.5 32.5t32.5 12.5t32.5 -12.5t12.5 -32.5t-12.5 -32.5t-32.5 -12.5t-32.5 12.5zM85 320l6 150h40l6 -150v-320h-52v320z" />
    <glyph glyph-name="periodcentered.loclCAT.case" horiz-adv-x="20" 
d="M-30.5 371.5q12.5 -12.5 12.5 -32.5t-12.5 -32.5t-32.5 -12.5t-32.5 12.5t-12.5 32.5t12.5 32.5t32.5 12.5t32.5 -12.5z" />
    <glyph glyph-name="questiondown.case" horiz-adv-x="505" 
d="M230 593.5q-12 12.5 -12 32.5t12 32.5t32 12.5t32.5 -12.5t12.5 -32.5t-12.5 -32.5t-32.5 -12.5t-32 12.5zM100.5 38.5q-57.5 45.5 -57.5 123.5q0 162 193 202v118h52v-145q-106 -25 -149.5 -63t-43.5 -106q0 -60 42 -94.5t115 -34.5q78 0 122.5 38.5t53.5 109.5l44 -25
q-15 -80 -71.5 -124.5t-151.5 -44.5q-91 0 -148.5 45.5z" />
    <glyph glyph-name="periodcentered.loclCAT" horiz-adv-x="80" 
d="M47.5 389.5q12.5 -12.5 12.5 -32.5t-12.5 -32t-32.5 -12t-32.5 12.5t-12.5 31.5q0 20 12.5 32.5t32.5 12.5t32.5 -12.5z" />
    <glyph glyph-name="periodcentered.loclCAT.ss02" horiz-adv-x="210" 
d="M137.5 389.5q12.5 -12.5 12.5 -32.5t-12.5 -32.5t-32.5 -12.5t-32.5 12.5t-12.5 32.5t12.5 32.5t32.5 12.5t32.5 -12.5z" />
    <glyph glyph-name="colon.tf" horiz-adv-x="302" 
d="M183.5 492.5q12.5 -12.5 12.5 -32.5t-12.5 -32.5t-32.5 -12.5t-32.5 12.5t-12.5 32.5t12.5 32.5t32.5 12.5t32.5 -12.5zM183.5 69.5q12.5 -12.5 12.5 -32.5t-12.5 -32.5t-32.5 -12.5t-32.5 12.5t-12.5 32.5t12.5 32.5t32.5 12.5t32.5 -12.5z" />
    <glyph glyph-name="comma.tf" horiz-adv-x="302" 
d="M193.5 62q14.5 -20 14.5 -53q0 -42 -22 -79t-64 -58l-28 25q35 13 57.5 44t20.5 60l-3 1q-7 -10 -23 -10q-15 0 -27 12t-12 32q0 19 13.5 32.5t32.5 13.5q26 0 40.5 -20z" />
    <glyph glyph-name="numbersign.tf" 
d="M448 429l-29 -191h116v-39h-122l-30 -199h-44l30 199h-170l-30 -199h-44l30 199h-127v39h132l29 191h-120v39h126l29 192h45l-29 -192h169l29 192h45l-29 -192h122v-39h-128zM403 429h-169l-29 -191h170z" />
    <glyph glyph-name="period.tf" horiz-adv-x="302" 
d="M183.5 69.5q12.5 -12.5 12.5 -32.5t-12.5 -32.5t-32.5 -12.5t-32.5 12.5t-12.5 32.5t12.5 32.5t32.5 12.5t32.5 -12.5z" />
    <glyph glyph-name="semicolon.tf" horiz-adv-x="302" 
d="M124.5 428.5q-12.5 12.5 -12.5 31.5q0 20 12 32.5t32 12.5t32.5 -12.5t12.5 -32.5t-12.5 -32t-32.5 -12q-19 0 -31.5 12.5zM193.5 62q14.5 -20 14.5 -53q0 -42 -21.5 -79t-63.5 -58l-28 25q35 13 57 43.5t21 60.5l-3 1q-8 -10 -23 -10t-27 12t-12 32q0 19 13 32.5
t32 13.5q26 0 40.5 -20z" />
    <glyph glyph-name="uni208D" unicode="&#x208d;" horiz-adv-x="209" 
d="M217 272q-53 -55 -78.5 -117.5t-25.5 -145.5t25 -145t79 -117l-25 -23q-59 54 -90.5 126.5t-31.5 158.5t31.5 158.5t90.5 126.5z" />
    <glyph glyph-name="uni208E" unicode="&#x208e;" horiz-adv-x="209" 
d="M107.5 167.5q31.5 -72.5 31.5 -158.5t-31.5 -158.5t-89.5 -126.5l-25 23q53 55 78 117.5t25 144.5q0 83 -25 145.5t-78 117.5l25 22q58 -54 89.5 -126.5z" />
    <glyph glyph-name="braceleft" unicode="{" horiz-adv-x="308" 
d="M277 -139l-7 -41q-138 0 -138 118v224q0 51 -28 75t-85 24v44q57 0 85 24.5t28 74.5v223q0 58 34 88.5t104 30.5l7 -41q-49 0 -73.5 -19t-24.5 -55v-231q0 -46 -25 -76t-72 -41q47 -11 72 -41t25 -76v-231q0 -74 98 -74z" />
    <glyph glyph-name="braceright" unicode="}" horiz-adv-x="308" 
d="M204 329.5q28 -24.5 85 -24.5v-44q-57 0 -85 -24t-28 -75v-224q0 -118 -138 -118l-7 41q98 0 98 74v231q0 46 25 76t71 41q-46 11 -71 41.5t-25 75.5v231q0 36 -24.5 55t-73.5 19l7 41q70 0 104 -30.5t34 -88.5v-223q0 -50 28 -74.5z" />
    <glyph glyph-name="bracketleft" unicode="[" horiz-adv-x="311" 
d="M129 686v-810h159v-44h-206v898h206v-44h-159z" />
    <glyph glyph-name="bracketright" unicode="]" horiz-adv-x="311" 
d="M229 -168h-206v44h159v810h-159v44h206v-898z" />
    <glyph glyph-name="parenleft" unicode="(" horiz-adv-x="305" 
d="M285 717q-94 -83 -135.5 -186.5t-41.5 -247.5t41.5 -247.5t135.5 -186.5l-28 -29q-101 86 -150.5 200.5t-49.5 262.5q0 147 49.5 262t150.5 201z" />
    <glyph glyph-name="parenright" unicode=")" horiz-adv-x="305" 
d="M197.5 545q49.5 -115 49.5 -262t-49.5 -262t-149.5 -201l-28 29q94 83 135.5 186.5t41.5 247.5t-41.5 247.5t-135.5 186.5l28 29q100 -86 149.5 -201z" />
    <glyph glyph-name="uni207D" unicode="&#x207d;" horiz-adv-x="209" 
d="M217 794q-53 -55 -78.5 -117.5t-25.5 -145.5t25 -145t79 -117l-25 -23q-59 54 -90.5 126.5t-31.5 158.5t31.5 158.5t90.5 126.5z" />
    <glyph glyph-name="uni207E" unicode="&#x207e;" horiz-adv-x="209" 
d="M107.5 689.5q31.5 -72.5 31.5 -158.5t-31.5 -158.5t-89.5 -126.5l-25 23q53 55 78 117.5t25 144.5q0 83 -25 145.5t-78 117.5l25 22q58 -54 89.5 -126.5z" />
    <glyph glyph-name="braceleft.case" horiz-adv-x="308" 
d="M277 -68l-7 -41q-138 0 -138 118v198q0 50 -28 74.5t-85 24.5v43q57 0 85 24.5t28 75.5v200q0 58 34 88.5t104 30.5l7 -41q-49 0 -73.5 -19t-24.5 -55v-208q0 -46 -25 -76t-72 -41q47 -11 72 -41t25 -76v-205q0 -74 98 -74z" />
    <glyph glyph-name="braceright.case" horiz-adv-x="308" 
d="M204 373.5q28 -24.5 85 -24.5v-43q-57 0 -85 -24.5t-28 -74.5v-198q0 -118 -138 -118l-7 41q98 0 98 74v205q0 45 25 75.5t71 41.5q-46 11 -71 41t-25 76v208q0 36 -24.5 55t-73.5 19l7 41q70 0 104 -30.5t34 -88.5v-200q0 -51 28 -75.5z" />
    <glyph glyph-name="bracketleft.case" horiz-adv-x="311" 
d="M129 708v-761h159v-44h-206v849h206v-44h-159z" />
    <glyph glyph-name="bracketright.case" horiz-adv-x="311" 
d="M229 -97h-206v44h159v761h-159v44h206v-849z" />
    <glyph glyph-name="parenleft.case" horiz-adv-x="305" 
d="M285 761q-94 -83 -135.5 -186.5t-41.5 -247.5t41.5 -247.5t135.5 -186.5l-28 -29q-101 86 -150.5 201t-49.5 262t49.5 262t150.5 201z" />
    <glyph glyph-name="parenright.case" horiz-adv-x="305" 
d="M198.5 589q49.5 -115 49.5 -262t-49.5 -262t-150.5 -201l-28 29q94 83 135.5 186.5t41.5 247.5t-41.5 247.5t-135.5 186.5l28 29q101 -86 150.5 -201z" />
    <glyph glyph-name="emdash" unicode="&#x2014;" horiz-adv-x="979" 
d="M903 242h-828v47h828v-47z" />
    <glyph glyph-name="endash" unicode="&#x2013;" horiz-adv-x="638" 
d="M563 242h-488v47h488v-47z" />
    <glyph glyph-name="hyphen" unicode="-" horiz-adv-x="466" 
d="M387 240h-307v51h307v-51z" />
    <glyph glyph-name="uni00AD" unicode="&#xad;" horiz-adv-x="466" 
d="M387 240h-307v51h307v-51z" />
    <glyph glyph-name="emdash.case" horiz-adv-x="979" 
d="M903 312h-828v47h828v-47z" />
    <glyph glyph-name="endash.case" horiz-adv-x="638" 
d="M563 312h-488v47h488v-47z" />
    <glyph glyph-name="hyphen.case" horiz-adv-x="466" 
d="M387 310h-307v51h307v-51z" />
    <glyph glyph-name="guillemotleft" unicode="&#xab;" horiz-adv-x="440" 
d="M103 265l136 -196h-56l-134 196l134 196h56zM252 265l136 -196h-56l-134 196l134 196h56z" />
    <glyph glyph-name="guillemotright" unicode="&#xbb;" horiz-adv-x="437" 
d="M105 461l134 -196l-134 -196h-56l136 196l-136 196h56zM254 461l134 -196l-134 -196h-56l136 196l-136 196h56z" />
    <glyph glyph-name="guilsinglleft" unicode="&#x2039;" horiz-adv-x="290" 
d="M103 265l136 -196h-56l-134 196l134 196h56z" />
    <glyph glyph-name="guilsinglright" unicode="&#x203a;" horiz-adv-x="290" 
d="M107 461l135 -196l-135 -196h-56l136 196l-136 196h56z" />
    <glyph glyph-name="quotedblbase" unicode="&#x201e;" horiz-adv-x="369" 
d="M150.5 62q14.5 -20 14.5 -53q0 -42 -22 -79t-64 -58l-28 25q35 13 57.5 44t20.5 60l-3 1q-7 -10 -23 -10q-15 0 -27 12t-12 32q0 19 13.5 32.5t32.5 13.5q26 0 40.5 -20zM296.5 62q14.5 -20 14.5 -53q0 -42 -22 -79t-64 -58l-28 25q35 13 57.5 44t20.5 60l-3 1
q-7 -10 -23 -10q-15 0 -27 12t-12 32q0 19 13.5 32.5t32.5 13.5q26 0 40.5 -20z" />
    <glyph glyph-name="quotedblleft" unicode="&#x201c;" horiz-adv-x="362" 
d="M68 506q-15 20 -15 52q0 43 21.5 79.5t64.5 57.5l28 -25q-35 -12 -57.5 -43t-20.5 -60l3 -1q6 9 23 9q15 0 27 -12t12 -32q0 -18 -13 -31.5t-32 -13.5q-26 0 -41 20zM214 506q-15 20 -15 52q0 43 21.5 79.5t64.5 57.5l28 -25q-35 -12 -57.5 -43t-20.5 -60l3 -1q6 9 23 9
q15 0 27 -12t12 -32q0 -18 -13 -31.5t-32 -13.5q-26 0 -41 20z" />
    <glyph glyph-name="quotedblright" unicode="&#x201d;" horiz-adv-x="362" 
d="M153 674q15 -20 15 -52q0 -43 -21.5 -79.5t-64.5 -57.5l-28 25q35 12 57.5 43t20.5 60l-3 1q-6 -9 -23 -9q-15 0 -27 11.5t-12 31.5q0 19 13 32.5t32 13.5q26 0 41 -20zM299 674q15 -20 15 -52q0 -43 -21.5 -79.5t-64.5 -57.5l-28 25q35 12 57.5 43t20.5 60l-3 1
q-6 -9 -23 -9q-15 0 -27 11.5t-12 31.5q0 19 13 32.5t32 13.5q26 0 41 -20z" />
    <glyph glyph-name="quoteleft" unicode="&#x2018;" horiz-adv-x="217" 
d="M68 506q-15 20 -15 52q0 43 21.5 79.5t64.5 57.5l28 -25q-35 -12 -57.5 -43t-20.5 -60l3 -1q6 9 23 9q15 0 27 -12t12 -32q0 -18 -13 -31.5t-32 -13.5q-26 0 -41 20z" />
    <glyph glyph-name="quoteright" unicode="&#x2019;" horiz-adv-x="216" 
d="M153 674q15 -20 15 -52q0 -43 -21.5 -79.5t-64.5 -57.5l-28 25q35 12 57.5 43t20.5 60l-3 1q-6 -9 -23 -9q-15 0 -27 11.5t-12 31.5q0 19 13 32.5t32 13.5q26 0 41 -20z" />
    <glyph glyph-name="quotesinglbase" unicode="&#x201a;" horiz-adv-x="223" 
d="M150.5 62q14.5 -20 14.5 -53q0 -42 -22 -79t-64 -58l-28 25q35 13 57.5 44t20.5 60l-3 1q-7 -10 -23 -10q-15 0 -27 12t-12 32q0 19 13.5 32.5t32.5 13.5q26 0 40.5 -20z" />
    <glyph glyph-name="guillemotleft.case" horiz-adv-x="445" 
d="M103 327l136 -196h-56l-134 196l134 196h56zM252 327l136 -196h-56l-134 196l134 196h56z" />
    <glyph glyph-name="guillemotright.case" horiz-adv-x="445" 
d="M105 523l134 -196l-134 -196h-56l136 196l-136 196h56zM254 523l134 -196l-134 -196h-56l136 196l-136 196h56z" />
    <glyph glyph-name="guilsinglleft.case" horiz-adv-x="296" 
d="M103 327l136 -196h-56l-134 196l134 196h56z" />
    <glyph glyph-name="guilsinglright.case" horiz-adv-x="296" 
d="M107 523l135 -196l-135 -196h-56l136 196l-136 196h56z" />
    <glyph glyph-name="periodcentered.sc" horiz-adv-x="210" 
d="M137.5 327.5q12.5 -12.5 12.5 -32.5t-12.5 -32.5t-32.5 -12.5t-32.5 12.5t-12.5 32.5t12.5 32.5t32.5 12.5t32.5 -12.5z" />
    <glyph glyph-name="exclam.sc" horiz-adv-x="209" 
d="M131 294l-6 -134h-40l-6 134v266h52v-266zM136.5 67q12.5 -12 12.5 -31t-12 -31t-32 -12q-19 0 -31 12t-12 31t12 31t31 12t31.5 -12z" />
    <glyph glyph-name="exclamdown.sc" horiz-adv-x="209" 
d="M72.5 493q-12.5 12 -12.5 31t12 31t32 12q19 0 31 -12t12 -31t-12 -31t-31 -12t-31.5 12zM79 266l5 134h41l5 -134v-266h-51v266z" />
    <glyph glyph-name="periodcentered.loclCAT.sc" horiz-adv-x="0" 
d="M-60.5 327.5q12.5 -12.5 12.5 -32.5t-12.5 -32.5t-32.5 -12.5t-32.5 12.5t-12.5 32.5t12.5 32.5t32.5 12.5t32.5 -12.5z" />
    <glyph glyph-name="question.sc" horiz-adv-x="442" 
d="M360 529.5q51 -38.5 51 -106.5q0 -72 -43.5 -113.5t-128.5 -58.5v-93h-49v117q93 20 131 52.5t38 89.5q0 50 -36 78.5t-99 28.5q-134 0 -152 -122l-46 22q12 68 62.5 106t138.5 38q82 0 133 -38.5zM244 67q12 -12 12 -31t-11.5 -31t-31.5 -12t-32 12t-12 31t12.5 31
t31.5 12t31 -12z" />
    <glyph glyph-name="questiondown.sc" horiz-adv-x="434" 
d="M203 495q-12 12 -12 31q0 20 12 31.5t31 11.5q20 0 32 -12t12 -31t-12.5 -31t-31.5 -12t-31 12zM86 32.5q-51 38.5 -51 106.5q0 138 172 173v93h50v-118q-93 -20 -131 -52.5t-38 -89.5q0 -50 36 -78.5t99 -28.5q68 0 105.5 32t46.5 90l46 -22q-12 -68 -63 -106t-138 -38
q-83 0 -134 38.5z" />
    <glyph glyph-name="quotedbl.sc" horiz-adv-x="329" 
d="M248 376h-40v206h54zM115 376h-40v206h54z" />
    <glyph glyph-name="quotedblleft.sc" horiz-adv-x="369" 
d="M73.5 402q-14.5 20 -14.5 53q0 42 21.5 79t63.5 58l28 -25q-35 -13 -57 -43.5t-21 -60.5l4 -1q7 10 22 10t27 -12t12 -32q0 -19 -13 -32.5t-32 -13.5q-26 0 -40.5 20zM215.5 402q-14.5 20 -14.5 53q0 42 21.5 79t63.5 58l28 -25q-35 -13 -57 -43.5t-21 -60.5l4 -1
q7 10 22 10t27 -12t12 -32q0 -19 -13 -32.5t-32 -13.5q-26 0 -40.5 20z" />
    <glyph glyph-name="quotedblright.sc" horiz-adv-x="369" 
d="M158.5 565.5q14.5 -20.5 14.5 -52.5q0 -42 -22 -79t-64 -58l-28 25q35 12 57.5 43t20.5 60l-3 1q-6 -9 -23 -9q-15 0 -27 12t-12 32q0 18 13.5 32t32.5 14q26 0 40.5 -20.5zM300.5 565.5q14.5 -20.5 14.5 -52.5q0 -42 -22 -79t-64 -58l-28 25q35 12 57.5 43t20.5 60l-3 1
q-6 -9 -23 -9q-15 0 -27 12t-12 32q0 18 13.5 32t32.5 14q26 0 40.5 -20.5z" />
    <glyph glyph-name="quoteleft.sc" horiz-adv-x="227" 
d="M73.5 402q-14.5 20 -14.5 53q0 42 21.5 79t63.5 58l28 -25q-35 -13 -57 -43.5t-21 -60.5l4 -1q7 10 22 10t27 -12t12 -32q0 -19 -13 -32.5t-32 -13.5q-26 0 -40.5 20z" />
    <glyph glyph-name="quoteright.sc" horiz-adv-x="227" 
d="M158.5 565.5q14.5 -20.5 14.5 -52.5q0 -42 -22 -79t-64 -58l-28 25q35 12 57.5 43t20.5 60l-3 1q-6 -9 -23 -9q-15 0 -27 12t-12 32q0 18 13.5 32t32.5 14q26 0 40.5 -20.5z" />
    <glyph glyph-name="quotesingle.sc" horiz-adv-x="196" 
d="M115 376h-40v206h54z" />
    <glyph glyph-name="uni00A0" unicode="&#xa0;" horiz-adv-x="313" 
 />
    <glyph glyph-name="space.tf" horiz-adv-x="302" 
 />
    <glyph glyph-name="Euro" unicode="&#x20ac;" horiz-adv-x="676" 
d="M630 169q-24 -85 -87.5 -132t-143.5 -47q-105 0 -172.5 63t-88.5 177h-89v42h84q-3 27 -3 58q0 18 2 50h-83v42h88q20 118 87.5 183t172.5 65q82 0 140 -38t83 -110l-44 -23q-19 62 -65 94.5t-110 32.5q-83 0 -139 -53.5t-74 -150.5h264l-15 -42h-255q-2 -32 -2 -50
q0 -31 3 -58h229l-15 -42h-208q20 -94 74.5 -145t136.5 -51q64 0 115 39.5t70 113.5z" />
    <glyph glyph-name="cent" unicode="&#xa2;" horiz-adv-x="553" 
d="M435.5 34q-51.5 -39 -123.5 -44v-90h-42v91q-98 9 -153 77t-55 182q0 113 55 181.5t153 77.5v91h42v-90q70 -4 118 -39t70 -96l-47 -22q-15 53 -51.5 82.5t-89.5 32.5v-436q57 4 96.5 36t51.5 85l45 -15q-18 -65 -69.5 -104zM151.5 98q41.5 -57 118.5 -66v435
q-77 -9 -118.5 -65.5t-41.5 -151.5t41.5 -152z" />
    <glyph glyph-name="currency" unicode="&#xa4;" horiz-adv-x="635" 
d="M473 205l96 -95l-32 -32l-96 94q-51 -40 -123 -40q-73 0 -125 41l-94 -95l-33 32l95 96q-38 52 -38 125q0 72 38 123l-95 94l33 33l94 -94q52 41 125 41q75 0 126 -42l93 95l32 -33l-94 -95q37 -51 37 -122q0 -75 -39 -126zM422.5 219.5q39.5 42.5 39.5 111.5
q0 68 -39.5 110t-104.5 42t-105 -42t-40 -110q0 -69 40 -111.5t105 -42.5t104.5 42.5z" />
    <glyph glyph-name="dollar" unicode="$" horiz-adv-x="599" 
d="M285 1q-89 5 -150 49t-83 121l46 24q13 -64 64 -104t123 -48v266q-68 14 -111.5 30t-72.5 49t-29 89q0 48 25.5 89t74 66t113.5 27v101h43v-101q78 -4 128.5 -39.5t78.5 -103.5l-40 -32q-22 64 -62.5 95.5t-104.5 36.5v-272q68 -14 111 -30t72 -49t29 -90
q0 -76 -57.5 -123t-154.5 -51v-101h-43v101zM285 617q-77 -3 -121 -40t-44 -96q0 -40 22 -65t56 -38t87 -25v264zM447.5 78.5q45.5 33.5 45.5 92.5q0 40 -22 65.5t-56 39t-87 24.5v-258q74 3 119.5 36.5z" />
    <glyph glyph-name="florin" unicode="&#x192;" horiz-adv-x="446" 
d="M277 584l-29 -184h157v-43h-164l-53 -338q-24 -147 -142 -147q-25 0 -42 4.5t-37 16.5l9 43q28 -19 66 -19q79 0 95 106l53 334h-149v43h155l30 188q12 74 46.5 110.5t93.5 36.5q26 0 42.5 -4t35.5 -15l-7 -45q-29 19 -63 19q-82 0 -97 -106z" />
    <glyph glyph-name="sterling" unicode="&#xa3;" horiz-adv-x="601" 
d="M565 135q0 -72 -35.5 -108.5t-97.5 -36.5q-43 0 -75 15t-73 44q-25 -27 -61 -43t-79 -16q-47 0 -75 21t-28 56q0 34 30 56.5t81 22.5q38 0 67.5 -11.5t57.5 -31.5q13 27 13 61q0 31 -11.5 59.5t-38.5 66.5h-150v41h118q-34 45 -48 77.5t-14 68.5q0 56 25.5 100t71.5 68.5
t105 24.5q76 0 124 -39t63 -112l-44 -23q-11 61 -48 95t-97 34q-71 0 -112.5 -38.5t-41.5 -102.5q0 -33 14 -64t52 -83l5 -6h198v-41h-171q21 -34 30 -62.5t9 -60.5q0 -45 -22 -86q33 -25 58.5 -37.5t60.5 -12.5q49 0 73 25.5t25 78.5h41zM209.5 37q27.5 12 46.5 33
q-27 18 -51 28t-52 10q-31 0 -48.5 -11t-17.5 -30q0 -20 17 -31t45 -11q33 0 60.5 12z" />
    <glyph glyph-name="uni20BA" unicode="&#x20ba;" horiz-adv-x="614" 
d="M572 263q-3 -129 -66.5 -196t-181.5 -67h-147v271l-123 -36v38l123 36v103l-123 -37v38l123 36v211h48v-197l218 64v-38l-218 -64v-103l218 64v-38l-218 -63v-242h91q101 0 154.5 56t53.5 164h48z" />
    <glyph glyph-name="uni20BD" unicode="&#x20bd;" horiz-adv-x="618" 
d="M186 275v-84h205v-40h-205v-151h-47v151h-98v40h98v84h-98v44h98v341h220q102 0 162.5 -51.5t60.5 -141.5q0 -89 -60.5 -140.5t-162.5 -51.5h-173zM186 319h166q87 0 132.5 38t45.5 110q0 71 -45.5 109.5t-132.5 38.5h-166v-296z" />
    <glyph glyph-name="yen" unicode="&#xa5;" horiz-adv-x="596" 
d="M363 284h157v-38h-200v-91h200v-36h-200v-119h-45v119h-198v36h198v91h-198v38h157l28 -2l-223 378h58l168 -299l32 -64h2l32 64l168 299h58l-224 -378z" />
    <glyph glyph-name="cent.tf" 
d="M453.5 34q-51.5 -39 -123.5 -44v-90h-42v91q-98 9 -153 77t-55 182q0 113 55 181.5t153 77.5v91h42v-90q70 -4 118 -39t70 -96l-47 -22q-15 53 -51.5 82.5t-89.5 32.5v-436q57 4 96.5 36t51.5 85l45 -15q-18 -65 -69.5 -104zM169.5 98q41.5 -57 118.5 -66v435
q-77 -9 -118.5 -65.5t-41.5 -151.5t41.5 -152z" />
    <glyph glyph-name="currency.tf" 
d="M457 205l96 -95l-32 -32l-96 94q-51 -40 -123 -40q-73 0 -125 41l-94 -95l-33 32l95 96q-38 52 -38 125q0 72 38 123l-95 94l33 33l94 -94q52 41 125 41q75 0 126 -42l93 95l32 -33l-94 -95q37 -51 37 -122q0 -75 -39 -126zM406.5 219.5q39.5 42.5 39.5 111.5
q0 68 -39.5 110t-104.5 42t-105 -42t-40 -110q0 -69 40 -111.5t105 -42.5t104.5 42.5z" />
    <glyph glyph-name="dollar.tf" 
d="M488 51.5q-57 -47.5 -153 -51.5v-100h-43v101q-85 6 -143.5 49.5t-80.5 120.5l47 24q12 -64 60.5 -104t116.5 -48v267q-65 14 -106.5 30t-69.5 49t-28 88q0 48 24.5 88.5t71 66t108.5 28.5v100h43v-101q78 -4 127.5 -39t77.5 -104l-40 -32q-22 65 -61 96t-104 36v-271
q67 -14 109.5 -30t71.5 -49.5t29 -90.5q0 -76 -57 -123.5zM175.5 397.5q39.5 -26.5 116.5 -43.5v263q-74 -4 -115 -41t-41 -95q0 -57 39.5 -83.5zM453.5 78q44.5 33 44.5 93q0 41 -21.5 66t-55 38.5t-86.5 25.5v-259q74 3 118.5 36z" />
    <glyph glyph-name="Euro.tf" 
d="M576 169q-20 -85 -78.5 -132t-138.5 -47q-98 0 -161.5 63t-82.5 177h-86v42h80q-2 36 -2 58q0 34 2 50h-80v42h85q18 117 82.5 182.5t163.5 65.5q79 0 132.5 -38t73.5 -110l-44 -23q-15 62 -55.5 94.5t-102.5 32.5q-77 0 -129.5 -53.5t-70.5 -150.5h249l-15 -42h-239
q-2 -16 -2 -50q0 -31 3 -58h214l-14 -42h-194q17 -93 67.5 -144.5t125.5 -51.5q65 0 111 39.5t61 113.5z" />
    <glyph glyph-name="florin.tf" 
d="M369 584l-34 -184h191v-43h-198l-61 -338q-26 -147 -160 -147q-27 0 -45 4.5t-40 16.5l9 43q29 -19 73 -19q94 0 112 106l61 334h-166v43h174l34 188q26 147 156 147q28 0 46 -4t39 -15l-6 -45q-34 19 -70 19q-97 0 -115 -106z" />
    <glyph glyph-name="uni20BA.tf" 
d="M558 263q-3 -129 -66.5 -196t-181.5 -67h-147v271l-123 -36v38l123 36v103l-123 -37v38l123 36v211h47v-197l219 64v-38l-219 -64v-103l219 64v-38l-219 -63v-242h91q102 0 155.5 56t53.5 164h48z" />
    <glyph glyph-name="uni20BD.tf" 
d="M185 275v-84h189v-40h-189v-151h-47v151h-98v40h98v84h-98v44h98v341h202q101 0 160 -51.5t59 -141.5q0 -89 -59 -140.5t-160 -51.5h-155zM185 319h149q84 0 128 38t44 110q0 71 -44 109.5t-128 38.5h-149v-296z" />
    <glyph glyph-name="sterling.tf" 
d="M555 135q0 -72 -33.5 -108.5t-93.5 -36.5q-41 0 -72.5 16t-71.5 47q-22 -29 -54.5 -46t-72.5 -17q-45 0 -70.5 21t-25.5 56q0 34 27.5 56.5t75.5 22.5q57 0 109 -37q9 26 9 55q0 31 -10 59.5t-34 66.5h-141v41h113q-30 43 -42.5 76t-12.5 70q0 56 24.5 100t68.5 68.5
t100 24.5q72 0 118 -39t60 -112l-44 -23q-10 61 -44.5 95t-91.5 34q-66 0 -105.5 -38.5t-39.5 -102.5q0 -36 12 -67t45 -81l3 -5h200v-41h-175q19 -34 27 -62t8 -60q0 -46 -17 -83q33 -27 58 -40.5t60 -13.5q46 0 68.5 25.5t23.5 78.5h41zM216 38q24 13 40 36q-48 34 -91 34
q-29 0 -44 -11t-15 -30q0 -20 15 -31t42 -11q29 0 53 13z" />
    <glyph glyph-name="yen.tf" 
d="M367 284h157v-38h-200v-91h200v-36h-200v-119h-44v119h-199v36h199v91h-199v38h157l29 -2l-224 378h58l168 -299l32 -64h2l32 64l168 299h58l-224 -378z" />
    <glyph glyph-name="approxequal" unicode="&#x2248;" 
d="M246.5 463q25.5 -9 62.5 -27q34 -16 57.5 -24.5t47.5 -8.5q30 0 57.5 12t58.5 43v-48q-53 -52 -117 -52q-25 0 -50.5 9t-59.5 26q-36 17 -60.5 25.5t-49.5 8.5q-37 0 -63.5 -13t-55.5 -42v47q31 29 57 41t62 12q28 0 53.5 -9zM245.5 269.5q24.5 -8.5 63.5 -26.5
q34 -16 57.5 -24.5t47.5 -8.5q30 0 58 12t58 43v-48q-53 -52 -117 -52q-25 0 -50 8.5t-60 25.5q-36 17 -60.5 25.5t-49.5 8.5q-37 0 -63.5 -13t-55.5 -42v48q31 28 57 40t62 12q28 0 52.5 -8.5z" />
    <glyph glyph-name="asciitilde" unicode="~" horiz-adv-x="511" 
d="M355 266q-32 0 -54.5 10t-54.5 30q-26 17 -44.5 25.5t-40.5 8.5q-57 0 -70 -77h-48q12 123 114 123q31 0 54.5 -10t54.5 -30q26 -17 44.5 -25.5t40.5 -8.5q56 0 70 77h47q-12 -123 -113 -123z" />
    <glyph glyph-name="divide" unicode="&#xf7;" 
d="M334.5 539.5q12.5 -12.5 12.5 -32.5t-12.5 -32.5t-32.5 -12.5t-32.5 12.5t-12.5 32.5t12.5 32.5t32.5 12.5t32.5 -12.5zM537 293h-470v46h470v-46zM334.5 158q12.5 -12 12.5 -32t-12.5 -32.5t-32.5 -12.5t-32.5 12.5t-12.5 32.5t12.5 32t32.5 12t32.5 -12z" />
    <glyph glyph-name="equal" unicode="=" 
d="M529 386h-454v46h454v-46zM529 184h-454v46h454v-46z" />
    <glyph glyph-name="uni208C" unicode="&#x208c;" horiz-adv-x="386" 
d="M58 86h270v-35h-270v35zM58 -33h270v-34h-270v34z" />
    <glyph glyph-name="uni207C" unicode="&#x207c;" horiz-adv-x="386" 
d="M58 608h270v-35h-270v35zM58 489h270v-34h-270v34z" />
    <glyph glyph-name="greater" unicode="&#x3e;" 
d="M524 329v-59l-460 -228v53l420 205l-420 204v53z" />
    <glyph glyph-name="greaterequal" unicode="&#x2265;" 
d="M530 407v-62l-464 -225v54l428 202l-428 197v54zM66 46h464v-46h-464v46z" />
    <glyph glyph-name="infinity" unicode="&#x221e;" horiz-adv-x="877" 
d="M733.5 474.5q35.5 -23.5 56.5 -68t21 -105.5t-21 -105t-56.5 -67.5t-78.5 -23.5q-39 0 -67 12.5t-60.5 44.5t-92.5 103q-64 -78 -95.5 -109.5t-55 -41t-62.5 -9.5q-43 0 -78.5 23.5t-56.5 67.5t-21 105t21 105.5t56.5 68t78.5 23.5q39 0 67.5 -12.5t61 -45t90.5 -102.5
q63 76 96.5 108.5t57 42t60.5 9.5q43 0 78.5 -23.5zM709 173q24 19 38.5 53.5t14.5 79.5q0 46 -15 81t-39.5 53.5t-52.5 18.5t-48.5 -10t-50 -41.5t-88.5 -102.5q55 -67 85.5 -97.5t53 -42t50.5 -11.5t52 19zM269.5 152q18.5 9 46 38.5t91.5 107.5q-58 70 -86.5 99.5
t-49.5 40.5t-49 11t-52.5 -18.5t-39.5 -53.5t-15 -81t15 -81t39.5 -53.5t52.5 -18.5q29 0 47.5 9z" />
    <glyph glyph-name="integral" unicode="&#x222b;" horiz-adv-x="425" 
d="M373 753q17 -5 34 -16l-9 -44q-28 20 -66 20q-43 0 -68 -25t-25 -76v-598q0 -67 -36.5 -104.5t-101.5 -37.5q-28 0 -46 5.5t-36 16.5l9 44q31 -21 67 -21q44 0 69 25t25 76v598q0 67 37 104.5t102 37.5q28 0 45 -5z" />
    <glyph glyph-name="less" unicode="&#x3c;" 
d="M540 504l-420 -204l420 -205v-53l-460 228v59l460 228v-53z" />
    <glyph glyph-name="lessequal" unicode="&#x2264;" 
d="M538 573l-428 -197l428 -202v-54l-464 225v62l464 220v-54zM74 46h464v-46h-464v46z" />
    <glyph glyph-name="logicalnot" unicode="&#xac;" 
d="M537 339v-187h-50v141h-420v46h470z" />
    <glyph glyph-name="minus" unicode="&#x2212;" 
d="M537 293h-470v46h470v-46z" />
    <glyph glyph-name="uni208B" unicode="&#x208b;" horiz-adv-x="336" 
d="M33 25h270v-32h-270v32z" />
    <glyph glyph-name="uni207B" unicode="&#x207b;" horiz-adv-x="336" 
d="M33 547h270v-32h-270v32z" />
    <glyph glyph-name="multiply" unicode="&#xd7;" 
d="M336 315l166 -166l-34 -35l-166 167l-167 -167l-34 35l166 166l-166 166l34 35l167 -167l166 167l34 -35z" />
    <glyph glyph-name="notequal" unicode="&#x2260;" 
d="M368 388l-79 -160h240v-44h-261l-57 -115h-50l56 115h-142v44h164l79 160h-243v44h264l55 113h50l-55 -113h140v-44h-161z" />
    <glyph glyph-name="partialdiff" unicode="&#x2202;" horiz-adv-x="589" 
d="M458 584.5q62 -85.5 62 -254.5q0 -165 -63.5 -252.5t-182.5 -87.5q-65 0 -115.5 28t-78 77.5t-27.5 113.5t28 113.5t77.5 77t111.5 27.5q68 0 121 -29.5t82 -82.5l1 15q0 154 -52 225.5t-159 71.5q-46 0 -79 -15t-60 -48l-28 36q68 70 168 70q132 0 194 -85.5zM405 88.5
q49 53.5 63 157.5q-20 65 -71.5 100.5t-127.5 35.5t-121 -47t-45 -125q0 -79 46 -127t125 -48q82 0 131 53.5z" />
    <glyph glyph-name="percent" unicode="%" horiz-adv-x="809" 
d="M299 616q39 -49 39 -126t-39 -125.5t-110 -48.5q-70 0 -109.5 49t-39.5 125q0 77 39 126t110 49t110 -49zM596 660h49l-433 -660h-49zM111.5 587.5q-26.5 -37.5 -26.5 -97.5t26.5 -97t77.5 -37t77.5 37t26.5 97t-26.5 97.5t-77.5 37.5t-77.5 -37.5zM729.5 294.5
q39.5 -49.5 39.5 -125.5t-39.5 -125t-109.5 -49q-71 0 -110.5 49t-39.5 125q0 77 39.5 126t110.5 49q70 0 109.5 -49.5zM542 267q-27 -37 -27 -98q0 -60 27 -97t78 -37t77.5 37t26.5 97q0 61 -26.5 98t-77.5 37t-78 -37z" />
    <glyph glyph-name="perthousand" unicode="&#x2030;" horiz-adv-x="1181" 
d="M299 616q39 -49 39 -126t-39 -125.5t-110 -48.5q-70 0 -109.5 49t-39.5 125q0 77 39 126t110 49t110 -49zM596 660h49l-433 -660h-49zM111.5 587.5q-26.5 -37.5 -26.5 -97.5t26.5 -97t77.5 -37t77.5 37t26.5 97t-26.5 97.5t-77.5 37.5t-77.5 -37.5zM729.5 294.5
q39.5 -49.5 39.5 -125.5t-39.5 -125t-109.5 -49q-71 0 -110.5 49t-39.5 125q0 77 39.5 126t110.5 49q70 0 109.5 -49.5zM1102 295q39 -49 39 -126t-39 -125.5t-110 -48.5t-110.5 49t-39.5 125q0 77 39.5 126t110.5 49t110 -49zM542 267q-27 -37 -27 -98q0 -60 27 -97t78 -37
t77.5 37t26.5 97q0 61 -26.5 98t-77.5 37t-78 -37zM914 267q-27 -37 -27 -98q0 -60 27 -97t78 -37t77.5 37t26.5 97q0 61 -26.5 98t-77.5 37t-78 -37z" />
    <glyph glyph-name="plus" unicode="+" 
d="M540 293h-214v-220h-47v220h-215v46h215v216h47v-216h214v-46z" />
    <glyph glyph-name="uni208A" unicode="&#x208a;" horiz-adv-x="336" 
d="M306 -7h-119v-122h-37v122h-119v32h119v122h37v-122h119v-32z" />
    <glyph glyph-name="plusminus" unicode="&#xb1;" 
d="M537 406v-47h-211v-227h-47v227h-212v47h212v226h47v-226h211zM67 46h470v-46h-470v46z" />
    <glyph glyph-name="uni207A" unicode="&#x207a;" horiz-adv-x="336" 
d="M306 515h-119v-122h-37v122h-119v32h119v122h37v-122h119v-32z" />
    <glyph glyph-name="product" unicode="&#x220f;" horiz-adv-x="664" 
d="M579 -128h-50v742h-394v-742h-50v788h494v-788z" />
    <glyph glyph-name="radical" unicode="&#x221a;" horiz-adv-x="637" 
d="M634 818l-321 -818h-51l-139 346h-103v46h133l115 -285l20 -61l20 62l276 710h50z" />
    <glyph glyph-name="summation" unicode="&#x2211;" horiz-adv-x="606" 
d="M552 614h-442l334 -338v-8l-336 -350h444v-46h-507v46l337 354l-337 342v46h507v-46z" />
    <glyph glyph-name="uni00B5" unicode="&#xb5;" horiz-adv-x="581" 
d="M501 500v-500h-42l-4 101q-24 -52 -74 -81.5t-120 -29.5q-42 0 -75.5 17t-54.5 51v-268h-50v710h50v-318q0 -75 37 -111.5t102 -36.5q76 0 126 44.5t55 112.5v309h50z" />
    <glyph glyph-name="uni2126" unicode="&#x2126;" horiz-adv-x="751" 
d="M685 43v-43h-247v43q89 28 140 102.5t51 189.5q0 88 -31.5 153.5t-88.5 100.5t-133 35q-77 0 -134 -35t-88.5 -100.5t-31.5 -153.5q0 -115 51 -189.5t140 -102.5v-43h-247v43h170q-78 41 -121 115.5t-43 176.5q0 101 37 177t106 117t161 41t160.5 -41t105.5 -117t37 -177
q0 -102 -43 -176.5t-122 -115.5h171z" />
    <glyph glyph-name="uni2206" unicode="&#x2206;" horiz-adv-x="655" 
d="M621 42v-42h-587v42l263 618h62zM82 42h491l-246 580z" />
    <glyph glyph-name="uni2215" unicode="&#x2215;" horiz-adv-x="226" 
d="M323 660h51l-471 -660h-51z" />
    <glyph glyph-name="uni2219" unicode="&#x2219;" horiz-adv-x="210" 
d="M137.5 377.5q12.5 -12.5 12.5 -32.5t-12.5 -32.5t-32.5 -12.5t-32.5 12.5t-12.5 32.5t12.5 32.5t32.5 12.5t32.5 -12.5z" />
    <glyph glyph-name="arrowup" unicode="&#x2191;" horiz-adv-x="750" 
d="M518.5 502q73.5 -71 178.5 -140l-33 -41q-92 64 -161 131.5t-109 130.5q5 -70 5 -144v-439h-50v439q0 74 5 144q-40 -63 -109 -130.5t-161 -131.5l-33 41q105 69 179 140t142 165h4q69 -94 142.5 -165z" />
    <glyph glyph-name="uni2197" unicode="&#x2197;" horiz-adv-x="750" 
d="M596 301q0 -92 12 -191l-51 -4q-8 80 -8 155q0 136 21 235q-66 -74 -107 -115l-291 -291l-35 36l291 291q46 47 114 107q-98 -21 -231 -21q-76 0 -159 8l5 51q99 -12 190 -12q131 0 267 22l4 -4q-22 -138 -22 -267z" />
    <glyph glyph-name="arrowright" unicode="&#x2192;" horiz-adv-x="750" 
d="M555.5 475q71.5 -74 165.5 -142v-4q-95 -69 -166 -142.5t-140 -178.5l-41 33q65 92 132 161t130 109q-70 -5 -143 -5h-439v50h439q74 0 144 -5q-63 39 -130 108t-133 162l41 33q69 -105 140.5 -179z" />
    <glyph glyph-name="uni2198" unicode="&#x2198;" horiz-adv-x="750" 
d="M583 378q0 -124 23 -270l-4 -4q-136 22 -267 22q-92 0 -191 -12l-4 51q83 8 158 8q133 0 231 -21q-75 68 -114 107l-291 291l36 36l291 -291q48 -48 107 -116q-21 98 -21 232q0 76 8 159l50 -4q-12 -97 -12 -188z" />
    <glyph glyph-name="arrowdown" unicode="&#x2193;" horiz-adv-x="750" 
d="M699 298q-105 -69 -179 -140t-142 -165h-4q-69 94 -142.5 165t-178.5 140l33 41q92 -64 161 -131t109 -130q-5 68 -5 143v439h50v-439q0 -76 -5 -144q39 63 108.5 130t161.5 132z" />
    <glyph glyph-name="uni2199" unicode="&#x2199;" horiz-adv-x="750" 
d="M452 173q75 0 158 -8l-4 -51q-99 12 -191 12q-131 0 -267 -22l-4 4q23 146 23 270q0 91 -12 188l50 4q8 -83 8 -159q0 -134 -21 -232q59 68 107 116l291 291l36 -36l-291 -291q-39 -39 -114 -107q97 21 231 21z" />
    <glyph glyph-name="arrowleft" unicode="&#x2190;" horiz-adv-x="750" 
d="M257 306q-73 0 -143 5q63 -40 130 -109t132 -161l-41 -33q-69 105 -140 178.5t-166 142.5v4q94 68 165.5 142t140.5 179l41 -33q-66 -93 -133 -162t-130 -108q70 5 144 5h439v-50h-439z" />
    <glyph glyph-name="uni2196" unicode="&#x2196;" horiz-adv-x="750" 
d="M613 126l-35 -36l-291 291q-49 49 -107 114q21 -97 21 -231q0 -75 -8 -158l-51 4q12 99 12 191q0 129 -22 267l4 4q136 -22 267 -22q91 0 190 12l5 -51q-83 -8 -159 -8q-130 0 -230 20q53 -45 114 -106z" />
    <glyph glyph-name="arrowboth" unicode="&#x2194;" horiz-adv-x="1005" 
d="M811.5 492.5q70.5 -73.5 164.5 -141.5v-4q-94 -69 -165 -142.5t-140 -178.5l-45 27q136 194 264 275q-72 -4 -120 -4h-535q-48 0 -120 4q128 -81 264 -275l-45 -27q-69 105 -140 178.5t-165 142.5v4q94 68 164.5 141.5t140.5 179.5l45 -27q-67 -95 -134.5 -165
t-130.5 -110q72 4 121 4h535q49 0 121 -4q-63 40 -130.5 110t-134.5 165l45 27q70 -106 140.5 -179.5z" />
    </font>
</defs>
</svg>
